<?xml version="1.0" encoding="utf-8"?>
<!-- Generator: Adobe Illustrator 17.1.0, SVG Export Plug-In . SVG Version: 6.00 Build 0)  -->
<!DOCTYPE svg PUBLIC "-//W3C//DTD SVG 1.1//EN" "http://www.w3.org/Graphics/SVG/1.1/DTD/svg11.dtd" [
	<!ENTITY ns_extend "http://ns.adobe.com/Extensibility/1.0/">
	<!ENTITY ns_ai "http://ns.adobe.com/AdobeIllustrator/10.0/">
	<!ENTITY ns_graphs "http://ns.adobe.com/Graphs/1.0/">
	<!ENTITY ns_vars "http://ns.adobe.com/Variables/1.0/">
	<!ENTITY ns_imrep "http://ns.adobe.com/ImageReplacement/1.0/">
	<!ENTITY ns_sfw "http://ns.adobe.com/SaveForWeb/1.0/">
	<!ENTITY ns_custom "http://ns.adobe.com/GenericCustomNamespace/1.0/">
	<!ENTITY ns_adobe_xpath "http://ns.adobe.com/XPath/1.0/">
]>
<svg version="1.1" id="图层_1" xmlns:x="&ns_extend;" xmlns:i="&ns_ai;" xmlns:graph="&ns_graphs;"
	 xmlns="http://www.w3.org/2000/svg" xmlns:xlink="http://www.w3.org/1999/xlink" x="0px" y="0px" width="100px" height="100px"
	 viewBox="0 0 100 100" enable-background="new 0 0 100 100" xml:space="preserve">
<metadata><?xpacket begin="﻿" id="W5M0MpCehiHzreSzNTczkc9d"?>
<x:xmpmeta xmlns:x="adobe:ns:meta/" x:xmptk="Adobe XMP Core 5.5-c014 79.151739, 2013/04/03-12:12:15        ">
   <rdf:RDF xmlns:rdf="http://www.w3.org/1999/02/22-rdf-syntax-ns#">
      <rdf:Description rdf:about=""
            xmlns:dc="http://purl.org/dc/elements/1.1/"
            xmlns:xmp="http://ns.adobe.com/xap/1.0/"
            xmlns:xmpGImg="http://ns.adobe.com/xap/1.0/g/img/"
            xmlns:xmpMM="http://ns.adobe.com/xap/1.0/mm/"
            xmlns:stRef="http://ns.adobe.com/xap/1.0/sType/ResourceRef#"
            xmlns:stEvt="http://ns.adobe.com/xap/1.0/sType/ResourceEvent#"
            xmlns:illustrator="http://ns.adobe.com/illustrator/1.0/"
            xmlns:xmpTPg="http://ns.adobe.com/xap/1.0/t/pg/"
            xmlns:stDim="http://ns.adobe.com/xap/1.0/sType/Dimensions#"
            xmlns:xmpG="http://ns.adobe.com/xap/1.0/g/"
            xmlns:pdf="http://ns.adobe.com/pdf/1.3/">
         <dc:format>image/svg+xml</dc:format>
         <dc:title>
            <rdf:Alt>
               <rdf:li xml:lang="x-default">Web</rdf:li>
            </rdf:Alt>
         </dc:title>
         <xmp:CreatorTool>Adobe Illustrator CC (Windows)</xmp:CreatorTool>
         <xmp:CreateDate>2014-08-23T13:23:54+08:00</xmp:CreateDate>
         <xmp:ModifyDate>2014-08-23T13:23:54+08:00</xmp:ModifyDate>
         <xmp:MetadataDate>2014-08-23T13:23:54+08:00</xmp:MetadataDate>
         <xmp:Thumbnails>
            <rdf:Alt>
               <rdf:li rdf:parseType="Resource">
                  <xmpGImg:width>256</xmpGImg:width>
                  <xmpGImg:height>256</xmpGImg:height>
                  <xmpGImg:format>JPEG</xmpGImg:format>
                  <xmpGImg:image>/9j/4AAQSkZJRgABAgEASABIAAD/7QAsUGhvdG9zaG9wIDMuMAA4QklNA+0AAAAAABAASAAAAAEA&#xA;AQBIAAAAAQAB/+4ADkFkb2JlAGTAAAAAAf/bAIQABgQEBAUEBgUFBgkGBQYJCwgGBggLDAoKCwoK&#xA;DBAMDAwMDAwQDA4PEA8ODBMTFBQTExwbGxscHx8fHx8fHx8fHwEHBwcNDA0YEBAYGhURFRofHx8f&#xA;Hx8fHx8fHx8fHx8fHx8fHx8fHx8fHx8fHx8fHx8fHx8fHx8fHx8fHx8fHx8f/8AAEQgBAAEAAwER&#xA;AAIRAQMRAf/EAaIAAAAHAQEBAQEAAAAAAAAAAAQFAwIGAQAHCAkKCwEAAgIDAQEBAQEAAAAAAAAA&#xA;AQACAwQFBgcICQoLEAACAQMDAgQCBgcDBAIGAnMBAgMRBAAFIRIxQVEGE2EicYEUMpGhBxWxQiPB&#xA;UtHhMxZi8CRygvElQzRTkqKyY3PCNUQnk6OzNhdUZHTD0uIIJoMJChgZhJRFRqS0VtNVKBry4/PE&#xA;1OT0ZXWFlaW1xdXl9WZ2hpamtsbW5vY3R1dnd4eXp7fH1+f3OEhYaHiImKi4yNjo+Ck5SVlpeYmZ&#xA;qbnJ2en5KjpKWmp6ipqqusra6voRAAICAQIDBQUEBQYECAMDbQEAAhEDBCESMUEFURNhIgZxgZEy&#xA;obHwFMHR4SNCFVJicvEzJDRDghaSUyWiY7LCB3PSNeJEgxdUkwgJChgZJjZFGidkdFU38qOzwygp&#xA;0+PzhJSktMTU5PRldYWVpbXF1eX1RlZmdoaWprbG1ub2R1dnd4eXp7fH1+f3OEhYaHiImKi4yNjo&#xA;+DlJWWl5iZmpucnZ6fkqOkpaanqKmqq6ytrq+v/aAAwDAQACEQMRAD8A9U4q7FXYq7FXYq7FXYq7&#xA;FXYq7FXYq7FXYq7FXYq7FXYq7FXYq7FXYq7FXYq7FXYq7FXYq7FXYq7FXYq7FXYq7FXYq7FWuQxV&#xA;r1FxV3qLirvUXFXeouKu9RcVd6i4q71FxV3qLirvUXFXeouKu9RcVd6i4q71FxV3qLirvUXFXeou&#xA;Ku9RcVd6i4q71FxV3qLirvUXFXeouKt8hireKuxV2KuxV2KuxVokDFVCW4A74qpqZ5d0Hw/zHpiq&#xA;8W0x6yAfIYq39Vk/35+GKu+qyf78/DFXfVZP9+fhirvqsn+/PwxV31WT/fn4Yq76rJ/vz8MVd9Vk&#xA;/wB+fhirvqsn+/PwxV31WT/fn4Yq76rJ/vz8MVd9Vk/35+GKu+qyf78/DFXfVZP9+fhirvqsn+/P&#xA;wxV31WT/AH5+GKu+qyf78/DFXfVZP9+fhirvqsn+/PwxV31WT/fn4Yq76rJ/vz8MVaNtMOkgPzGK&#xA;rGM8W7j4f5h0xVUiuAe+Kq4IOKt4q7FXYq4mgxVCXE4UHfFWra35j1peh3VT4eJxVWac1ogr7nFV&#xA;tJ2/aP0Yq3xn/mOKu4z/AMxxV3Gf+Y4q7jP/ADHFXcZ/5jiruM/8xxV3Gf8AmOKu4z/zHFXcZ/5j&#xA;iruM/wDMcVdxn/mOKu4z/wAxxV3Gf+Y4q7jP/McVdxn/AJjiruM/8xxV3Gf+Y4q7jP8AzHFXcZ/5&#xA;jiruM/8AMcVapOv7R+nFVyzmtHFPcdMVUbm34D1Yug3ZR4eIxVu3nDDriqLBqMVdirsVUpnoMVS9&#xA;B692sZ+z9p/kMVTCYkkIOnU4qvSMKMVXYq7FXYq7FXYq7FXYq7FXYq7FXYq7FXYq7FXYq7FXYq7F&#xA;XYq7FXYq7FVrxhhiqyIkEoenUYql7j0Ltox9n7SfI4qmEL1GKquKuxVCXbUX/P54qhdJ+K6mY9VU&#xA;D/gjX+GKpiBVyT3P6sVVMVdirsVdirsVdirsVdirsVdirsVdirsVdirsVdirsVdirsVdirsVdirs&#xA;VdiqmRRwR2P68VS7VvhuoWHVlI/4E1/jiqKtGqv+fzxVF4q49MVQN79k/wCfbFUPov8Af3P+w/ji&#xA;qaftfTiq7FXYq7FXYq7FXYq7FXYq7FXYq7FXYq7FXYq7FXYq7FXYq7FXYq7FXYq7FXYqt/a+nFUr&#xA;1r+/tv8AZ/wxVEWX2R/n2xVHDpirj0xVA3n2T/n2xVD6L/f3P+w/jiqaftYquxV2KuxV2KuxV2Ku&#xA;xV2KuxV2KuxV2KuxV2KuxV2KuxV2KuxV2KuxV2KuxV2Krf2sVSvWv7+2/wBn/DFURZ/ZH+fbFUcO&#xA;mKuPTFUDefZP+fbFUPov9/c/7D+OKpp+1iq7FXYq7FXYq7FXYq7FXYq7FXYq7FXYq7FXYq7FXYq7&#xA;FXYq7FXYq7FXYq7FXYqt/axVK9a/v7b/AGf8MVRFn9kf59sVRw6Yq49MVQN59k/59sVQ+i/39z/s&#xA;P44qmn7WKrsVdirsVdirsVdirsVdirsVdirsVdirsVdirsVdirsVdirsVdirsVdirsVdiq39rFUr&#xA;1r+/tv8AZ/wxVEWf2R/n2xVHDpirj0xVA3n2T/n2xVD6L/f3P+w/jiqaftYquxV2KuxV2KuxV2Ku&#xA;xV2KuxV2KuxV2KuxV2KuxV2KuxV2KuxV2KuxV2KuxV2Krf2sVSvWv7+2/wBn/DFURZ/ZH+fbFUcO&#xA;mKuPTFUDefZP+fbFUPov9/c/7D+OKpp+1iq7FXYq7FXYq7FXYq7FXYq7FXYq7FXYq7FXYq7FXYq7&#xA;FXYq7FXYq7FXYq7FXYqt/axVK9a/v7b/AGf8MVRFn9kf59sVRw6Yq49MVQN59k/59sVQ+i/39z/s&#xA;P44qmn7WKrsVdirsVdirsVdirsVdirsVdirsVdirsVdirsVdirsVdirsVdirsVdirsVdiq39rFUr&#xA;1r+/tv8AZ/wxVEWf2R/n2xVHDpirj0xVA3n2T/n2xVD6L/f3P+w/jiqaftYquxV2KuxV2KuxV2Ku&#xA;xV2KuxV2KuxV2KuxV2KuxV2KuxV2KuxV2KuxV2KuxV2Krf2sVSvWv7+2/wBn/DFURZ/ZH+fbFUcO&#xA;mKuPTFUDefZP+fbFUPov9/c/7D+OKpp+1iq7FXYq7FXYq7FXYq7FXYq7FXYq7FXYq7FXYq7FXYq7&#xA;FXYq7FXYq7FXYq7FXYqt/axVK9a/v7b/AGf8MVRFn9kf59sVRw6Yq49MVQN59k/59sVQ+i/39z/s&#xA;P44qmn7WKrsVdirsVdirsVdirsVdirsVdirsVdirsVdirsVdirsVdirsVdirsVdirsVdiq39rFUr&#xA;1r+/tv8AZ/wxVEWf2R/n2xVHDpirj0xVA3n2T/n2xVD6L/f3P+w/jiqaftYquxV2KuxV2KuxV2Ku&#xA;xV2KuxV2KuxV2KuxV2KuxV2KuxV2KuxV2KuxV2KuxV2Krf2sVSvWv7+2/wBn/DFURZ/ZH+fbFUcO&#xA;mKuPTFUDefZP+fbFUPov9/c/7D+OKpp+1iq7FXYq7FXYq7FXYq7FXYq7FXYq7FXYq7FXYq7FXYq7&#xA;FXYq7FXYq7FXYq7FXYqt/axVK9a/v7b/AGf8MVRFn9kf59sVRw6Yq49MVQN59k/59sVQ+i/39z/s&#xA;P44qmn7WKrsVdirsVdirsVdirsVdirsVdirsVdirsVdirsVdirsVdirsVdirsVdirsVdiq39rFUr&#xA;1r+/tv8AZ/wxVEWf2R/n2xVHDpirj0xVA3n2T/n2xVD6L/f3P+w/jiqaftYquxV2KuxV2KuxV2Ku&#xA;xV2KuxV2KuxV2KuxV2KuxV2KuxV2KuxV2KuxV2KuxV2Krf2sVSvWv7+2/wBn/DFURZ/ZH+fbFUcO&#xA;mKuPTFUDefZP+fbFUPov9/c/7D+OKpp+1iq7FXYq7FXYq7FXYq7FXYq7FXYq7FXYq7FXYq7FXYq7&#xA;FXYq7FXYq7FXYq7FXYqt/axVK9a/v7b/AGf8MVRFn9kf59sVRw6Yq49MVQN59k/59sVQ+i/39z/s&#xA;P44qmn7WKrsVdirsVdirsVdirsVdirsVdirsVdirsVdirsVdirsVdirsVdirsVdirsVdiq39rFUr&#xA;1r+/tv8AZ/wxVEWf2R/n2xVHDpirj0xVA3n2T/n2xVD6L/f3P+w/jiqaftYquxV2KuxV2KuxV2Ku&#xA;xV2KuxV2KuxV2KuxV2KuxV2KuxV2KuxV2KuxV2KuxV2Krf2sVSvWv7+2/wBn/DFURZ/ZH+fbFUcO&#xA;mKuPTFUDefZP+fbFUPov9/c/7D+OKpp+1iq7FXYq7FXYq7FXYq7FXYq7FXYq7FXYq7FXYq7FXYq7&#xA;FXYq7FXYq7FXYq7FXYqt/axVK9a/v7b/AGf8MVRFn9kf59sVRw6Yq49MVQN59k/59sVQ+i/39z/s&#xA;P44qmn7WKrsVdirsVdirsVdirsVdirsVdirsVdirsVdirsVdirsVdirsVdirsVdirsVdiq39rFUr&#xA;1r+/tv8AZ/wxVEWf2R/n2xVHDpirj0xVA3n2T/n2xVD6L/f3P+w/jiqaftYquxV2KuxV2KuxV2Ku&#xA;xV2KuxV2KuxV2KuxV2KuxV2KuxV2KuxV2KuxV2KuxV2Krf2sVSvWv7+2/wBn/DFURZ/ZH+fbFUcO&#xA;mKuPTFUDefZP+fbFUJo0gF7PH3ZQ3/AkD/jbFU3OzYquxV2KuxV2KuxV2KuxV2KuxV2KuxV2KuxV&#xA;2KuxV2KuxV2KuxV2KuxV2KuxV2KrRu2KpRrMgN7BH3VS3/BEj/jXFUXZ/ZH+fbFUcOmKuxVBXa1U&#xA;4qkguvqWoRXDbRV4y/6jChP0GhxVkzCu4xVtW7HFW8VdirsVdirsVdirsVdirsVdirsVdirsVdir&#xA;sVdirsVdirsVdirsVdirTN2GKtKKbnFWMm6+u6hLcLvFXjF/qKKA/SanFU7tFooxVG4q7FVC4Sqn&#xA;FUh1K25K1Rsa1xV2h66tvx0+/biF+G3nbpTsrH27HFWRla7jFXUYYq74sVd8WKu+LFXfFirvixV3&#xA;xYq74sVd8WKu+LFXfFirvixV3xYq74sVd8WKu+LFXfFirvixV3xYq74sVd8WKuoxxVwWm5xVjmua&#xA;6txy0+wbkG+G4nXpTuqn37nFXabbcVWg2FKYqn1ulFGKq+KuxVplqMVQF1b8gcVSG/04OCOO2KoS&#xA;2vdY074beblCOkUnxJ9HcfRiqOj84ago/e2SOfFHKj8eWKr/APGV1/ywD/kb/wA24q7/ABldf8sA&#xA;/wCRv/NuKu/xldf8sA/5G/8ANuKu/wAZXX/LAP8Akb/zbirv8ZXX/LAP+Rv/ADbirv8AGV1/ywD/&#xA;AJG/824q7/GV1/ywD/kb/wA24q7/ABldf8sA/wCRv/NuKu/xldf8sA/5G/8ANuKu/wAZXX/LAP8A&#xA;kb/zbirv8ZXX/LAP+Rv/ADbirv8AGV1/ywD/AJG/824q7/GV1/ywD/kb/wA24q7/ABldf8sA/wCR&#xA;v/NuKu/xldf8sA/5G/8ANuKu/wAZXX/LAP8Akb/zbirv8ZXX/LAP+Rv/ADbirv8AGV1/ywD/AJG/&#xA;824q7/GV1/ywD/kb/wA24q7/ABldf8sA/wCRv/NuKrJPOGoMP3VkiHxdyw/DjiqBub3WNR+G4m4w&#xA;nrFH8KfT3P04qi7DTggA47Yqn1rb8aYqj1WgxVvFXYq7FVroGGKoOe1DdsVQE2ngmtPp/wBrFUOd&#xA;MWvT9WKtfoxf5f1Yq79GL/L+rFXfoxf5f1Yq79GL/L+rFXfoxf5f1Yq79GL/AC/qxV36MX+X9WKu&#xA;/Ri/y/qxV36MX+X9WKu/Ri/y/qxV36MX+X9WKu/Ri/y/qxV36MX+X9WKu/Ri/wAv6sVd+jF/l/Vi&#xA;rv0Yv8v6sVd+jF/l/Virv0Yv8v6sVd+jF/l/Virv0Yv8v6sVbGmLXp+rFURDp4BrT6f9vFUfBahe&#xA;2KoxECjFV2KuxV2KuxV2KuIBxVYYlOKrTAMVa+rr4Yq76uvhirvq6+GKu+rr4Yq76uvhirvq6+GK&#xA;u+rr4Yq76uvhirvq6+GKu+rr4Yq76uvhirvq6+GKu+rr4Yq76uvhirvq6+GKu+rr4Yq76uvhirvq&#xA;6+GKu+rr4Yq76uvhirYgGKrhEoxVeABirsVdirsVf//Z</xmpGImg:image>
               </rdf:li>
            </rdf:Alt>
         </xmp:Thumbnails>
         <xmpMM:RenditionClass>proof:pdf</xmpMM:RenditionClass>
         <xmpMM:OriginalDocumentID>uuid:65E6390686CF11DBA6E2D887CEACB407</xmpMM:OriginalDocumentID>
         <xmpMM:DocumentID>xmp.did:bb6a3449-3d5d-4f42-a6fa-d5face714b63</xmpMM:DocumentID>
         <xmpMM:InstanceID>xmp.iid:bb6a3449-3d5d-4f42-a6fa-d5face714b63</xmpMM:InstanceID>
         <xmpMM:DerivedFrom rdf:parseType="Resource">
            <stRef:instanceID>xmp.iid:87b9c743-b36d-5547-a47a-c19117e31f7b</stRef:instanceID>
            <stRef:documentID>xmp.did:87b9c743-b36d-5547-a47a-c19117e31f7b</stRef:documentID>
            <stRef:originalDocumentID>uuid:65E6390686CF11DBA6E2D887CEACB407</stRef:originalDocumentID>
            <stRef:renditionClass>proof:pdf</stRef:renditionClass>
         </xmpMM:DerivedFrom>
         <xmpMM:History>
            <rdf:Seq>
               <rdf:li rdf:parseType="Resource">
                  <stEvt:action>saved</stEvt:action>
                  <stEvt:instanceID>xmp.iid:8d2cb900-9ae3-e54d-a926-a66583faa0fc</stEvt:instanceID>
                  <stEvt:when>2014-08-23T01:25:47+08:00</stEvt:when>
                  <stEvt:softwareAgent>Adobe Illustrator CC (Windows)</stEvt:softwareAgent>
                  <stEvt:changed>/</stEvt:changed>
               </rdf:li>
               <rdf:li rdf:parseType="Resource">
                  <stEvt:action>saved</stEvt:action>
                  <stEvt:instanceID>xmp.iid:bb6a3449-3d5d-4f42-a6fa-d5face714b63</stEvt:instanceID>
                  <stEvt:when>2014-08-23T13:23:54+08:00</stEvt:when>
                  <stEvt:softwareAgent>Adobe Illustrator CC (Windows)</stEvt:softwareAgent>
                  <stEvt:changed>/</stEvt:changed>
               </rdf:li>
            </rdf:Seq>
         </xmpMM:History>
         <illustrator:StartupProfile>Web</illustrator:StartupProfile>
         <xmpTPg:NPages>1</xmpTPg:NPages>
         <xmpTPg:HasVisibleTransparency>True</xmpTPg:HasVisibleTransparency>
         <xmpTPg:HasVisibleOverprint>False</xmpTPg:HasVisibleOverprint>
         <xmpTPg:MaxPageSize rdf:parseType="Resource">
            <stDim:w>100.000000</stDim:w>
            <stDim:h>100.000000</stDim:h>
            <stDim:unit>Pixels</stDim:unit>
         </xmpTPg:MaxPageSize>
         <xmpTPg:PlateNames>
            <rdf:Seq>
               <rdf:li>Cyan</rdf:li>
               <rdf:li>Magenta</rdf:li>
               <rdf:li>Yellow</rdf:li>
               <rdf:li>Black</rdf:li>
            </rdf:Seq>
         </xmpTPg:PlateNames>
         <xmpTPg:SwatchGroups>
            <rdf:Seq>
               <rdf:li rdf:parseType="Resource">
                  <xmpG:groupName>默认色板组</xmpG:groupName>
                  <xmpG:groupType>0</xmpG:groupType>
               </rdf:li>
            </rdf:Seq>
         </xmpTPg:SwatchGroups>
         <pdf:Producer>Adobe PDF library 10.01</pdf:Producer>
      </rdf:Description>
   </rdf:RDF>
</x:xmpmeta>
                                                                                                    
                                                                                                    
                                                                                                    
                                                                                                    
                                                                                                    
                                                                                                    
                                                                                                    
                                                                                                    
                                                                                                    
                                                                                                    
                                                                                                    
                                                                                                    
                                                                                                    
                                                                                                    
                                                                                                    
                                                                                                    
                                                                                                    
                                                                                                    
                                                                                                    
                                                                                                    
                           
<?xpacket end="w"?>
	</metadata>
<path opacity="0.01" enable-background="new    " d="M82,5H18C9.729,5,3,11.729,3,20v64c0,8.271,6.729,15,15,15h64
	c8.271,0,15-6.729,15-15V20C97,11.729,90.271,5,82,5z M92,82c0,5.514-4.486,10-10,10H18c-5.514,0-10-4.486-10-10V18
	c0-5.514,4.486-10,10-10h64c5.514,0,10,4.486,10,10V82z"/>
<path opacity="0.02" enable-background="new    " d="M82,6H18C10.28,6,4,12.28,4,20v64c0,7.72,6.28,14,14,14h64
	c7.72,0,14-6.28,14-14V20C96,12.28,89.72,6,82,6z M92,82c0,5.514-4.486,10-10,10H18c-5.514,0-10-4.486-10-10V18
	c0-5.514,4.486-10,10-10h64c5.514,0,10,4.486,10,10V82z"/>
<path opacity="0.03" enable-background="new    " d="M82,7H18C10.832,7,5,12.832,5,20v64c0,7.168,5.832,13,13,13h64
	c7.168,0,13-5.832,13-13V20C95,12.832,89.168,7,82,7z M92,82c0,5.514-4.486,10-10,10H18c-5.514,0-10-4.486-10-10V18
	c0-5.514,4.486-10,10-10h64c5.514,0,10,4.486,10,10V82z"/>
<path opacity="0.04" enable-background="new    " d="M83.021,8.052C88.057,8.565,92,12.831,92,18v64c0,5.514-4.486,10-10,10H18
	c-5.514,0-10-4.486-10-10V18c0-5.169,3.942-9.435,8.979-9.948C10.839,8.573,6,13.728,6,20v64c0,6.617,5.383,12,12,12h64
	c6.617,0,12-5.383,12-12V20C94,13.728,89.161,8.573,83.021,8.052z"/>
<path opacity="0.05" enable-background="new    " d="M91.034,13.741C91.647,15.035,92,16.476,92,18v64c0,5.514-4.486,10-10,10H18
	c-5.514,0-10-4.486-10-10V18c0-1.524,0.353-2.964,0.965-4.259C7.73,15.52,7,17.675,7,20v64c0,6.065,4.935,11,11,11h64
	c6.065,0,11-4.935,11-11V20C93,17.675,92.27,15.52,91.034,13.741z"/>
<path opacity="0.06" enable-background="new    " d="M82,92H18c-5.514,0-10-4.486-10-10v2c0,5.514,4.486,10,10,10h64
	c5.514,0,10-4.486,10-10v-2C92,87.514,87.514,92,82,92z"/>
<path opacity="0.08" enable-background="new    " d="M82,92H18c-5.514,0-10-4.486-10-10v1c0,5.514,4.486,10,10,10h64
	c5.514,0,10-4.486,10-10v-1C92,87.514,87.514,92,82,92z"/>
<rect fill="none" width="100" height="100"/>
<path fill="#FFFFFF" d="M82,8H18C12.486,8,8,12.486,8,18v64c0,5.514,4.486,10,10,10h64c5.514,0,10-4.486,10-10V18
	C92,12.486,87.514,8,82,8z M90,82c0,4.418-3.582,8-8,8H18c-4.418,0-8-3.582-8-8V18c0-4.418,3.582-8,8-8h64c4.418,0,8,3.582,8,8V82z"
	/>
<path opacity="0.01" enable-background="new    " d="M82,10H18c-4.418,0-8,3.582-8,8v64c0,4.418,3.582,8,8,8h64c4.418,0,8-3.582,8-8
	V18C90,13.582,86.418,10,82,10z M88,82c0,3.309-2.691,6-6,6H18c-3.309,0-6-2.691-6-6V18c0-3.309,2.691-6,6-6h64c3.309,0,6,2.691,6,6
	V82z"/>
<path opacity="0.02" d="M82,10H18c-4.418,0-8,3.582-8,8v1c0-4.418,3.582-8,8-8h64c4.418,0,8,3.582,8,8v-1C90,13.582,86.418,10,82,10
	z"/>
<path opacity="0.01" d="M82,10H18c-4.418,0-8,3.582-8,8v2c0-4.418,3.582-8,8-8h64c4.418,0,8,3.582,8,8v-2C90,13.582,86.418,10,82,10
	z"/>
</svg>
