<?xml version="1.0" encoding="utf-8"?>
<!-- Generator: Adobe Illustrator 17.1.0, SVG Export Plug-In . SVG Version: 6.00 Build 0)  -->
<!DOCTYPE svg PUBLIC "-//W3C//DTD SVG 1.1//EN" "http://www.w3.org/Graphics/SVG/1.1/DTD/svg11.dtd" [
	<!ENTITY ns_extend "http://ns.adobe.com/Extensibility/1.0/">
	<!ENTITY ns_ai "http://ns.adobe.com/AdobeIllustrator/10.0/">
	<!ENTITY ns_graphs "http://ns.adobe.com/Graphs/1.0/">
	<!ENTITY ns_vars "http://ns.adobe.com/Variables/1.0/">
	<!ENTITY ns_imrep "http://ns.adobe.com/ImageReplacement/1.0/">
	<!ENTITY ns_sfw "http://ns.adobe.com/SaveForWeb/1.0/">
	<!ENTITY ns_custom "http://ns.adobe.com/GenericCustomNamespace/1.0/">
	<!ENTITY ns_adobe_xpath "http://ns.adobe.com/XPath/1.0/">
]>
<svg version="1.1" id="图层_1" xmlns:x="&ns_extend;" xmlns:i="&ns_ai;" xmlns:graph="&ns_graphs;"
	 xmlns="http://www.w3.org/2000/svg" xmlns:xlink="http://www.w3.org/1999/xlink" x="0px" y="0px" width="350px" height="250px"
	 viewBox="0 0 350 250" enable-background="new 0 0 350 250" xml:space="preserve">
<metadata>
	<sfw  xmlns="&ns_sfw;">
		<slices></slices>
		<sliceSourceBounds  width="186.642" height="196.539" y="-25" x="187.358" bottomLeftOrigin="true"></sliceSourceBounds>
		<optimizationSettings>
			<targetSettings  fileFormat="PNG24Format" targetSettingsID="0">
				<PNG24Format  transparency="true" matteColor="#FFFFFF" interlaced="false" filtered="false" noMatteColor="false">
					</PNG24Format>
			</targetSettings>
		</optimizationSettings>
	</sfw>
</metadata>
<g>
	<path fill="#E9D4C7" enable-background="new    " d="M349.897,107.725c-10.832-14.269-27.913-24.06-46.765-24.06
		c-32.392,0-58.639,25.101-58.639,59.993c0,0.833,0.104,1.562,0.104,2.396c0,0,0,0.104-0.104,0.104v-1.042
		c-6.041,3.229-4.687,9.686-4.687,9.686s-2.812,1.146-2.5,8.332c0.104,1.666,0.521,3.229,1.146,4.895
		c-8.957,9.895-24.164,30.934-15.727,53.535c1.875,4.583,9.27-0.729,15.206-11.561c2.396,8.02,6.562,15.415,12.186,21.768
		c-3.854,1.146-7.291,3.125-9.79,6.145c-1.771,2.187-2.604,4.166-1.354,4.999c-1.771,1.458-2.291,4.27-1.771,6.978h112.694V107.725
		H349.897z"/>
	<path fill="#EBE2CB" enable-background="new    " d="M175.856,111.787c0,3.437-2.812,6.249-6.249,6.249s-6.249-2.812-6.249-6.249
		s2.812-6.249,6.249-6.249S175.856,108.35,175.856,111.787z M343.335,73.563c-7.812,0-14.061,6.249-14.061,14.061
		c0,0.937,0.104,1.875,0.312,2.708c5.624,2.916,10.624,6.77,15.102,11.249c1.875-0.208,3.645-0.729,5.312-1.562V75.125
		C347.918,74.083,345.731,73.563,343.335,73.563z M348.647,106.059c0.417,0.521,0.833,1.042,1.25,1.666v-2.083
		C349.48,105.85,349.064,105.954,348.647,106.059z M237.307,83.666c-6.041,0-10.936,4.895-10.936,10.936s4.895,10.936,10.936,10.936
		s10.936-4.895,10.936-10.936S243.348,83.666,237.307,83.666z M204.811,105.538c-8.541,0-15.415,6.874-15.415,15.415
		s6.874,15.415,15.415,15.415s15.415-6.874,15.415-15.415C220.226,112.412,213.351,105.538,204.811,105.538z M198.457,188.34
		c-3.229,0-5.728,2.604-5.728,5.728c0,3.125,2.604,5.728,5.728,5.728c3.125,0,5.728-2.604,5.728-5.728
		C204.186,190.944,201.686,188.34,198.457,188.34z M208.977,154.49c-4.479,0-8.124,3.645-8.124,8.124
		c0,4.479,3.645,8.124,8.124,8.124c4.479,0,8.124-3.645,8.124-8.124C217.101,158.135,213.456,154.49,208.977,154.49z
		 M183.98,143.554c-3.02,0-5.52,2.5-5.52,5.52s2.5,5.52,5.52,5.52s5.52-2.5,5.52-5.52C189.396,146.054,187,143.554,183.98,143.554z
		 M224.079,53.461c-3.333,0-6.041,2.708-6.041,6.041s2.708,6.041,6.041,6.041s6.041-2.708,6.041-6.041
		C230.016,56.169,227.412,53.461,224.079,53.461z M174.814,63.356c-4.062,0-7.291,3.229-7.291,7.291s3.229,7.291,7.291,7.291
		s7.291-3.229,7.291-7.291C182.105,66.688,178.876,63.356,174.814,63.356z M224.496,143.554c-2.291,0-4.166,1.875-4.166,4.166
		s1.875,4.166,4.166,4.166s4.166-1.875,4.166-4.166S226.787,143.554,224.496,143.554z M191.792,81.062
		c-4.999,0-9.166,4.062-9.166,9.166c0,4.999,4.062,9.166,9.166,9.166c4.999,0,9.166-4.062,9.166-9.166
		C200.853,85.124,196.791,81.062,191.792,81.062z M349.897,192.61c-5.833-2.708-12.186-4.27-19.06-4.27
		c-24.893,0-45.099,20.206-45.099,45.099c0,5.833,1.146,11.457,3.125,16.56h61.034V192.61z M277.614,229.064
		c-13.019,4.687-25.309,7.187-35.829,7.395c-14.269,0.312-25.309-3.437-30.621-11.874c-9.478-14.998,1.771-40.203,26.143-63.95
		c0.312-4.895,2.396-5.728,2.396-5.728s-1.354-6.458,4.687-9.686v1.042c0,0,0-0.104,0.104-0.104c0-0.833-0.104-1.562-0.104-2.396
		c0-0.104,0-0.208,0-0.312c-17.914,15.102-31.559,31.559-39.787,47.702c0.312,0.937,0.521,1.875,0.521,2.916
		c0,3.645-2.187,6.666-5.208,8.124c-5.208,14.894-5.416,29.267,0.312,41.766c0.937,2.083,2.083,4.166,3.333,6.041h76.553
		c-1.666-5.208-2.604-10.728-2.604-16.56C277.406,231.98,277.51,230.522,277.614,229.064z"/>
</g>
</svg>
