<?xml version="1.0" encoding="utf-8"?>
<!-- Generator: Adobe Illustrator 17.1.0, SVG Export Plug-In . SVG Version: 6.00 Build 0)  -->
<!DOCTYPE svg PUBLIC "-//W3C//DTD SVG 1.1//EN" "http://www.w3.org/Graphics/SVG/1.1/DTD/svg11.dtd" [
	<!ENTITY ns_extend "http://ns.adobe.com/Extensibility/1.0/">
	<!ENTITY ns_ai "http://ns.adobe.com/AdobeIllustrator/10.0/">
	<!ENTITY ns_graphs "http://ns.adobe.com/Graphs/1.0/">
	<!ENTITY ns_vars "http://ns.adobe.com/Variables/1.0/">
	<!ENTITY ns_imrep "http://ns.adobe.com/ImageReplacement/1.0/">
	<!ENTITY ns_sfw "http://ns.adobe.com/SaveForWeb/1.0/">
	<!ENTITY ns_custom "http://ns.adobe.com/GenericCustomNamespace/1.0/">
	<!ENTITY ns_adobe_xpath "http://ns.adobe.com/XPath/1.0/">
]>
<svg version="1.1" id="图层_1" xmlns:x="&ns_extend;" xmlns:i="&ns_ai;" xmlns:graph="&ns_graphs;"
	 xmlns="http://www.w3.org/2000/svg" xmlns:xlink="http://www.w3.org/1999/xlink" x="0px" y="0px" width="20px" height="20px"
	 viewBox="0 0 20 20" enable-background="new 0 0 20 20" xml:space="preserve">
<metadata><?xpacket begin="﻿" id="W5M0MpCehiHzreSzNTczkc9d"?>
<x:xmpmeta xmlns:x="adobe:ns:meta/" x:xmptk="Adobe XMP Core 5.5-c014 79.151739, 2013/04/03-12:12:15        ">
   <rdf:RDF xmlns:rdf="http://www.w3.org/1999/02/22-rdf-syntax-ns#">
      <rdf:Description rdf:about=""
            xmlns:dc="http://purl.org/dc/elements/1.1/"
            xmlns:xmp="http://ns.adobe.com/xap/1.0/"
            xmlns:xmpGImg="http://ns.adobe.com/xap/1.0/g/img/"
            xmlns:xmpMM="http://ns.adobe.com/xap/1.0/mm/"
            xmlns:stRef="http://ns.adobe.com/xap/1.0/sType/ResourceRef#"
            xmlns:stEvt="http://ns.adobe.com/xap/1.0/sType/ResourceEvent#"
            xmlns:illustrator="http://ns.adobe.com/illustrator/1.0/"
            xmlns:xmpTPg="http://ns.adobe.com/xap/1.0/t/pg/"
            xmlns:stDim="http://ns.adobe.com/xap/1.0/sType/Dimensions#"
            xmlns:xmpG="http://ns.adobe.com/xap/1.0/g/"
            xmlns:pdf="http://ns.adobe.com/pdf/1.3/">
         <dc:format>image/svg+xml</dc:format>
         <dc:title>
            <rdf:Alt>
               <rdf:li xml:lang="x-default">Web</rdf:li>
            </rdf:Alt>
         </dc:title>
         <xmp:CreatorTool>Adobe Illustrator CC (Windows)</xmp:CreatorTool>
         <xmp:CreateDate>2014-08-23T03:16:13+08:00</xmp:CreateDate>
         <xmp:ModifyDate>2014-08-23T03:16:13+08:00</xmp:ModifyDate>
         <xmp:MetadataDate>2014-08-23T03:16:13+08:00</xmp:MetadataDate>
         <xmp:Thumbnails>
            <rdf:Alt>
               <rdf:li rdf:parseType="Resource">
                  <xmpGImg:width>256</xmpGImg:width>
                  <xmpGImg:height>256</xmpGImg:height>
                  <xmpGImg:format>JPEG</xmpGImg:format>
                  <xmpGImg:image>/9j/4AAQSkZJRgABAgEASABIAAD/7QAsUGhvdG9zaG9wIDMuMAA4QklNA+0AAAAAABAASAAAAAEA&#xA;AQBIAAAAAQAB/+4ADkFkb2JlAGTAAAAAAf/bAIQABgQEBAUEBgUFBgkGBQYJCwgGBggLDAoKCwoK&#xA;DBAMDAwMDAwQDA4PEA8ODBMTFBQTExwbGxscHx8fHx8fHx8fHwEHBwcNDA0YEBAYGhURFRofHx8f&#xA;Hx8fHx8fHx8fHx8fHx8fHx8fHx8fHx8fHx8fHx8fHx8fHx8fHx8fHx8fHx8f/8AAEQgBAAEAAwER&#xA;AAIRAQMRAf/EAaIAAAAHAQEBAQEAAAAAAAAAAAQFAwIGAQAHCAkKCwEAAgIDAQEBAQEAAAAAAAAA&#xA;AQACAwQFBgcICQoLEAACAQMDAgQCBgcDBAIGAnMBAgMRBAAFIRIxQVEGE2EicYEUMpGhBxWxQiPB&#xA;UtHhMxZi8CRygvElQzRTkqKyY3PCNUQnk6OzNhdUZHTD0uIIJoMJChgZhJRFRqS0VtNVKBry4/PE&#xA;1OT0ZXWFlaW1xdXl9WZ2hpamtsbW5vY3R1dnd4eXp7fH1+f3OEhYaHiImKi4yNjo+Ck5SVlpeYmZ&#xA;qbnJ2en5KjpKWmp6ipqqusra6voRAAICAQIDBQUEBQYECAMDbQEAAhEDBCESMUEFURNhIgZxgZEy&#xA;obHwFMHR4SNCFVJicvEzJDRDghaSUyWiY7LCB3PSNeJEgxdUkwgJChgZJjZFGidkdFU38qOzwygp&#xA;0+PzhJSktMTU5PRldYWVpbXF1eX1RlZmdoaWprbG1ub2R1dnd4eXp7fH1+f3OEhYaHiImKi4yNjo&#xA;+DlJWWl5iZmpucnZ6fkqOkpaanqKmqq6ytrq+v/aAAwDAQACEQMRAD8A9U4q7FXYq7FXYq7FXYq7&#xA;FXYq7FXYq7FXYq7FXYq7FXYq7FXYq7FXYq7FXYq7FXYq7FXYq7FXYq7FXYq7FXYq7FXYq7FXYq7F&#xA;XYq7FXYq7FXYq7FXYq7FXYq7FXYq7FXYq7FXYq7FXYq7FXYq7FXYq7FXYq7FXYq7FXYq7FXYq7FX&#xA;Yq7FXYq7FXYq7FXYq7FXYq7FXYq7FXYq7FXYq7FXYq7FXYq7FXYq7FXYq7FXYq7FXYq7FXYq7FXY&#xA;q7FXYq7FXYq7FXYq7FXYqp3N1bWsLT3MqQQIKvLIwRFHuzUAwGQAspjEk0NywfW/zq8j6YWjhuJN&#xA;SmWo4Wiclr/xkcohHupOYWTtHFHkb9zscXZWafMcPvYRqf8AzkPqrsRpekwQL2a5d5ifeielT7zm&#xA;FPtaX8IDn4+xY/xSJ934LHLv86vzDnJ4X8dsp/Zigi/Aurt+OY0u0cx6/Y5cey8A6X8Slkn5m+fp&#xA;G5NrdyD/AJJVR9ygDKzrMv8AOLaNBgH8IdH+Zvn6NuS63ck/5RVh9zAjEazL/OKnQYD/AAhM7T86&#xA;vzDgI538dyo/Zlgi/EoqN+OWR7RzDr9jVLsvAelfEsj0z/nIfVUYDVNJgnXu1s7wke9H9Wv3jMmH&#xA;a0v4gHEydix/hkR7/wABm+h/nT5H1MrHNcSabM23C7Xitf8AjIhdAP8AWIzNx9o4pczXvdfl7LzQ&#xA;5Di9zOLa5trqFZ7aVJ4HFUljYOjDxDLUHM0SBFh18okGjsVTCh2KuxV2KuxV2KuxV2KuxV2KuxV2&#xA;KuxV2KuxV2KuxV2KuxV2KqN7e2djayXV5MlvbRDlJNIwVVHuTkZSERZ5MoQMjQFl5L5v/Pu3hL2n&#xA;lmATuKqdQuAQlelY49i3sWp8jmq1HagG0Pm7rTdjk75D8A8j1zzLr2u3Hr6tey3b1qqufgWv8iCi&#xA;L9AzU5M05m5G3d4sEMYqIpLMqbXYquEbnopPyGNporvQm/kOCwnhLvQm/lONheErTG46qR8xhtFF&#xA;bih2KpnofmXXtCuPX0m9ltHrVlQ/A1P50NUb6RluPNOBuJpqy4IZBUhb1zyh+fdvMUtPM0Agc0Ua&#xA;hbglK9KyR7lfcrX5DNtp+1Adp/N0mp7HI3xn4F61ZXtnfWsd1ZzJcW0o5RzRsGVh7EZtYyEhY5Ol&#xA;nAxNEUVbJMXYq7FXYq7FXYq7FXYq7FXYq7FXYq7FXYq7FXYq7FWMed/zA0XynaBrpvXv5VJtrCMj&#xA;m3bkx34JX9o/RXMXU6uOIb8+5zNJop5jttHvfPPm3zv5g803fq6lPS3Q1gs46rDH8l7t/lHfOez6&#xA;meU3L5PUabSQwiojfv6sf45juSqx20j9qDxOAyDIRJV0skH2iWOQM2YgFZYkXooH0ZG2YAXUxV1M&#xA;VdTFXUxVa0SN1UH6MbUgKL2SH7JKnJCbAwChJbSJ2qPEZMSDAxIUuOFiyDyl538weVrv1dNnrbua&#xA;z2clWhk+a9m/yhvmRg1M8RuPycbU6SGYVIb9/V9DeSPzA0XzZaFrVvQv4lBubCQjmvbkp25pX9of&#xA;TTOh02rjlG3PueX1einhO+8e9k+ZThuxV2KuxV2KuxV2KuxV2KuxV2KuxV2KuxV2KsG/Mn8y7Tyt&#xA;bmztAJ9bnSsUfVIlOwkk/wCNV7/LMDW60YhQ+p2Og0BzGztAfa+dtQv73Ub2W9vpmuLqducszmpJ&#xA;/wA+gznJzMjZ5vVQgIigKAUkhZzsMgS2CNouK2RNyKnKzJsEKVqZFm4IT0FcbWl4gc+2DiTwrhb+&#xA;JwcSeFv6uviceJPC76uviceJeFo2/gceJHCtMDj3w8SOFYUI6imG0U6mKqMtsj7gUOSEmBhaEeFk&#xA;O4ywFrMaVdPv73Tr2K9sZmt7qBucUyGhB/z6jJwmYmxza5wEhRFgvon8tvzLtPNNuLO7Ag1uBKyx&#xA;9ElUbGSP/jZe3yzo9FrRlFH6nldfoDhNjeB+xnOZ7rnYq7FXYq7FXYq7FXYq7FXYq7FXYq7FWJ/m&#xA;J57tvKmkc04y6pc1WxtzuKjrI/T4V/E7Zh6zVDDH+keTnaHRnPP+iOb5qvb27vruW7u5WnuZ2Lyy&#xA;uaszHOYlIyNnm9dCAiKAoB0UBY7j6MrMm2MUWkYUbfflZLaAqpCzew8ciSkBVWBR13PvkeJmAvpg&#xA;S6mKupirqYq6mKupirqYq6mKrGgU9Nj7YeJBCk8LL7jxyQLAhSeMMN/vyQKCEJLAVOw+jLBJqlF1&#xA;le3djdxXdpK0FzAweKVDRlYZZGRibHNqnASFEWC+lfy78923mvSOb8YtUtqLfW42FT0kTr8Lfgds&#xA;6fR6oZo/0hzeR12jOCf9E8mWZmOC7FXYq7FXYq7FXYq7FXYq7FXYqg9Y1Wz0nTLnUr1+FtaoZJD3&#xA;22AHux2HvkMmQQiZHkGzFiM5CI5l8ueafMl/5j1ufVLw0aU8YYgarHEv2EX5fid85LPnOWZkXs9N&#xA;p44oCIS+KE1H8x/DMclygEZHFT4V3OVktoCISEDc7nIGTMRVKZFkuVGboK42oCotsf2jT5ZHiZCK&#xA;8QRj3+eDiZcIXCNB0A+7G003xGBXcRirRjQ9QPuw2tLTBGfb5Y8SOELGtj+ya/PDxMTFTZGXqKZK&#xA;2JC2mKqbwg7jY5ISYmKHkir8LbHJgsCEHLCan+YfjlgLUQmHlbzJf+XNbg1SzNWiPGaImiyRN9tG&#xA;+f4HfMjBnOKYkHF1OnjlgYl9R6Pqtnq2mW2pWT87a6QSRnvvsQfdTsffOtx5BOIkOReMy4jCRieY&#xA;RmTa3Yq7FXYq7FXYq7FXYq7FXYq8S/PPzc1xfReW7V/3FrSa+I/amYVRD/qKa/M+2aHtXU2fDHIc&#xA;3o+x9LUfEPM8vc8sij/aI+WaUl3oCOghJ7bnr7DKpFtjFFogUUA+ZysltAXqjMaAYLZAK6QKN23P&#xA;4ZEyZCK7moNBuewGCk2EVLpuqQxGaaxuI4QKmR4nVQPmRTLTp8gFkGvc1R1OMmhIX7whldW6fdlV&#xA;N1t0wK6mKupirqYqtLqDTqfAYaUlEy6fqcMPrzWNxHDsfVeJ1Wh6fERTLTgmBZBr3NMdTjJoSF+9&#xA;DBkbb8DlVN1rXgU7rsfwwiTExUGRlNCMlbEhY6BhQj5HCCxIQk8JHbcdPcZZEtUooGWP9oD55aC1&#xA;EPU/yM83Nb30vlu6f9xdVmsSf2ZlFXQf66ivzHvm67K1NHwzyPJ0XbGluPiDmOfue25vnnHYq7FX&#xA;Yq7FXYq7FXYq7FUv8waxBo2i3uqT7x2kTScSacmGyLX/ACmoMrzZBCBkejbgxHJMRHV8qXV1c399&#xA;Pd3Ll57iRpZnPdnNT+JzjZzJJJ5l7jHARAA5BVgiLuAOgyqRpuiLTFECigyguQArRwltzsuRJZCK&#xA;uFAFBsMizU2LOwSMEkmgA3JJ7DJCLGUnrf5e/l6umrHq2rRhtQI5W9u24hB/aP8Al/q+edT2b2b4&#xA;frn9XQd37XkO1e1fEvHjPo6nv/Z97PyQRQ9M3ToXnn5gfl3Heo+qaNEEvFFZ7VBQSgftIB+37d/n&#xA;10faXZgn68Y9XUd70HZfaxgeDIfT0Pd+x5SrMrFH2I236g++cwQ9bGSpTIs3UxVSdiTxTcnbbJAM&#xA;CXq/5efl4LER6vq8db00a1tW/wB1eDuP5/Afs/Pp0/ZnZvBWSY9XQd37fueS7V7V47x4z6ep7/2f&#xA;e9DJBFD0zePPsB8//l5FqMbalpESx36CstugAWUDuAP2/wBfzzS9o9mCY44D1d3f+133Zfapxngy&#xA;H09/d+x5IC8bmOQFWU0IOxBHY5y0o09fGVryoIodxkWShJCV3G65IFgYqLoGFDkgxIS6eIo5B6HL&#xA;4m3HkKUrW6ubC+gu7Zyk9vIssLjsyGo/EZbCZBBHMNOSAkCDyL6r8v6xBrOi2WqQbR3cSycQa8WO&#xA;zrX/ACWqM7LDkE4CQ6vD58RxzMT0TDLGp2KuxV2KuxV2KuxV2KvLPz51swaPY6PG1GvZDNMAf91w&#xA;/ZB+btX/AGOajtfLURHvd12LhuZn3fpeLxJRfc5zpL04TO1iCR1P2m3OUSNlyICgi4oa/E3TsMrJ&#xA;bQERQZBmpSt+yPpyQYks9/KHRrK5vbvUZ0Ek1n6a26tuFZ+RL08Rx2zfdiYIykZnnHk8729qJRjG&#xA;A5Su3rHLOleUdyxV3LFWAfmB+X634k1XSowL0Va4t1/3b4so/n/X8+uk7S7N4/XD6uo7/wBrv+yu&#xA;1PDrHkPp6Hu/Y8pRirFHFCNt+2cuQ9bGTnep4JuTttiApL1T8vvy+WxEer6tHW8NGtrZv91eDuP5&#xA;/Afs/Pp0/ZnZvB68n1dB3fteT7V7V47x4z6ep7/2fe9B5ZvHn3csVdyxV5X+bmi2UFza6jAgjnuu&#xA;YnA2DFOJ5fP4t85vtrBGJExzPN6nsHUSlEwPKNU8+if9k/RmgIekBVaDIskPLDT4l6dxkwWBCEuo&#xA;g8dR9pdxlkTRapiwlkqVX3GXguOXtP5Da2Z9HvtHkarWUgmgBP8Auub7QHsHUn/ZZ0XZGW4mPc8x&#xA;21hqYn3/AKHqWbd0rsVdirsVdirsVdirsVfPH5xaib/z3cQhuUVjFHbr4bL6jf8ADSEZy/amTiyn&#xA;y2et7JxcOEee7E4IyzA9u3zzVSLt4hNoYuRqfsjMclyYhE0yDY7FUMakk+OWNaceWfOE3le++t0M&#xA;lrNRLm3HV1G4K/5S9sztBqpYZ2OR5uv7R0kc2OjtIcnuGk6xYavp8V/YSia2mFVYdQe6sOxHcZ2G&#xA;PLGceKPJ4nLilCRjLmjOWTa3csVXA1xVgPn/AMgrfiTVdKjpej4ri3Uf3viyj+f9fz66TtLs3j9c&#xA;Pq6jv/a7/svtTgrHkPp6Hu/Yt8geQBZenq2rR1vPtW1sw/uvB2H8/gO3z6Ds3s3g9c/q6Du/antX&#xA;tTjvHjPp6nv/AGfe9Arm8efWlsVdyxVB6trFhpFhLf38ohtoRVmPUnsqjuT2GQyZIwjxS5NmLFKc&#xA;hGI3eJeZvOknme6+shTFbx1S3gPVFJqS3+U3fOQ1+rllnvy6Pa9naOOGFDcnmkgqDXMB2KJytsdT&#xA;FUNNFxNR9k5MFrkEpnjKsT27/PMiJcaQZZ+TupGw89wQk8Yr+KS3bw+z6i/8NGBm17LycOUeezqO&#xA;1sXFhJ/m7vofOoeSdirsVdirsVdirsVdir5Y8xXRvfMurXn+/wC7mZfZTIeI+gUzi9TPiySPmXut&#xA;LDhxxHkGrSIl0QfTmHMudAbpqqgAAdBmO5DdMUuI2xQhaZNgl2sRuVjcfZWoPsTTL8JaM4TLyR53&#xA;1Dyvf80rNp8xH1u0rsR05p4OPx6HNlpdVLFL+j1Dq9Zo45o/0uhfQek6vYatYRX9hKJraYVVh1B7&#xA;qw7EdxnS48kZx4o8nlcuKUJcMuaMrk2t3LFVwauKXcsVWlsUOriqD1bV7DSbCW/v5RDbQirMepPZ&#xA;VHcnsMhkyRhHilybMWKU5cMeb5887+d9Q80X/N6w6fCT9UtK7AdOb+Ln8OgzmtVqpZZf0egeq0ej&#xA;jhj/AEupS3R43CyOfstQD3IrmtzF2mAJjTKG9FAbZBm6mKWmUEEHocUJVdxEO6H6MyIFx5jdvy7d&#xA;Gy8y6Tef74u4Wb3USDkPpFczNNPhyRPmHB1UOLHIeRfU+do8K7FXYq7FXYq7FXYq7FXyZBV35t1J&#xA;LN8ya5wky+gwCa2CUYt3IzGmXKxhG5W2uxV2KqEiUavY5IMCpsqspVhVTsQckEFJr6xMDcl3iPQ+&#xA;HscyYTtxMmOvcnXknztf+WL/AJpWbT5iPrdpXYj+dK9HH49DmdpdVLFL+j1Dr9XpI5o/0uhfQGla&#xA;vYarYRX1jKJraYVVh1B7qw7EdxnS48kZx4o8nl8mKUJcMuaL5ZNrcGpirZeuKtcsVQmq6vYaVYS3&#xA;19KIbaEVZj1J7Ko7k9hkMmSMI8UuTZjxSnLhjzfP/nbztf8Ame/5vWHT4SfqlpXYD+d6dXP4dBnN&#xA;arVSyy/o9A9RpNJHDH+l1KS2NiZ25NtEOp8fYZgznTsMeO/cnKqqqFUUUbADMYuWFWJKtXsMiUhW&#xA;yLN2KuxVBX6VYN3AyyBasgSqeqPzXqCGX5g1zJgXFmH1nndvnzsVdirsVdirsVdirj0xV8o2kdQB&#xA;40H3ZwMy+iQCbWwAentlEnIiiMgzdirsVcQCKHpiqg8fE+3Y5MFgQpsqspVhVTsQcKClcukXT3Uc&#xA;NpG0zTMEijQVbkei5l4iZmhzcTNEQFnk9w/LzyfJ5a0t1uZmkvbsq9xGGJijIGyqOhPi3fOn0Wm8&#xA;KO/MvJ67VeNLYbBlfLMxwXcsVdyxV3LFWKfmH5Pk8y6Wi20zR3toWe3jLERSEjdWHQHwbtmHrdN4&#xA;sduYc7Q6rwZbjYvD4tIukupIbuNoWhYpLG4o3IdVzmMpMDR5vWYYiYsck0VVVQqiijYAZiOWFRI+&#xA;R9u5wEpAVwABQdMgzdirsVdiqHuQC9PbJxYSSq6j2p4bffl8S48w+rc7587dirsVdirsVdirsVdi&#xA;r5kurM2up3luw3gmkjPzVyP4ZwWcVIjzfQtObiD3hfB/eD3zHk5MeaJyDN2KuxV2KuIqKHpiqlFb&#xA;Sz3CwW6GWWRgsaKKkk9hlsImRoc2qchEEk7B635M8mwaLCLm5Ak1OQfE3URg/sJ/E51Og0AwjiP1&#xA;/c8l2j2gcx4Y/QPtZI+2bN1a3lih3LFXcsVdyxVtNziljnnLybBrUBubYCPU4h8DdBIB+w/8Dmt1&#xA;+gGYWPr+92nZ3aBwnhl9B+x5JLbTQXDwXCGKWNisiMKEEdjnKziYmjzethISAIOxVQKCg6ZU2uxV&#xA;2KuxV2Koaf8AvD7ZOLCXNbaWhutUs7cDeeeKP/gnA/jmRgFyA7y4+oPDEnuD6azvXzx2KuxV2Kux&#xA;V2KuxV2KvBPPtgbPzfqa0os0onU+PqqHP/DE5xXaUOHPIfH57vc9l5OLTxPlXy2SFDRwffMAuwBR&#xA;dMrbXUxV1MVdTFWkjmuJkt7dDJLIQqIoqST2GWQgZGhza55BEWeT1Xyb5Oh0WEXNyBJqUg+JuojB&#xA;/ZX+JzqtBoRhFn6/ueS7Q7QOY8MdoD7WTM4AzZOrUS5JqcVa5YqlXmTzNp+gac15eNVjUQQA/HI/&#xA;8q/xPbKc+eOONluwaeWWVB3lvzNp+v6ct5ZtRhQTwE/HG/8AK38D3xwZ45I2Fz6eWKVFNeWXNLYY&#xA;g1GKqquGHvgVjXnLydDrUJubYCPUox8LdBIB+y38Dmu1+hGYWPr+92nZ/aBwnhlvA/Y8qeOa3me3&#xA;uEMcsZKujChBHY5ys4GJo83rYZBIWOTdMrbHUxV1MVdTFUI5q5PvlgaiU+8hWBvPN+mLSqwymdj4&#xA;ekpcf8MBmf2bDizxHx+W7r+1MnDp5Hyr57Pe87V4Z2KuxV2KuxV2KuxV2KvK/wA49MK3tjqSj4ZY&#xA;zBIf8pDyWvzDH7s5rt3DUoz79np+wM1xlDuNvOqZoXoUXGeSA/flZbAV1MCXUxVSlanwj6ckAxJZ&#xA;v+VlpatPfXTKGuIgiRk9VV+XIj58c3vY0Ikyl1DoO28kgIx6G3obOFGdA86olyTU4oariqVeY/Mm&#xA;n6Dp7Xl41SaiCAfbkf8AlX+J7ZTnzxxxst+DTyyyoPCfMHmDUNd1F729erHaKIfYjTsqjOdzZpZJ&#xA;WXpcGCOOPDF3l/zBqGhail7ZPRhtLEfsSJ3VhjhzSxysLnwRyR4ZPdvLnmTT9e09byzahFBPAftx&#xA;v/K38D3zosGeOSNh5rPp5YpUU1rlzQ2GINRilVVww9/DArz3807S1WexulULcSh0kI6sqceJPy5Z&#xA;oO2YRBjLqXouxMkiJR6CmERP+yfozREO/BVaZFk6mKrZDxQn7sIQShKZY1vRfyc0wte32pMPhijE&#xA;EZ/ynPJqfIKPvzfdhYblKfds892/mqMYd5t6pnSvMOxV2KuxV2KuxV2KuxVIPPWjHVvLV1Ai8p4R&#xA;69uO/OPeg+a1H05g9o4PFwkDmNx8HP7N1HhZgTyOx+LwemcU9wrW7blT33GRkGUSr0yLJ1MVQx3J&#xA;Pjk2FojT/Mlz5fulvbf4mPwtCfsyL1IP9cytJmljnxRcTWYY5IcMvg9Z0LzDYa7YJe2j1B2liP24&#xA;37qwzq8OaOSNh5LNhljlRTGuWtKV+YvMen6Fp7Xd21SaiCAH45H/AJR/E9spz54442W/BglklQeG&#xA;a/r2oa5qD3t69Sdooh9iNOyqM57NmlklZejw4Y440Fun6dzpNMPg6qp7+59sxMmStg5ePHe5dqGn&#xA;cKzQj4OrKO3uPbHHkvYrkx1uF2ga9qGh6gl7ZPQjaWI/YkTurDMvDmljlYcTNhjkjRe5+XfMen67&#xA;p63do1CKCeAn443/AJT/AAPfOhwZ45I2HnM+CWOVFNK5c0JdrvmGw0Kwa9u3oBtFEPtyP2VRlWbN&#xA;HHGy3YcMskqDybUPMlz5gumvbj4WHwrCPsxr1AH9c5TV5pZJ8UnrdHhjjhwx+KHGxrmK5dommQZu&#xA;piqhcNuFHbc5KIYyKjTJMXvHkXRjpPlq1gdeM8w9e4HfnJvQ/JaD6M7Xs7B4WEA8zufi8P2lqPFz&#xA;EjkNh8E/zOcB2KuxV2KuxV2KuxV2KuxV4b598vHRtflWNaWd1We2PYBj8Sf7FvwpnGdpabwspr6T&#xA;uHtezNV42IX9UdixwVBBHUZr3Y2jEIZQRlZZgtkbYpQtMmwS/V4HZEkUVCV5e1e+XYj0acw6qehe&#xA;YNT0O8+tWEgVmHGSNhVHHgy7dO2ZuHNLGbi4ObDHIKkzOL847oQ0l0xHm7ukpVf+BKsf+GzPHaZr&#xA;eP2uvPZYvaW3uYXruvajrd+15evVjtHGuyIv8qjMDNmlklZdhhwxxxoNafp3Ok0w+Dqqnv7n2zEy&#xA;ZK2Dl48d7lNqZjuS6mKpTqGncKzQj4OrKO3uPbMjHkvYuNkx1uHaJrupaLei7sJOElOLo26Op7Mv&#xA;fMvFmljNxcXNhjkFSZpF+cV6LcrLpsbXHaRZGVP+AKsf+GzPHaZreO7rz2WL2lsw3X/MGpa5e/W7&#xA;5wSBxiiWoRF8FBJzAzZpZDZc/DgjjFRVNIgdUeRhQPTj7075hZT0c7COqYUyluRQFBkGbTkKpJxC&#xA;CUGakknqcsYWyPyF5eOs6/Esi1s7Wk9yexCn4U/2TfhXNh2bpvFyi/pG5dd2nqvBxGvqlsHuWdm8&#xA;U7FXYq7FXYq7FXYq7FXYq7FUg86+W117RnhQD67BWW0Y/wAwG6V8HG33Zg9oaTxsdD6hyc/s/V+B&#xA;ks/Sef48nhrxvG7RupV0JVlIoQRsQRnFkEGi9qCCLC6F+Db/AGT1yJDIFFUyDNQlj4tXsckCwKnx&#xA;rkkJRqGmmMmWEVjP2lHb+zMjHkvYuPkx1uEvplrUmOnadzpNMPg6qp7+59spyZK2Ddjx3uU2plDk&#xA;L44ix9u5wEqA6SIqfbscQVIWUwqlOoaaUJlhFUP2kHb5e2X48nQuPkx1uEuplzSmGn6cZCJZhSP9&#xA;lT3/ALMqyZK2Dbjx3uU340zHchUiSrV7DIksgr0yLJCzPzbb7I6ZMBgStSN5HWNFLO5CqoFSSdgA&#xA;MkASaDEkAWXuXkry2ug6MkLgfXZ6S3bD+YjZK+CDb787Ts/SeDjo/UebxXaGr8fJY+kcvx5p/mc4&#xA;DsVdirsVdirsVdirsVdirsVdirzb8y/J5q+u2Eex3v4lH/JUD/iX3+Oc72voP8rH/O/X+t6LsjX/&#xA;AOSl/m/q/U84pnPPQqsMvH4W+z2PhkSGQkiCoYUO4ORZod4yp9uxyYLAraYULDDETyKKW8SBXGyt&#xA;BfTFV0cRY+3c4CUhEBQBQdMgzcVBFD0xVDyRFT7djkwWBW0woWmGMtyKKW8SBXGytBdTFVyRlj7d&#xA;zgJSEQFCig2AyDNDzS8vhX7Pc+OSAYGSlTJMXo/5aeTzVNdv49hvYRMP+SpH/Efv8M6HsjQf5WX+&#xA;b+v9Tz3a+v8A8lH/ADv1frek50TzrsVdirsVdirsVdirsVdirsVdirsVaZVZSrAFSKEHcEHEhQXk&#xA;3nryK+mSPqOnIW05zWSMbmEn/jTw8M5XtLs04zxw+j7v2PVdm9peIOCf1/f+1hdM0zuFSKUpsd1w&#xA;EJEkQOLrtuMgztY1v/KfoOS4kUt9B/bG0U2tv/Mfux4k0qhQBQdMilumKupirRUEUPTFVNrcfsmn&#xA;tkuJFLfQf2xtFLlt/wCY/QMeJNLzwRd9hkU2h5ZS+w2XJgMDJTphQzTyL5FfU5E1HUUK6chrHGdj&#xA;MR/xp4+Obns3s05Dxz+j7/2On7S7S8McEPr+79r1lVVVCqAFAoANgAM6oB5UlvFXYq7FXYq7FXYq&#xA;7FXYq7FXYq7FXYq7FWnRHRkdQyMCGUioIOxBBwEXsUg1uHmfnH8uZIS9/oqF4TVpbIbsnesfiv8A&#xA;k9R+rnO0OySPXj5d36notB2sD6MnPv8A1sAIINCKEdRmhd82rMpqDTBS2rpcA7OKe4yJiyElUEMK&#xA;g1yLK26Yq6mKupirqYq6mKupirRIUVJpitqT3AGyCvuckIsTJQZmY1JrkqY20ASaAVJ6DCrP/J35&#xA;cyTFL/WkKQijRWR2Z+9ZPBf8nqf177s/skn15OXd+t0Ov7WA9GPn3/qemIiIioihUUAKoFAANgAB&#xA;nRgVsHnSb3LeFDsVdirsVdirsVdirsVdirsVdirsVdirsVdirsVYz5m8h6VrJa4j/wBEvzuZkHwu&#xA;f+LF7/Prmt1nZkM249Mu/wDW7LR9pzw7H1R7v1PMNb8r6zo0hF5AfSrRbhPiib/ZdvkaHOZ1OiyY&#xA;T6ht39HpNPrMeYek793VKqZiuTbYqNwaHAtr1mkHevzwcKeJeLg91wcKeJd9YX+U48KeJ31hf5Tj&#xA;wrxLTcHsuPCjiWNNIe9Plh4UcSw1O5NThRbVMK2muieV9Z1mQCzgPpVo1w/wxL/su/yFTmVptFkz&#xA;H0jbv6ONqNZjwj1Hfu6vT/LPkPStGK3En+l343Ezj4UP/Fa9vn1zptH2ZDDufVLv/U83rO055th6&#xA;Y9362TZsnWuxV2KuxV2KuxV2KuxV2KuxV2KuxV2KuxV2KuxV2KuxV2KtOiSIySKHRhRlYVBB7EHA&#xA;QCKKQSNwxTWPy20K+JkteVhMf997xk+8Z6f7EjNVqOx8U94+k/Z8nZ4O1ssNpeofb82Haj+W3mO1&#xA;JaBEvIx0MTUanurcfwrmnzdj5ocvUPJ22LtbDLn6fex2706/s243dtLbt4SoyfrAzX5MU4fUCPe7&#xA;CGWM/pIKHplbO3UxW3UxW3UxW0Raadf3jcbS2luG8IkZ/wBQOWY8U5/SCfcwnljD6iAyLTvy28x3&#xA;RBnRLOM/tStVqeyryP30zYYex80+fpHm6/L2thjy9R8mY6P+W2hWJWS65X8w/wB+bR1/1B1/2ROb&#xA;jT9j4oby9R+z5Opz9rZZ7R9I+35srREjRUjUIiiiqooAB2AGbUAAUHWEk7lvCh2KuxV2KuxV2Kux&#xA;V2KuxV2KuxV2KuxV2KuxV2KuxV2KuxV2KuxV2KuxVplVgQwBB6g7jEhQUBP5e0GfeXT7dz/MYkr9&#xA;4Fcx5aTFLnGPyb46rLHlKXzQj+SfKrmp06MU8C6/qYZSezcB/hDcO0M4/iLk8k+VUNRp0Zr4l2/W&#xA;xxHZuAfwhT2hnP8AEUXB5e0GDeLT7dD/ADCJK/eRXLo6TFHlGPyaZarLLnKXzR6qqgBQAB0A2GZA&#xA;DQS3irsVdirsVdirsVdirsVdirsVdirsVdirsVdirsVdirsVdirsVdirsVdirsVdirsVdirsVdir&#xA;sVdirsVdirsVdirsVdirsVdirsVdirsVdirsVdirsVdirsVdirsVdirsVdirsVdirsVdirsVdirs&#xA;VdirsVdirsVdirsVdirsVdirsVdirsVdirsVdirsVdirsVdirsVdirsVdirsVdirsVdirsVdirsV&#xA;dirsVdirsVdirsVdirsVdirsVdirsVdirsVdirsVdirsVdirsVdirsVdirsVdirsVdirsVdirsVd&#xA;irsVdirsVdirsVdirsVdirsVdirsVdirsVdirsVdirsVdirsVdir/9k=</xmpGImg:image>
               </rdf:li>
            </rdf:Alt>
         </xmp:Thumbnails>
         <xmpMM:RenditionClass>proof:pdf</xmpMM:RenditionClass>
         <xmpMM:OriginalDocumentID>uuid:65E6390686CF11DBA6E2D887CEACB407</xmpMM:OriginalDocumentID>
         <xmpMM:DocumentID>xmp.did:aaeff52a-9f8f-a244-a090-154227b146f1</xmpMM:DocumentID>
         <xmpMM:InstanceID>xmp.iid:aaeff52a-9f8f-a244-a090-154227b146f1</xmpMM:InstanceID>
         <xmpMM:DerivedFrom rdf:parseType="Resource">
            <stRef:instanceID>uuid:d9ab81bc-9707-4a3a-9896-69bb3f07e909</stRef:instanceID>
            <stRef:documentID>xmp.did:f87044e2-516c-f643-a7b1-467833dbb44b</stRef:documentID>
            <stRef:originalDocumentID>uuid:65E6390686CF11DBA6E2D887CEACB407</stRef:originalDocumentID>
            <stRef:renditionClass>proof:pdf</stRef:renditionClass>
         </xmpMM:DerivedFrom>
         <xmpMM:History>
            <rdf:Seq>
               <rdf:li rdf:parseType="Resource">
                  <stEvt:action>saved</stEvt:action>
                  <stEvt:instanceID>xmp.iid:aaeff52a-9f8f-a244-a090-154227b146f1</stEvt:instanceID>
                  <stEvt:when>2014-08-23T03:16:13+08:00</stEvt:when>
                  <stEvt:softwareAgent>Adobe Illustrator CC (Windows)</stEvt:softwareAgent>
                  <stEvt:changed>/</stEvt:changed>
               </rdf:li>
            </rdf:Seq>
         </xmpMM:History>
         <illustrator:StartupProfile>Web</illustrator:StartupProfile>
         <xmpTPg:NPages>1</xmpTPg:NPages>
         <xmpTPg:HasVisibleTransparency>True</xmpTPg:HasVisibleTransparency>
         <xmpTPg:HasVisibleOverprint>False</xmpTPg:HasVisibleOverprint>
         <xmpTPg:MaxPageSize rdf:parseType="Resource">
            <stDim:w>20.000000</stDim:w>
            <stDim:h>20.000000</stDim:h>
            <stDim:unit>Pixels</stDim:unit>
         </xmpTPg:MaxPageSize>
         <xmpTPg:PlateNames>
            <rdf:Seq>
               <rdf:li>Cyan</rdf:li>
               <rdf:li>Magenta</rdf:li>
               <rdf:li>Yellow</rdf:li>
               <rdf:li>Black</rdf:li>
            </rdf:Seq>
         </xmpTPg:PlateNames>
         <xmpTPg:SwatchGroups>
            <rdf:Seq>
               <rdf:li rdf:parseType="Resource">
                  <xmpG:groupName>默认色板组</xmpG:groupName>
                  <xmpG:groupType>0</xmpG:groupType>
               </rdf:li>
            </rdf:Seq>
         </xmpTPg:SwatchGroups>
         <pdf:Producer>Adobe PDF library 10.01</pdf:Producer>
      </rdf:Description>
   </rdf:RDF>
</x:xmpmeta>
                                                                                                    
                                                                                                    
                                                                                                    
                                                                                                    
                                                                                                    
                                                                                                    
                                                                                                    
                                                                                                    
                                                                                                    
                                                                                                    
                                                                                                    
                                                                                                    
                                                                                                    
                                                                                                    
                                                                                                    
                                                                                                    
                                                                                                    
                                                                                                    
                                                                                                    
                                                                                                    
                           
<?xpacket end="w"?>
	</metadata>
<g>
	<g>
		<path opacity="0.2" fill="#FFFFFF" enable-background="new    " d="M10,19c-4.7,0-8.5-3.8-8.5-8.5S5.3,2,10,2s8.5,3.8,8.5,8.5
			S14.7,19,10,19z"/>
		<path opacity="0.8" fill="#FFFFFF" enable-background="new    " d="M17.5,10.5c0,4.1-3.4,7.5-7.5,7.5l0,0c-4.1,0-7.5-3.4-7.5-7.5
			l0,0C2.5,6.4,5.9,3,10,3l0,0C14.1,3,17.5,6.4,17.5,10.5L17.5,10.5z"/>
		
			<linearGradient id="SVGID_1_" gradientUnits="userSpaceOnUse" x1="10" y1="-65" x2="10" y2="-80" gradientTransform="matrix(1 0 0 1 0 82)">
			<stop  offset="0" style="stop-color:#F59439"/>
			<stop  offset="0.0965" style="stop-color:#F58C33"/>
			<stop  offset="0.3841" style="stop-color:#F47A26"/>
			<stop  offset="0.5914" style="stop-color:#F47421"/>
			<stop  offset="0.7976" style="stop-color:#ED6D20"/>
			<stop  offset="1" style="stop-color:#E0611E"/>
		</linearGradient>
		<path fill="url(#SVGID_1_)" d="M17.5,9.5c0,4.1-3.4,7.5-7.5,7.5l0,0c-4.1,0-7.5-3.4-7.5-7.5l0,0C2.5,5.4,5.9,2,10,2l0,0
			C14.1,2,17.5,5.4,17.5,9.5L17.5,9.5z"/>
		<path opacity="0.08" fill="#261100" enable-background="new    " d="M10,2C5.9,2,2.5,5.4,2.5,9.5S5.9,17,10,17s7.5-3.4,7.5-7.5
			S14.1,2,10,2z M10,16c-3.6,0-6.5-2.9-6.5-6.5S6.4,3,10,3s6.5,2.9,6.5,6.5S13.6,16,10,16z"/>
		<path opacity="0.08" fill="#261100" enable-background="new    " d="M10,5c3.6,0,6.7,2.6,7.3,6c0.1-0.5,0.2-1,0.2-1.5
			C17.5,5.4,14.1,2,10,2S2.5,5.4,2.5,9.5c0,0.5,0.1,1,0.2,1.5C3.3,7.6,6.4,5,10,5z"/>
		<path opacity="0.08" fill="#261100" enable-background="new    " d="M10,4c3.8,0,6.9,2.8,7.4,6.5c0-0.3,0.1-0.7,0.1-1
			C17.5,5.4,14.1,2,10,2S2.5,5.4,2.5,9.5c0,0.3,0,0.7,0.1,1C3.1,6.8,6.2,4,10,4z"/>
		<path opacity="0.08" fill="#261100" enable-background="new    " d="M10,3c4,0,7.2,3.1,7.5,7c0-0.2,0-0.3,0-0.5
			C17.5,5.4,14.1,2,10,2S2.5,5.4,2.5,9.5c0,0.2,0,0.3,0,0.5C2.8,6.1,6,3,10,3z"/>
	</g>
	<path opacity="0.05" enable-background="new    " d="M12.2,14.8c-0.4,0-0.8-0.2-1.1-0.4L10,13.3l-1.1,1.1c-0.3,0.3-0.7,0.4-1.1,0.4
		S7,14.6,6.7,14.4L6,13.7c-0.3-0.3-0.4-0.7-0.4-1.1s0.2-0.8,0.4-1.1l1.1-1.1L6,9.3C5.7,9,5.6,8.6,5.6,8.2S5.8,7.4,6,7.1l0.7-0.7
		C7,6.1,7.4,6,7.8,6c0.4,0,0.8,0.2,1.1,0.4L10,7.5l1.1-1.1C11.4,6.1,11.8,6,12.2,6s0.8,0.2,1.1,0.4L14,7.1c0.3,0.3,0.4,0.7,0.4,1.1
		c0,0.4-0.2,0.8-0.4,1.1l-1.1,1.1l1.1,1.1c0.3,0.3,0.4,0.7,0.4,1.1s-0.2,0.8-0.4,1.1l-0.7,0.7C12.9,14.7,12.6,14.8,12.2,14.8z"/>
	<path opacity="0.2" enable-background="new    " d="M12.2,13.8c-0.1,0-0.3-0.1-0.4-0.1L10,11.9l-1.8,1.8c-0.1,0.1-0.2,0.1-0.4,0.1
		l0,0c-0.1,0-0.3-0.1-0.4-0.1L6.7,13c-0.2-0.2-0.2-0.5,0-0.7l1.8-1.8L6.7,8.7C6.5,8.5,6.5,8.2,6.7,8l0.7-0.7
		c0.1-0.1,0.2-0.1,0.4-0.1s0.3,0.1,0.4,0.1L10,9.1l1.8-1.8c0.1-0.1,0.2-0.1,0.4-0.1l0,0c0.1,0,0.3,0.1,0.4,0.1L13.3,8
		c0.2,0.2,0.2,0.5,0,0.7l-1.8,1.8l1.8,1.8c0.2,0.2,0.2,0.5,0,0.7l-0.7,0.7C12.4,13.8,12.3,13.8,12.2,13.8z"/>
	
		<linearGradient id="SVGID_2_" gradientUnits="userSpaceOnUse" x1="10" y1="-69.1714" x2="10" y2="-75.8286" gradientTransform="matrix(1 0 0 1 0 82)">
		<stop  offset="0" style="stop-color:#FFFFFF;stop-opacity:0.8"/>
		<stop  offset="1" style="stop-color:#FFFFFF"/>
	</linearGradient>
	<path fill="url(#SVGID_2_)" d="M12.2,12.8c-0.1,0-0.3-0.1-0.4-0.1L10,10.9l-1.8,1.8c-0.1,0.1-0.2,0.1-0.4,0.1l0,0
		c-0.1,0-0.3-0.1-0.4-0.1L6.7,12c-0.2-0.2-0.2-0.5,0-0.7l1.8-1.8L6.7,7.7C6.5,7.5,6.5,7.2,6.7,7l0.7-0.7c0.1-0.1,0.2-0.1,0.4-0.1
		s0.3,0.1,0.4,0.1L10,8.1l1.8-1.8c0.1-0.1,0.2-0.1,0.4-0.1l0,0c0.1,0,0.3,0.1,0.4,0.1L13.3,7c0.2,0.2,0.2,0.5,0,0.7l-1.8,1.8
		l1.8,1.8c0.2,0.2,0.2,0.5,0,0.7l-0.7,0.7C12.4,12.8,12.3,12.8,12.2,12.8z"/>
	<g opacity="0.1">
		<path opacity="0.9" fill="#FFFFFF" enable-background="new    " d="M7,12.1l1.6-1.6L8.1,10l-1.3,1.3c-0.2,0.2-0.2,0.5,0,0.7
			L7,12.1z"/>
		<path opacity="0.9" fill="#FFFFFF" enable-background="new    " d="M7,7.9l0.6-0.6C7.7,7.2,7.8,7.2,8,7.2s0.3,0.1,0.4,0.1l1.8,1.8
			L12,7.3c0.1-0.1,0.2-0.1,0.4-0.1s0.3,0.1,0.4,0.1l0.6,0.6l0.1-0.1c0.2-0.2,0.2-0.5,0-0.7l-0.7-0.7c-0.1-0.1-0.2-0.1-0.4-0.1
			S12.1,6.4,12,6.4l-1.8,1.8L8.4,6.4C8.3,6.3,8.2,6.3,8,6.3S7.7,6.4,7.6,6.4L6.9,7.1c-0.2,0.2-0.2,0.5,0,0.7L7,7.9z"/>
		<path opacity="0.9" fill="#FFFFFF" enable-background="new    " d="M12,10l-0.5,0.5l1.6,1.6l0.1-0.1c0.2-0.2,0.2-0.5,0-0.7L12,10z
			"/>
	</g>
</g>
<rect fill="none" width="20" height="20"/>
</svg>
