<?xml version="1.0" encoding="utf-8"?>
<!-- Generator: Adobe Illustrator 17.1.0, SVG Export Plug-In . SVG Version: 6.00 Build 0)  -->
<!DOCTYPE svg PUBLIC "-//W3C//DTD SVG 1.1//EN" "http://www.w3.org/Graphics/SVG/1.1/DTD/svg11.dtd" [
	<!ENTITY ns_extend "http://ns.adobe.com/Extensibility/1.0/">
	<!ENTITY ns_ai "http://ns.adobe.com/AdobeIllustrator/10.0/">
	<!ENTITY ns_graphs "http://ns.adobe.com/Graphs/1.0/">
	<!ENTITY ns_vars "http://ns.adobe.com/Variables/1.0/">
	<!ENTITY ns_imrep "http://ns.adobe.com/ImageReplacement/1.0/">
	<!ENTITY ns_sfw "http://ns.adobe.com/SaveForWeb/1.0/">
	<!ENTITY ns_custom "http://ns.adobe.com/GenericCustomNamespace/1.0/">
	<!ENTITY ns_adobe_xpath "http://ns.adobe.com/XPath/1.0/">
]>
<svg version="1.1" id="图层_1" xmlns:x="&ns_extend;" xmlns:i="&ns_ai;" xmlns:graph="&ns_graphs;"
	 xmlns="http://www.w3.org/2000/svg" xmlns:xlink="http://www.w3.org/1999/xlink" x="0px" y="0px" width="30px" height="30px"
	 viewBox="0 0 30 30" enable-background="new 0 0 30 30" xml:space="preserve">
<metadata><?xpacket begin="﻿" id="W5M0MpCehiHzreSzNTczkc9d"?>
<x:xmpmeta xmlns:x="adobe:ns:meta/" x:xmptk="Adobe XMP Core 5.5-c014 79.151739, 2013/04/03-12:12:15        ">
   <rdf:RDF xmlns:rdf="http://www.w3.org/1999/02/22-rdf-syntax-ns#">
      <rdf:Description rdf:about=""
            xmlns:xmp="http://ns.adobe.com/xap/1.0/"
            xmlns:xmpGImg="http://ns.adobe.com/xap/1.0/g/img/"
            xmlns:xmpTPg="http://ns.adobe.com/xap/1.0/t/pg/"
            xmlns:stDim="http://ns.adobe.com/xap/1.0/sType/Dimensions#"
            xmlns:xmpG="http://ns.adobe.com/xap/1.0/g/"
            xmlns:dc="http://purl.org/dc/elements/1.1/">
         <xmp:CreatorTool>Adobe Illustrator CC (Windows)</xmp:CreatorTool>
         <xmp:CreateDate>2014-09-08T18:00:36+08:00</xmp:CreateDate>
         <xmp:Thumbnails>
            <rdf:Alt>
               <rdf:li rdf:parseType="Resource">
                  <xmpGImg:width>256</xmpGImg:width>
                  <xmpGImg:height>256</xmpGImg:height>
                  <xmpGImg:format>JPEG</xmpGImg:format>
                  <xmpGImg:image>/9j/4AAQSkZJRgABAgEASABIAAD/7QAsUGhvdG9zaG9wIDMuMAA4QklNA+0AAAAAABAASAAAAAEA&#xA;AQBIAAAAAQAB/+4ADkFkb2JlAGTAAAAAAf/bAIQABgQEBAUEBgUFBgkGBQYJCwgGBggLDAoKCwoK&#xA;DBAMDAwMDAwQDA4PEA8ODBMTFBQTExwbGxscHx8fHx8fHx8fHwEHBwcNDA0YEBAYGhURFRofHx8f&#xA;Hx8fHx8fHx8fHx8fHx8fHx8fHx8fHx8fHx8fHx8fHx8fHx8fHx8fHx8fHx8f/8AAEQgBAAEAAwER&#xA;AAIRAQMRAf/EAaIAAAAHAQEBAQEAAAAAAAAAAAQFAwIGAQAHCAkKCwEAAgIDAQEBAQEAAAAAAAAA&#xA;AQACAwQFBgcICQoLEAACAQMDAgQCBgcDBAIGAnMBAgMRBAAFIRIxQVEGE2EicYEUMpGhBxWxQiPB&#xA;UtHhMxZi8CRygvElQzRTkqKyY3PCNUQnk6OzNhdUZHTD0uIIJoMJChgZhJRFRqS0VtNVKBry4/PE&#xA;1OT0ZXWFlaW1xdXl9WZ2hpamtsbW5vY3R1dnd4eXp7fH1+f3OEhYaHiImKi4yNjo+Ck5SVlpeYmZ&#xA;qbnJ2en5KjpKWmp6ipqqusra6voRAAICAQIDBQUEBQYECAMDbQEAAhEDBCESMUEFURNhIgZxgZEy&#xA;obHwFMHR4SNCFVJicvEzJDRDghaSUyWiY7LCB3PSNeJEgxdUkwgJChgZJjZFGidkdFU38qOzwygp&#xA;0+PzhJSktMTU5PRldYWVpbXF1eX1RlZmdoaWprbG1ub2R1dnd4eXp7fH1+f3OEhYaHiImKi4yNjo&#xA;+DlJWWl5iZmpucnZ6fkqOkpaanqKmqq6ytrq+v/aAAwDAQACEQMRAD8A9U4q7FXYq7FXYq7FXYq7&#xA;FXYq7FXYq7FXYq7FXYq7FXYq7FXYq7FXYq7FXYq7FXYq7FXYq7FXYq7FXYq7FXYq7FXYq7FXYq7F&#xA;XYq7FXYq7FXYq7FXYq7FXYq7FXYq7FXYq7FXYq7FXYq7FXYq7FXYq7FXYq7FXYq7FXYq7FXYq7FX&#xA;Yq7FXYq7FXYq7FXYq7FXYq7FXYq7FXYq7FXYq7FXYq7FXYq7FXYq7FXYq7FXYq7FXYq7FXYq7FXY&#xA;q7FXYq7FXYq7FXYq7FXYq7FXYq7FXYq7FXYq7FXYq7FXYq7FXYq7FXYq7FXYq7FXYq7FXYq7FXYq&#xA;7FXYq7FXYq7FXYq7FXYq7FXYq7FXYq7FXYq7FXYq7FXYq7FXYq7FXYq7FXYq7FXYq7FXYq7FXYq7&#xA;FXYq7FXYq7FXYq7FXYq7FXYq7FXYq7FXYq7FXYq7FXYq7FXYq7FXYq7FXYq7FXYq7FXYq7FXYq7F&#xA;XYq7FXYq7FXYq7FXYq7FXYq7FXYq7FXYq7FXYq7FXYq7FXYq7FXYq7FXYq7FXYq7FXYq7FXYq7FX&#xA;Yq7FXYq7FXYq7FXYq7FXYq7FXYq7FXYq7FXYq7FXYq7FXYq7FXYq7FXYq7FXYq7FXYq7FXYq7FXY&#xA;q7FXYq7FXYq7FXYq7FXYq7FXYq7FXYq7FXYq7FXYqoXl9a2cfOdwv8q9WPyGKsfn813Jk/cRIsY6&#xA;c6lj9xGKpzpWrQ38RoOEyf3kf8R7YqjsVdirsVWyyxxRtJI3FEFWY9gMVYhqGu3txOTFI8MIPwKh&#xA;KmniSMVRFh5nuYqJdD1o/wCcbOP4HFWRWl9a3cfOCQN4r0YfMYqr4q7FXYq7FXYq7FXYq7FXYq7F&#xA;XYq7FXYq7FXYq7FXYq7FXYq7FXYql+t6k9jahoxWWQ8UJ6DapOKsPmnmnkMkzl3bqxxVZiq+Cea3&#xA;lWWFiki9CMVT2DzYwUCeCrd2Q0/A/wBcVVT5th7W7H5sB/DFVreblp8Nsa+7/wBmKpXqOs3d8OD0&#xA;SEGvpr0PzPfFUBirsVVLa4mt51lhJV1O1O/tirP8VdirsVdirsVdirsVdirsVdirsVdirsVdirsV&#xA;dirsVdirsVdirsVS7X7P6xp7kD44fjX6Ov4Yqw+mKupirqYq6mKupirqYq6mKupirqYqjNHhWXU7&#xA;dG6cuX/Agt/DFWa4q7FXYq7FXYq7FXYq7FXYq7FXYq7FXYq7FXYq7FXYq7FXYq7FXYqp3EiRwSO/&#xA;2FUlvkBirA8VdiqpDBNNII4kLuegAriqcW3le4cBriQRj+VfiP8ATFUcnlnT1+00j/MgfqGKtSeW&#xA;NPb7LSJ8iCPxGKoC68sXUYLQOJh/Kfhb+mKpRLFJE5SRSjjqpFDiqzFURp9x9WvYZj0Rvi+R2P4Y&#xA;qzgEEAg1B3BxV2KuxV2KuxV2KuxV2KuxV2KuxV2KuxV2KuxV2KuxV2KuxV2KuxVI/Ml/xQWaH4no&#xA;0vsOw+nFWO0xVF6dpst7NxX4Y1/vJOwH9cVZZZ2VvaRenCtP5m7n5nFVfFXYq7FXYqhr3T7a8j4T&#xA;LuPsuPtD5YqxO/0+aym9OTcHdHHQjFUNTFWTeXdQ9aD6rIf3kQ+CvdP7MVTjFXYq7FXYq7FXYq7F&#xA;XYq7FXYq7FXYq7FXYq7FXYq7FXYq7FVO5uIreFppDRVFfmfAYqwu4need5n+05qfb2+jFWoYXmlS&#xA;KMVdzQfTirM7K0itbdYYxsPtN4nucVVsVdirsVdirsVdiqG1CyjvLZom+11jbwbFWHSRtG7I4oyk&#xA;hh7jFV1tPJbzpNGaOhqPf2xVl9jqFteRho2o/wC1GftDFUTirsVdirsVdirsVdirsVdirsVdirsV&#xA;dirsVdirsVWyyxxRtJIwVFFWY4qlE/mWBaiGJn8GY8R/HFUnvdQubxgZT8I+yi7KMVQ1MVTny1bB&#xA;p5JyP7scV+bdfwxVkOKuxV2KuxV2KuxV2KuxVjXmK2Ed4soG0wqf9Zdj/DFUqpirhsajY4qrw397&#xA;CQY5nFOxJI+47YqyuwuTc2cU5FGcfEB4g0P6sVRGKuxV2KuxV2KuxV2KuxV2KuxV2KuxV2KuxVLf&#xA;MJI0+g7uoP4nFWM0xV1MVdTFWS+Xk42BP8zk/cAMVTPFXYq7FXYq7FXYq7FXYqlHmRAbaJu4en3g&#xA;/wBMVY9TFXUxV1MVZRoX/HNj+bf8SOKphirsVdirsVdirsVdirsVdirsVdirsVdirsVS/XhXTm9m&#xA;X9eKsYpirqYq6mKsj8uvWyZO6OfuIBxVNMVdirsVdirsVdirsVdiqTeZH/dQR16sWp8hT+OKpDTF&#xA;XUxV1MVZTokTx6egcULEsB7E7YqjsVdirsVdirsVdirsVdirsVdirsVdirsVdiqjeWwubZ4Sachs&#xA;fAjcYqx6TRdQQmkYceKkfx3xVCSQyxtxkQo3gwI/Xiq2mKppoFx6dy0LHaUbf6y/2YqyDFXYq7FX&#xA;Yq7FXYq7FXYqxrW7gTXpVT8MQ4fT1OKoCmKo+y0a5uVEjERRnoTuSPYYqm1tollCQzAysO79PuxV&#xA;H4q7FXYq7FXYq7FXYq7FXYq7FXYq7FXYq7FXYq7FXYqpz28M8ZSVQynx/hirF721a2uGiPQbofFT&#xA;0xVRRmR1dTRlIIPuMVZVY3iXUAkGzdHXwOKojFXYq7FXYq7FXYqhNSvltYCQf3rbRj38foxVi5qT&#xA;UmpPU4qi9LtPrN2qsKxr8T/IdsVZRirsVdirsVdirsVdirsVdirsVdirsVdirsVdirsVdirsVdir&#xA;sVQOrWIuYOSj97HuvuO4xVjlMVV7S6ltZRJH8mXsRirIrO+gukqho4+0h6jFURirsVdirsVQt7qM&#xA;FqtCeUvaMdfp8MVY7cTy3EplkNWP3AeAxVSpirI9Is/q9sGP95LRm9h2GKo7FXYq7FXYq7FXYq7F&#xA;XYq7FXYq7FXYq7FXYq7FXYq7FXYq7FXYq7FWMajEIr2VVFFrUfSK4qhsVbVmVgykhh0I2OKphBrV&#xA;3GAHAlHvsfvGKotdfhp8UTA+xB/pirT6/EB8ELE+5A/riqEuNZvJRRKRL/k9fvxVAEkkk7k9TirW&#xA;Kt4qy5CrIrL9kgEfLFW8VdirsVdirsVdirsVdirsVdirsVdirsVdirsVdirsVdirsVdiriQBU9MV&#xA;YvdS+vcSS9mO3y7YqpUxV1MVdTFXUxV1MVdTFXUxV1MVdTFU/wBHnMlrwb7UR4/R2xVHYq7FXYq7&#xA;FXYq7FXYq7FXYq7FXYq7FXYq7FXYq7FXYq7FXYq7FVsqc4nStOSla+FRTFWNXFtLbyFJBTwPYj2x&#xA;VSxV2KphZ6TJMokkPpoeg/aIxVGjRLTuzn6R/TFVw0eyH7LH6TiqyXRbVh8BZG7b1H44qlNzbS28&#xA;nCQfIjoRiqjiqrBbyzuEjWp7nsPnirILKzS1i4Ddju7eJxVXxV2KuxV2KuxV2KuxV2KuxV2KuxV2&#xA;KuxV2KuxV2KuxV2KuxV2KuxVZLDFMnCRQy++KpZcaKwNYGqP5W6/fiq2y0mUyhrheKLvx2NT9GKp&#xA;xirsVdirsVUbu0juY+DbEbq3cHFUDDogDVmkqvYL3+k4qmMUMUScI1Cr4DFV+KuxV2KuxV2KuxV2&#xA;KuxV2KuxV2KuxV2KuxV2KuxV2KuxV2KuxV2KuxV2KuxV2KuxV2KuxV2KuxV2KuxV2KuxV2KuxV2K&#xA;uxV2KuxV2KuxV2KuxV2KuxV2KuxV2KuxV2KuxV2KuxV2KuxV2KuxV2KuxV2KuxV2KuxV2KuxV2Ku&#xA;xV2KuxV2KuxV2KuxV2KuxV2KuxV2KuxV2KuxV2KuxV2KuxV2KuxV2KuxV2KuxV2KuxV2KuxV2Kux&#xA;V2KuxV2KuxV2KuxV2KuxV2KuxV2KuxV2KuxV2KuxV2KuxV2KuxV2KuxV2KuxV2KuxV2KuxV2KuxV&#xA;2KuxV2KuxV2KuxV2KuxV2KuxV2KuxV2KuxV2KuxV2KuxV2KuxV2KuxV2KuxV2KuxV2KuxV2KuxV2&#xA;KuxV2KuxV2KuxV2KuxV2KuxV2KuxV2KuxV2KuxV2KuxV2KuxV2KuxV2KuxV2KuxV2KuxV2KuxV2K&#xA;uxV2KuxV2KuxV2KuxV2KuxV2KuxV2KuxV2KuxV2KuxV2KuxV2KuxV2KuxV2KuxV2KuxV2KuxV2Ku&#xA;xV2KuxV2KuxV2KuxV2KuxV2KuxV2KuxV2KuxV2KuxV2KuxV2KuxV2KuxV2KuxV2KuxV2KuxV2Kux&#xA;V2KuxV2KuxV2KuxV2KuxV2KuxV2KuxV2KuxV2KuxV2Kv/9k=</xmpGImg:image>
               </rdf:li>
            </rdf:Alt>
         </xmp:Thumbnails>
         <xmpTPg:MaxPageSize rdf:parseType="Resource">
            <stDim:w>30.000000</stDim:w>
            <stDim:h>30.000000</stDim:h>
            <stDim:unit>Pixels</stDim:unit>
         </xmpTPg:MaxPageSize>
         <xmpTPg:NPages>1</xmpTPg:NPages>
         <xmpTPg:HasVisibleTransparency>True</xmpTPg:HasVisibleTransparency>
         <xmpTPg:HasVisibleOverprint>False</xmpTPg:HasVisibleOverprint>
         <xmpTPg:PlateNames>
            <rdf:Seq>
               <rdf:li>Cyan</rdf:li>
               <rdf:li>Magenta</rdf:li>
               <rdf:li>Yellow</rdf:li>
               <rdf:li>Black</rdf:li>
            </rdf:Seq>
         </xmpTPg:PlateNames>
         <xmpTPg:SwatchGroups>
            <rdf:Seq>
               <rdf:li rdf:parseType="Resource">
                  <xmpG:groupName>默认色板组</xmpG:groupName>
                  <xmpG:groupType>0</xmpG:groupType>
               </rdf:li>
            </rdf:Seq>
         </xmpTPg:SwatchGroups>
         <dc:format>image/svg+xml</dc:format>
      </rdf:Description>
   </rdf:RDF>
</x:xmpmeta>
                                                                                                    
                                                                                                    
                                                                                                    
                                                                                                    
                                                                                                    
                                                                                                    
                                                                                                    
                                                                                                    
                                                                                                    
                                                                                                    
                                                                                                    
                                                                                                    
                                                                                                    
                                                                                                    
                                                                                                    
                                                                                                    
                                                                                                    
                                                                                                    
                                                                                                    
                                                                                                    
                           
<?xpacket end="w"?>
	</metadata>
<path opacity="0.7" fill="#FFFFFF" d="M22.771,15.906c-0.013-0.421-0.025-0.84-0.038-1.261c-0.028-0.799-0.568-0.772-1.234-0.873
	c-0.778-0.119-1.054-0.778-1.427-1.381c-0.463-0.75-0.796-1.274-0.522-2.138c0.201-0.634,0.251-0.914-0.362-1.273
	c-0.395-0.231-0.81-0.436-1.214-0.652c-0.634-0.337-0.913,0.242-1.27,0.687c-0.563,0.706-1.419,0.49-2.213,0.553
	c-0.673,0.053-1.241,0.002-1.709-0.513c-0.477-0.525-0.7-0.824-1.382-0.433c-0.363,0.21-0.713,0.444-1.07,0.664
	c-0.682,0.422-0.388,0.878-0.143,1.504c0.335,0.856-0.304,1.465-0.64,2.192c-0.325,0.704-0.688,1.094-1.433,1.255
	c-0.65,0.142-0.917,0.239-0.919,0.949c-0.001,0.459,0.028,0.92,0.042,1.379c0.019,0.627,0.463,0.638,0.971,0.716
	c0.469,0.07,0.9,0.238,1.24,0.611c0.364,0.86,1.197,1.515,1.082,2.502c-0.042,0.362-0.28,0.709-0.313,1.077
	c-0.047,0.515,1.487,1.265,1.927,1.373c0.536,0.286,0.85-0.508,1.143-0.8c0.565-0.563,1.137-0.478,1.883-0.503
	c0.709-0.022,1.357-0.171,1.911,0.383c0.31,0.272,0.677,1.048,1.19,0.727c0.436-0.137,1.919-0.978,1.838-1.492
	c-0.058-0.368-0.318-0.699-0.383-1.063c-0.08-0.449-0.019-0.85,0.238-1.226c0.305-0.448,0.439-1.1,0.814-1.474
	C21.417,16.762,22.898,17.014,22.771,15.906 M14.963,19.926c-2.37,0-4.351-1.979-4.351-4.35s1.979-4.351,4.351-4.351
	c2.371,0,4.35,1.981,4.35,4.351S17.332,19.926,14.963,19.926"/>
<linearGradient id="SVGID_1_" gradientUnits="userSpaceOnUse" x1="14.9864" y1="9.6932" x2="14.9864" y2="23.0364" gradientTransform="matrix(1 0 0 -1 0 32)">
	<stop  offset="0" style="stop-color:#636363"/>
	<stop  offset="1" style="stop-color:#000000"/>
</linearGradient>
<path opacity="0.2" fill="url(#SVGID_1_)" d="M22.771,15.306c-0.013-0.421-0.025-0.84-0.038-1.261
	c-0.028-0.799-0.568-0.772-1.234-0.873c-0.778-0.119-1.054-0.778-1.427-1.381c-0.463-0.75-0.796-1.274-0.522-2.138
	c0.201-0.634,0.251-0.914-0.362-1.273c-0.395-0.231-0.81-0.436-1.214-0.652c-0.634-0.337-0.913,0.242-1.27,0.687
	c-0.563,0.706-1.419,0.49-2.213,0.553c-0.673,0.053-1.241,0.002-1.709-0.513c-0.477-0.525-0.7-0.824-1.382-0.433
	c-0.363,0.21-0.713,0.444-1.07,0.664c-0.682,0.422-0.388,0.878-0.143,1.504c0.335,0.856-0.304,1.465-0.64,2.192
	c-0.325,0.704-0.688,1.094-1.433,1.255c-0.65,0.142-0.917,0.239-0.919,0.949c-0.001,0.46,0.028,0.92,0.042,1.379
	c0.019,0.627,0.463,0.638,0.971,0.716c0.469,0.07,0.9,0.238,1.24,0.611c0.364,0.86,1.197,1.515,1.082,2.502
	c-0.042,0.362-0.28,0.709-0.313,1.077c-0.047,0.515,1.487,1.265,1.927,1.373c0.536,0.286,0.85-0.508,1.143-0.8
	c0.565-0.563,1.137-0.478,1.883-0.503c0.709-0.022,1.357-0.171,1.911,0.383c0.31,0.272,0.677,1.048,1.19,0.727
	c0.436-0.137,1.919-0.978,1.838-1.492c-0.058-0.368-0.318-0.699-0.383-1.063c-0.08-0.449-0.019-0.85,0.238-1.226
	c0.305-0.448,0.439-1.1,0.814-1.474C21.417,16.162,22.898,16.414,22.771,15.306 M14.963,19.326c-2.37,0-4.351-1.979-4.351-4.35
	s1.979-4.351,4.351-4.351c2.371,0,4.35,1.981,4.35,4.351S17.332,19.326,14.963,19.326"/>
<g>
	<path opacity="0.7" fill="#FFFFFF" d="M10.25,10.982c0.059-0.245,0.062-0.503-0.051-0.79c-0.078-0.199-0.158-0.38-0.212-0.549
		c-0.166,0.328,0.034,0.693,0.212,1.149C10.225,10.857,10.235,10.919,10.25,10.982z"/>
	<path opacity="0.7" fill="#FFFFFF" d="M14.976,10.624c-2.371,0-4.351,1.981-4.351,4.351c0,0.102,0.024,0.199,0.031,0.3
		c0.161-2.233,2.051-4.051,4.32-4.051c2.268,0,4.158,1.818,4.319,4.051c0.007-0.101,0.031-0.198,0.031-0.3
		C19.326,12.605,17.347,10.624,14.976,10.624z"/>
	<path opacity="0.7" fill="#FFFFFF" d="M19.494,10.541c0.016-0.092,0.038-0.187,0.07-0.288c0.124-0.39,0.189-0.646,0.079-0.869
		c-0.022,0.083-0.048,0.171-0.079,0.269C19.457,9.99,19.445,10.274,19.494,10.541z"/>
	<path opacity="0.7" fill="#FFFFFF" d="M20.791,16.798c-0.375,0.374-0.509,1.027-0.814,1.474c-0.247,0.362-0.31,0.748-0.242,1.177
		c0.038-0.2,0.116-0.392,0.242-0.577c0.305-0.448,0.439-1.1,0.814-1.474c0.64-0.637,2.121-0.385,1.993-1.492
		c-0.004-0.136-0.008-0.272-0.012-0.408C22.699,16.37,21.387,16.205,20.791,16.798z"/>
	<path opacity="0.7" fill="#FFFFFF" d="M18.285,22.053c-0.512,0.32-0.88-0.455-1.19-0.727c-0.554-0.554-1.202-0.406-1.911-0.383
		c-0.746,0.025-1.319-0.06-1.883,0.503c-0.293,0.293-0.607,1.086-1.143,0.8c-0.374-0.092-1.528-0.646-1.841-1.126
		c-0.04,0.116-0.075,0.233-0.086,0.353c-0.047,0.515,1.487,1.265,1.927,1.373c0.536,0.286,0.85-0.508,1.143-0.8
		c0.565-0.563,1.137-0.478,1.883-0.503c0.709-0.022,1.357-0.171,1.911,0.383c0.31,0.272,0.677,1.048,1.19,0.727
		c0.436-0.137,1.919-0.978,1.838-1.492c-0.017-0.107-0.052-0.21-0.093-0.313C19.718,21.343,18.647,21.94,18.285,22.053z"/>
	<path opacity="0.7" fill="#FFFFFF" d="M10.544,19.795c0.115-0.987-0.718-1.642-1.082-2.502c-0.34-0.373-0.771-0.541-1.24-0.611
		c-0.509-0.077-0.952-0.089-0.971-0.716c-0.01-0.33-0.021-0.661-0.03-0.991c-0.007,0.065-0.012,0.133-0.012,0.212
		c-0.001,0.459,0.028,0.92,0.042,1.379c0.019,0.627,0.463,0.638,0.971,0.716c0.469,0.07,0.9,0.238,1.24,0.611
		c0.301,0.71,0.914,1.283,1.056,2.017C10.526,19.872,10.54,19.834,10.544,19.795z"/>
</g>
<rect fill="none" width="30" height="30"/>
</svg>
