<?xml version="1.0" encoding="utf-8"?>
<!-- Generator: Adobe Illustrator 17.1.0, SVG Export Plug-In . SVG Version: 6.00 Build 0)  -->
<!DOCTYPE svg PUBLIC "-//W3C//DTD SVG 1.1//EN" "http://www.w3.org/Graphics/SVG/1.1/DTD/svg11.dtd" [
	<!ENTITY ns_extend "http://ns.adobe.com/Extensibility/1.0/">
	<!ENTITY ns_ai "http://ns.adobe.com/AdobeIllustrator/10.0/">
	<!ENTITY ns_graphs "http://ns.adobe.com/Graphs/1.0/">
	<!ENTITY ns_vars "http://ns.adobe.com/Variables/1.0/">
	<!ENTITY ns_imrep "http://ns.adobe.com/ImageReplacement/1.0/">
	<!ENTITY ns_sfw "http://ns.adobe.com/SaveForWeb/1.0/">
	<!ENTITY ns_custom "http://ns.adobe.com/GenericCustomNamespace/1.0/">
	<!ENTITY ns_adobe_xpath "http://ns.adobe.com/XPath/1.0/">
]>
<svg version="1.1" id="图层_1" xmlns:x="&ns_extend;" xmlns:i="&ns_ai;" xmlns:graph="&ns_graphs;"
	 xmlns="http://www.w3.org/2000/svg" xmlns:xlink="http://www.w3.org/1999/xlink" x="0px" y="0px" width="20px" height="20px"
	 viewBox="0 0 20 20" enable-background="new 0 0 20 20" xml:space="preserve">
<metadata>
	<sfw  xmlns="&ns_sfw;">
		<slices></slices>
		<sliceSourceBounds  width="20" height="20" y="0" x="0" bottomLeftOrigin="true"></sliceSourceBounds>
	</sfw>
</metadata>
<path opacity="0.1" fill="#FC9822" enable-background="new    " d="M8,20c-3.86,0-7-3.141-7-7V9c0-3.86,3.14-7,7-7h4
	c3.859,0,7,3.14,7,7v4c0,3.859-3.141,7-7,7H8z"/>
<path opacity="0.15" fill="#FC9822" enable-background="new    " d="M8,19c-3.309,0-6-2.691-6-6V9c0-3.309,2.691-6,6-6h4
	c3.309,0,6,2.691,6,6v4c0,3.309-2.691,6-6,6H8z M8,7C6.897,7,6,7.897,6,9l0,0C6,7.897,6.897,7,8,7h4c1.103,0,2,0.897,2,2
	c0-1.103-0.897-2-2-2H8z"/>
<path opacity="0.2" fill="#FC9822" enable-background="new    " d="M12,4H8C5.239,4,3,6.239,3,9v4c0,2.761,2.239,5,5,5h4
	c2.761,0,5-2.239,5-5V9C17,6.239,14.761,4,12,4z M15,13c0,1.657-1.343,3-3,3H8c-1.657,0-3-1.343-3-3V9c0-1.657,1.343-3,3-3h4
	c1.657,0,3,1.343,3,3V13z M8,14c-0.551,0-1-0.448-1-1V9c0-0.551,0.449-1,1-1h4c0.552,0,1,0.449,1,1v4c0,0.552-0.448,1-1,1H8z"/>
<rect fill="none" width="20" height="20"/>
<rect fill="none" width="20" height="20"/>
<rect fill="none" width="20" height="20"/>
</svg>
