<?xml version="1.0" encoding="utf-8"?>
<!-- Generator: Adobe Illustrator 17.1.0, SVG Export Plug-In . SVG Version: 6.00 Build 0)  -->
<!DOCTYPE svg PUBLIC "-//W3C//DTD SVG 1.1//EN" "http://www.w3.org/Graphics/SVG/1.1/DTD/svg11.dtd" [
	<!ENTITY ns_extend "http://ns.adobe.com/Extensibility/1.0/">
	<!ENTITY ns_ai "http://ns.adobe.com/AdobeIllustrator/10.0/">
	<!ENTITY ns_graphs "http://ns.adobe.com/Graphs/1.0/">
	<!ENTITY ns_vars "http://ns.adobe.com/Variables/1.0/">
	<!ENTITY ns_imrep "http://ns.adobe.com/ImageReplacement/1.0/">
	<!ENTITY ns_sfw "http://ns.adobe.com/SaveForWeb/1.0/">
	<!ENTITY ns_custom "http://ns.adobe.com/GenericCustomNamespace/1.0/">
	<!ENTITY ns_adobe_xpath "http://ns.adobe.com/XPath/1.0/">
]>
<svg version="1.1" id="图层_1" xmlns:x="&ns_extend;" xmlns:i="&ns_ai;" xmlns:graph="&ns_graphs;"
	 xmlns="http://www.w3.org/2000/svg" xmlns:xlink="http://www.w3.org/1999/xlink" x="0px" y="0px" width="20px" height="20px"
	 viewBox="0 0 20 20" enable-background="new 0 0 20 20" xml:space="preserve">
<metadata>
	<sfw  xmlns="&ns_sfw;">
		<slices></slices>
		<sliceSourceBounds  width="20" height="20" y="0" x="0" bottomLeftOrigin="true"></sliceSourceBounds>
	</sfw>
</metadata>
<path opacity="0.02" enable-background="new    " d="M8,20c-3.86,0-7-3.141-7-7V9c0-3.86,3.14-7,7-7h4c3.859,0,7,3.14,7,7v4
	c0,3.859-3.141,7-7,7H8z"/>
<path opacity="0.05" enable-background="new    " d="M8,19c-3.309,0-6-2.691-6-6V9c0-3.309,2.691-6,6-6h4c3.309,0,6,2.691,6,6v4
	c0,3.309-2.691,6-6,6H8z M8,7C6.897,7,6,7.897,6,9l0,0C6,7.897,6.897,7,8,7h4c1.103,0,2,0.897,2,2c0-1.103-0.897-2-2-2H8z"/>
<path opacity="0.1" enable-background="new    " d="M12,4H8C5.239,4,3,6.239,3,9v4c0,2.761,2.239,5,5,5h4c2.761,0,5-2.239,5-5V9
	C17,6.239,14.761,4,12,4z M15,13c0,1.657-1.343,3-3,3H8c-1.657,0-3-1.343-3-3V9c0-1.657,1.343-3,3-3h4c1.657,0,3,1.343,3,3V13z
	 M8,14c-0.551,0-1-0.448-1-1V9c0-0.551,0.449-1,1-1h4c0.552,0,1,0.449,1,1v4c0,0.552-0.448,1-1,1H8z"/>
<linearGradient id="SVGID_1_" gradientUnits="userSpaceOnUse" x1="10" y1="3" x2="10" y2="17" gradientTransform="matrix(1 0 0 -1 0 20)">
	<stop  offset="0" style="stop-color:#F2F2F2"/>
	<stop  offset="0.1187" style="stop-color:#F4F4F4"/>
	<stop  offset="1" style="stop-color:#FCFCFC"/>
</linearGradient>
<path fill="url(#SVGID_1_)" d="M12,3H8C5.239,3,3,5.239,3,8v4c0,2.761,2.239,5,5,5h4c2.761,0,5-2.239,5-5V8C17,5.239,14.761,3,12,3z
	 M15,12c0,1.657-1.343,3-3,3H8c-1.657,0-3-1.343-3-3V8c0-1.657,1.343-3,3-3h4c1.657,0,3,1.343,3,3V12z"/>
<linearGradient id="SVGID_2_" gradientUnits="userSpaceOnUse" x1="10" y1="6" x2="10" y2="14" gradientTransform="matrix(1 0 0 -1 0 20)">
	<stop  offset="0" style="stop-color:#E0611E"/>
	<stop  offset="0.2024" style="stop-color:#ED6D20"/>
	<stop  offset="0.4086" style="stop-color:#F47421"/>
	<stop  offset="0.6159" style="stop-color:#F47A26"/>
	<stop  offset="0.9035" style="stop-color:#F58C33"/>
	<stop  offset="1" style="stop-color:#F59439"/>
</linearGradient>
<path fill="url(#SVGID_2_)" d="M8,14c-1.103,0-2-0.897-2-2V8c0-1.103,0.897-2,2-2h4c1.103,0,2,0.897,2,2v4c0,1.103-0.897,2-2,2H8z"
	/>
<path opacity="0.08" fill="#FFFFFF" enable-background="new    " d="M12,6H8C6.897,6,6,6.897,6,8v1c0-1.103,0.897-2,2-2h4
	c1.103,0,2,0.897,2,2V8C14,6.897,13.103,6,12,6z"/>
<path opacity="0.9" fill="#FFFFFF" enable-background="new    " d="M8,16h4c1.657,0,3-1.343,3-3v-1c0,1.657-1.343,3-3,3H8
	c-1.657,0-3-1.343-3-3v1C5,14.657,6.343,16,8,16z"/>
<path opacity="0.9" fill="#FFFFFF" enable-background="new    " d="M12,3H8C5.239,3,3,5.239,3,8v1c0-2.761,2.239-5,5-5h4
	c2.761,0,5,2.239,5,5V8C17,5.239,14.761,3,12,3z"/>
<rect fill="none" width="20" height="20"/>
</svg>
