<?xml version="1.0" encoding="utf-8"?>
<!-- Generator: Adobe Illustrator 17.1.0, SVG Export Plug-In . SVG Version: 6.00 Build 0)  -->
<!DOCTYPE svg PUBLIC "-//W3C//DTD SVG 1.1//EN" "http://www.w3.org/Graphics/SVG/1.1/DTD/svg11.dtd" [
	<!ENTITY ns_extend "http://ns.adobe.com/Extensibility/1.0/">
	<!ENTITY ns_ai "http://ns.adobe.com/AdobeIllustrator/10.0/">
	<!ENTITY ns_graphs "http://ns.adobe.com/Graphs/1.0/">
	<!ENTITY ns_vars "http://ns.adobe.com/Variables/1.0/">
	<!ENTITY ns_imrep "http://ns.adobe.com/ImageReplacement/1.0/">
	<!ENTITY ns_sfw "http://ns.adobe.com/SaveForWeb/1.0/">
	<!ENTITY ns_custom "http://ns.adobe.com/GenericCustomNamespace/1.0/">
	<!ENTITY ns_adobe_xpath "http://ns.adobe.com/XPath/1.0/">
]>
<svg version="1.1" id="图层_1" xmlns:x="&ns_extend;" xmlns:i="&ns_ai;" xmlns:graph="&ns_graphs;"
	 xmlns="http://www.w3.org/2000/svg" xmlns:xlink="http://www.w3.org/1999/xlink" x="0px" y="0px" width="60px" height="30px"
	 viewBox="0 0 60 30" enable-background="new 0 0 60 30" xml:space="preserve">
<metadata>
	<sfw  xmlns="&ns_sfw;">
		<slices></slices>
		<sliceSourceBounds  width="60" height="30" x="0" y="-30" bottomLeftOrigin="true"></sliceSourceBounds>
	</sfw>
</metadata>
<rect fill="none" width="60" height="30"/>
<path opacity="0.8" fill="#FFFFFF" d="M42.721,10.648v7.456c0,2.573-2.087,4.66-4.66,4.66h-0.497l0.729,2.916
	c0.048,0.194-0.033,0.398-0.202,0.506c-0.077,0.048-0.164,0.073-0.25,0.073c-0.104,0-0.208-0.035-0.294-0.105l-4.182-3.39h-0.417
	c0.35-0.61,0.565-1.307,0.565-2.059v-5.078c0-2.301-1.872-4.173-4.174-4.173h-6.777v-0.806c0-2.574,2.087-4.66,4.66-4.66h10.839
	C40.634,5.988,42.721,8.074,42.721,10.648z M29.339,12.454h-8.886c-1.752,0-3.174,1.421-3.174,3.174v5.078
	c0,1.752,1.421,3.174,3.174,3.174h1.159l-0.636,2.543c-0.049,0.198,0.033,0.406,0.206,0.516c0.078,0.049,0.167,0.074,0.255,0.074
	c0.106,0,0.212-0.036,0.299-0.107l3.734-3.026h3.869c1.752,0,3.174-1.421,3.174-3.174v-5.078
	C32.512,13.875,31.091,12.454,29.339,12.454z"/>
<linearGradient id="SVGID_1_" gradientUnits="userSpaceOnUse" x1="30" y1="4.9881" x2="30" y2="26.0119">
	<stop  offset="0" style="stop-color:#9D9D9D"/>
	<stop  offset="1" style="stop-color:#FFFFFF"/>
</linearGradient>
<path fill="url(#SVGID_1_)" d="M42.721,9.648v7.456c0,2.573-2.087,4.66-4.66,4.66h-0.497l0.729,2.916
	c0.048,0.194-0.033,0.398-0.202,0.506c-0.077,0.048-0.164,0.073-0.25,0.073c-0.104,0-0.208-0.035-0.294-0.105l-4.182-3.39h-0.417
	c0.35-0.61,0.565-1.307,0.565-2.059v-5.078c0-2.301-1.872-4.173-4.174-4.173h-6.777V9.648c0-2.574,2.087-4.66,4.66-4.66h10.839
	C40.634,4.988,42.721,7.074,42.721,9.648z M29.339,11.454h-8.886c-1.752,0-3.174,1.421-3.174,3.174v5.078
	c0,1.752,1.421,3.174,3.174,3.174h1.159l-0.636,2.543c-0.049,0.198,0.033,0.406,0.206,0.516c0.078,0.049,0.167,0.074,0.255,0.074
	c0.106,0,0.212-0.036,0.299-0.107l3.734-3.026h3.869c1.752,0,3.174-1.421,3.174-3.174v-5.078
	C32.512,12.875,31.091,11.454,29.339,11.454z"/>
<linearGradient id="SVGID_2_" gradientUnits="userSpaceOnUse" x1="30" y1="4.9881" x2="30" y2="26.0119">
	<stop  offset="0" style="stop-color:#E0611E"/>
	<stop  offset="0.2024" style="stop-color:#ED6D20"/>
	<stop  offset="0.4086" style="stop-color:#F47421"/>
	<stop  offset="0.6159" style="stop-color:#F47A26"/>
	<stop  offset="0.9035" style="stop-color:#F58C33"/>
	<stop  offset="1" style="stop-color:#F59439"/>
</linearGradient>
<path opacity="0.6" fill="url(#SVGID_2_)" d="M42.721,9.648v7.456c0,2.573-2.087,4.66-4.66,4.66h-0.497l0.729,2.916
	c0.048,0.194-0.033,0.398-0.202,0.506c-0.077,0.048-0.164,0.073-0.25,0.073c-0.104,0-0.208-0.035-0.294-0.105l-4.182-3.39h-0.417
	c0.35-0.61,0.565-1.307,0.565-2.059v-5.078c0-2.301-1.872-4.173-4.174-4.173h-6.777V9.648c0-2.574,2.087-4.66,4.66-4.66h10.839
	C40.634,4.988,42.721,7.074,42.721,9.648z M29.339,11.454h-8.886c-1.752,0-3.174,1.421-3.174,3.174v5.078
	c0,1.752,1.421,3.174,3.174,3.174h1.159l-0.636,2.543c-0.049,0.198,0.033,0.406,0.206,0.516c0.078,0.049,0.167,0.074,0.255,0.074
	c0.106,0,0.212-0.036,0.299-0.107l3.734-3.026h3.869c1.752,0,3.174-1.421,3.174-3.174v-5.078
	C32.512,12.875,31.091,11.454,29.339,11.454z"/>
<path opacity="0.06" d="M29.339,11.454h-8.886c-1.752,0-3.174,1.421-3.174,3.174v5.078c0,1.752,1.421,3.174,3.174,3.174h1.159
	l-0.636,2.543c-0.049,0.198,0.033,0.406,0.206,0.516c0.078,0.049,0.167,0.074,0.255,0.074c0.106,0,0.212-0.036,0.299-0.107
	l3.734-3.026h3.869c1.752,0,3.174-1.421,3.174-3.174v-5.078C32.512,12.875,31.091,11.454,29.339,11.454z M31.513,19.705
	c0,1.199-0.976,2.174-2.174,2.174H25.47c-0.229,0-0.451,0.079-0.63,0.223l-2.512,2.036l0.254-1.017
	c0.075-0.299,0.008-0.615-0.182-0.858s-0.48-0.385-0.788-0.385h-1.159c-1.198,0-2.174-0.975-2.174-2.174v-5.078
	c0-1.198,0.976-2.173,2.174-2.173h8.886c1.198,0,2.174,0.975,2.174,2.173V19.705z"/>
<path opacity="0.06" d="M38.061,4.988H27.222c-2.573,0-4.66,2.086-4.66,4.66v0.806h6.777c2.302,0,4.174,1.872,4.174,4.173v5.078
	c0,0.752-0.216,1.449-0.565,2.059h0.417l4.182,3.39c0.085,0.07,0.189,0.105,0.294,0.105c0.087,0,0.173-0.024,0.25-0.073
	c0.169-0.108,0.25-0.312,0.202-0.506l-0.729-2.916h0.497c2.573,0,4.66-2.087,4.66-4.66V9.648
	C42.721,7.074,40.634,4.988,38.061,4.988z M41.721,17.104c0,2.018-1.642,3.66-3.66,3.66h-0.497c-0.308,0-0.599,0.142-0.788,0.384
	s-0.257,0.56-0.182,0.858l0.34,1.364l-2.656-2.153c0.156-0.491,0.235-0.997,0.235-1.511v-5.078c0-2.853-2.321-5.173-5.174-5.173
	h-5.772c0.102-1.928,1.702-3.466,3.655-3.466H38.06c2.019,0,3.66,1.642,3.66,3.66V17.104z"/>
<g>
	<path opacity="0.06" d="M29.339,12.454h-6.777v-0.806c0-0.066,0.017-0.128,0.02-0.194h-2.128c-1.752,0-3.174,1.421-3.174,3.174v2
		c0-1.753,1.421-3.174,3.174-3.174h8.886c1.752,0,3.174,1.421,3.174,3.174v-2c0-0.288-0.051-0.563-0.123-0.828
		C31.627,12.977,30.546,12.454,29.339,12.454z"/>
	<path opacity="0.06" d="M38.061,4.988H27.222c-2.573,0-4.66,2.086-4.66,4.66v0.806h0.174c0.53-1.991,2.329-3.466,4.486-3.466
		h10.839c2.573,0,4.66,2.086,4.66,4.66v-2C42.721,7.074,40.634,4.988,38.061,4.988z"/>
	<path opacity="0.06" d="M21.112,24.879l-0.136,0.543c-0.049,0.198,0.033,0.406,0.206,0.516c0.047,0.03,0.102,0.033,0.154,0.045
		l0.276-1.104H21.112z"/>
	<path opacity="0.06" d="M38.061,23.764h-0.497l0.367,1.469c0.055-0.011,0.111-0.015,0.16-0.046c0.169-0.108,0.25-0.312,0.202-0.506
		l-0.229-0.916C38.062,23.764,38.062,23.764,38.061,23.764z"/>
	<path opacity="0.06" d="M33.513,19.705c0,0.752-0.216,1.449-0.565,2.059h0.417l0.136,0.11c0.003-0.057,0.012-0.112,0.012-0.169
		V19.705z"/>
</g>
<g>
	<path opacity="0.06" d="M21.362,23.879l-0.386,1.543c-0.041,0.163,0.025,0.321,0.141,0.437l0.495-1.981H21.362z"/>
	<path opacity="0.06" d="M33.513,19.705c0,0.752-0.216,1.449-0.565,2.059h0.417l0.001,0.001c0.094-0.338,0.147-0.692,0.147-1.06
		V19.705z"/>
	<path opacity="0.06" d="M29.979,11.519c-0.21-0.033-0.421-0.065-0.641-0.065h-6.777v0h-2.109c-1.752,0-3.174,1.421-3.174,3.174v1
		c0-1.753,1.421-3.174,3.174-3.174h8.886c1.752,0,3.174,1.421,3.174,3.174v-1C32.512,13.094,31.425,11.815,29.979,11.519z"/>
	<path opacity="0.06" d="M38.061,4.988H27.222c-2.573,0-4.66,2.086-4.66,4.66v0.806h0.02c0.104-2.482,2.134-4.466,4.64-4.466h10.839
		c2.573,0,4.66,2.086,4.66,4.66v-1C42.721,7.074,40.634,4.988,38.061,4.988z"/>
	<path opacity="0.06" d="M37.563,22.764l0.587,2.349c0.116-0.114,0.182-0.271,0.142-0.433l-0.479-1.916H37.563z"/>
</g>
</svg>
