<?xml version="1.0" encoding="utf-8"?>
<!-- Generator: Adobe Illustrator 17.1.0, SVG Export Plug-In . SVG Version: 6.00 Build 0)  -->
<!DOCTYPE svg PUBLIC "-//W3C//DTD SVG 1.1//EN" "http://www.w3.org/Graphics/SVG/1.1/DTD/svg11.dtd" [
	<!ENTITY ns_extend "http://ns.adobe.com/Extensibility/1.0/">
	<!ENTITY ns_ai "http://ns.adobe.com/AdobeIllustrator/10.0/">
	<!ENTITY ns_graphs "http://ns.adobe.com/Graphs/1.0/">
	<!ENTITY ns_vars "http://ns.adobe.com/Variables/1.0/">
	<!ENTITY ns_imrep "http://ns.adobe.com/ImageReplacement/1.0/">
	<!ENTITY ns_sfw "http://ns.adobe.com/SaveForWeb/1.0/">
	<!ENTITY ns_custom "http://ns.adobe.com/GenericCustomNamespace/1.0/">
	<!ENTITY ns_adobe_xpath "http://ns.adobe.com/XPath/1.0/">
]>
<svg version="1.1" id="图层_1" xmlns:x="&ns_extend;" xmlns:i="&ns_ai;" xmlns:graph="&ns_graphs;"
	 xmlns="http://www.w3.org/2000/svg" xmlns:xlink="http://www.w3.org/1999/xlink" x="0px" y="0px" width="220px" height="64px"
	 viewBox="0 0 220 64" enable-background="new 0 0 220 64" xml:space="preserve">
<metadata>
	<sfw  xmlns="&ns_sfw;">
		<slices></slices>
		<sliceSourceBounds  width="220" height="64" y="-64" x="0" bottomLeftOrigin="true"></sliceSourceBounds>
	</sfw>
</metadata>
<rect fill="none" width="220" height="64"/>
<linearGradient id="SVGID_1_" gradientUnits="userSpaceOnUse" x1="110" y1="58" x2="110" y2="33">
	<stop  offset="0.5" style="stop-color:#F47421;stop-opacity:0.15"/>
	<stop  offset="0.9312" style="stop-color:#F47421;stop-opacity:0.3225"/>
	<stop  offset="1" style="stop-color:#F47421;stop-opacity:0.35"/>
</linearGradient>
<path opacity="0.2" fill="url(#SVGID_1_)" d="M213,55c0,1.7-1.3,3-3,3h-58.7H10c-1.7,0-3-1.3-3-3V33h144.3H213V55z"/>
<linearGradient id="SVGID_2_" gradientUnits="userSpaceOnUse" x1="110" y1="58" x2="110" y2="33">
	<stop  offset="0.5" style="stop-color:#F47421;stop-opacity:0.15"/>
	<stop  offset="0.9312" style="stop-color:#F47421;stop-opacity:0.3225"/>
	<stop  offset="1" style="stop-color:#F47421;stop-opacity:0.35"/>
</linearGradient>
<path opacity="0.08" fill="url(#SVGID_2_)" d="M151.3,33H7v22c0,1.7,1.3,3,3,3h141.3H210c1.7,0,3-1.3,3-3V33H151.3z M211,55
	c0,0.589-0.411,1-1,1H10c-0.589,0-1-0.411-1-1V35h202V55z"/>
<linearGradient id="SVGID_3_" gradientUnits="userSpaceOnUse" x1="110" y1="58" x2="110" y2="33">
	<stop  offset="0.5" style="stop-color:#F47421;stop-opacity:0.15"/>
	<stop  offset="0.9312" style="stop-color:#F47421;stop-opacity:0.3225"/>
	<stop  offset="1" style="stop-color:#F47421;stop-opacity:0.35"/>
</linearGradient>
<path opacity="0.08" fill="url(#SVGID_3_)" d="M151.3,33H7v22c0,1.7,1.3,3,3,3h141.3H210c1.7,0,3-1.3,3-3V33H151.3z M212,55
	c0,1.141-0.859,2-2,2H10c-1.14,0-2-0.859-2-2V34h204V55z"/>
</svg>
