<?xml version="1.0" encoding="utf-8"?>
<!-- Generator: Adobe Illustrator 17.1.0, SVG Export Plug-In . SVG Version: 6.00 Build 0)  -->
<!DOCTYPE svg PUBLIC "-//W3C//DTD SVG 1.1//EN" "http://www.w3.org/Graphics/SVG/1.1/DTD/svg11.dtd" [
	<!ENTITY ns_extend "http://ns.adobe.com/Extensibility/1.0/">
	<!ENTITY ns_ai "http://ns.adobe.com/AdobeIllustrator/10.0/">
	<!ENTITY ns_graphs "http://ns.adobe.com/Graphs/1.0/">
	<!ENTITY ns_vars "http://ns.adobe.com/Variables/1.0/">
	<!ENTITY ns_imrep "http://ns.adobe.com/ImageReplacement/1.0/">
	<!ENTITY ns_sfw "http://ns.adobe.com/SaveForWeb/1.0/">
	<!ENTITY ns_custom "http://ns.adobe.com/GenericCustomNamespace/1.0/">
	<!ENTITY ns_adobe_xpath "http://ns.adobe.com/XPath/1.0/">
]>
<svg version="1.1" id="图层_1" xmlns:x="&ns_extend;" xmlns:i="&ns_ai;" xmlns:graph="&ns_graphs;"
	 xmlns="http://www.w3.org/2000/svg" xmlns:xlink="http://www.w3.org/1999/xlink" x="0px" y="0px" width="14px" height="12px"
	 viewBox="0 0 14 12" enable-background="new 0 0 14 12" xml:space="preserve">
<metadata>
	<sfw  xmlns="&ns_sfw;">
		<slices></slices>
		<sliceSourceBounds  height="12" width="14" x="0" y="-12" bottomLeftOrigin="true"></sliceSourceBounds>
	</sfw>
</metadata>
<rect fill="none" width="14" height="12"/>
<g>
	<path opacity="0.02" d="M9.828,11.828c-0.801,0-1.555-0.313-2.121-0.879L7,10.242l-0.707,0.707
		c-0.566,0.566-1.32,0.879-2.122,0.879s-1.555-0.313-2.121-0.879C1.484,10.384,1.172,9.63,1.172,8.828S1.484,7.273,2.05,6.707
		L2.757,6L2.05,5.293c-0.567-0.566-0.879-1.32-0.879-2.122S1.483,1.617,2.05,1.051c0.566-0.567,1.32-0.879,2.121-0.879
		s1.555,0.312,2.122,0.879L7,1.758l0.707-0.707c0.566-0.567,1.32-0.879,2.121-0.879s1.555,0.312,2.121,0.879
		c0.566,0.566,0.878,1.319,0.878,2.121c0,0.802-0.312,1.556-0.878,2.122L11.242,6l0.707,0.707c0.566,0.565,0.878,1.318,0.878,2.121
		s-0.312,1.556-0.878,2.122C11.383,11.516,10.629,11.828,9.828,11.828z"/>
	<path opacity="0.02" d="M9.828,10.828c-0.534,0-1.036-0.208-1.414-0.586L7,8.828l-1.414,1.414c-0.378,0.378-0.88,0.586-1.415,0.586
		c-0.534,0-1.036-0.208-1.414-0.586c-0.78-0.779-0.78-2.049,0-2.828L4.171,6L2.757,4.586c-0.378-0.378-0.586-0.88-0.586-1.415
		c0-0.534,0.208-1.036,0.586-1.414s0.88-0.586,1.414-0.586c0.535,0,1.037,0.208,1.415,0.586L7,3.172l1.414-1.414
		c0.378-0.378,0.88-0.586,1.414-0.586s1.036,0.208,1.414,0.586c0.78,0.78,0.78,2.049,0,2.829L9.828,6l1.414,1.414
		c0.78,0.779,0.78,2.049,0,2.828C10.864,10.62,10.362,10.828,9.828,10.828z"/>
	<path opacity="0.05" d="M8.414,6l2.121-2.121c0.391-0.391,0.391-1.024,0-1.414c-0.391-0.391-1.024-0.391-1.414,0L7,4.586
		L4.879,2.465c-0.391-0.391-1.024-0.391-1.414,0c-0.391,0.391-0.391,1.024,0,1.414L5.586,6L3.464,8.122
		c-0.391,0.391-0.391,1.024,0,1.414c0.391,0.391,1.024,0.391,1.414,0L7,7.414l2.121,2.121c0.391,0.391,1.024,0.391,1.414,0
		c0.391-0.391,0.391-1.024,0-1.414L8.414,6z"/>
	<path opacity="0.02" d="M8.414,7l2.121-2.121c0.391-0.391,0.391-1.024,0-1.414c-0.391-0.391-1.024-0.391-1.414,0L7,5.586
		L4.879,3.465c-0.391-0.391-1.024-0.391-1.414,0c-0.391,0.391-0.391,1.024,0,1.414L5.586,7L3.464,9.122
		c-0.391,0.391-0.391,1.024,0,1.414c0.391,0.391,1.024,0.391,1.414,0L7,8.414l2.121,2.121c0.391,0.391,1.024,0.391,1.414,0
		c0.391-0.391,0.391-1.024,0-1.414L8.414,7z"/>
	<linearGradient id="SVGID_1_" gradientUnits="userSpaceOnUse" x1="7" y1="8.8286" x2="7" y2="1.1718">
		<stop  offset="0" style="stop-color:#E0611E"/>
		<stop  offset="0.2024" style="stop-color:#ED6D20"/>
		<stop  offset="0.4086" style="stop-color:#F47421"/>
		<stop  offset="0.6159" style="stop-color:#F47A26"/>
		<stop  offset="0.9035" style="stop-color:#F58C33"/>
		<stop  offset="1" style="stop-color:#F59439"/>
	</linearGradient>
	<path fill="url(#SVGID_1_)" d="M8.414,5l2.121-2.121c0.391-0.391,0.391-1.024,0-1.414c-0.391-0.391-1.024-0.391-1.414,0L7,3.586
		L4.879,1.465c-0.391-0.391-1.024-0.391-1.414,0c-0.391,0.391-0.391,1.024,0,1.414L5.586,5L3.464,7.122
		c-0.391,0.391-0.391,1.024,0,1.414c0.391,0.391,1.024,0.391,1.414,0L7,6.414l2.121,2.121c0.391,0.391,1.024,0.391,1.414,0
		c0.391-0.391,0.391-1.024,0-1.414L8.414,5z"/>
</g>
</svg>
