<?xml version="1.0" encoding="utf-8"?>
<!-- Generator: Adobe Illustrator 17.1.0, SVG Export Plug-In . SVG Version: 6.00 Build 0)  -->
<!DOCTYPE svg PUBLIC "-//W3C//DTD SVG 1.1//EN" "http://www.w3.org/Graphics/SVG/1.1/DTD/svg11.dtd" [
	<!ENTITY ns_extend "http://ns.adobe.com/Extensibility/1.0/">
	<!ENTITY ns_ai "http://ns.adobe.com/AdobeIllustrator/10.0/">
	<!ENTITY ns_graphs "http://ns.adobe.com/Graphs/1.0/">
	<!ENTITY ns_vars "http://ns.adobe.com/Variables/1.0/">
	<!ENTITY ns_imrep "http://ns.adobe.com/ImageReplacement/1.0/">
	<!ENTITY ns_sfw "http://ns.adobe.com/SaveForWeb/1.0/">
	<!ENTITY ns_custom "http://ns.adobe.com/GenericCustomNamespace/1.0/">
	<!ENTITY ns_adobe_xpath "http://ns.adobe.com/XPath/1.0/">
]>
<svg version="1.1" id="图层_1" xmlns:x="&ns_extend;" xmlns:i="&ns_ai;" xmlns:graph="&ns_graphs;"
	 xmlns="http://www.w3.org/2000/svg" xmlns:xlink="http://www.w3.org/1999/xlink" x="0px" y="0px" width="220px" height="64px"
	 viewBox="0 0 220 64" enable-background="new 0 0 220 64" xml:space="preserve">
<metadata>
	<sfw  xmlns="&ns_sfw;">
		<slices></slices>
		<sliceSourceBounds  width="220" height="64" y="-64" x="0" bottomLeftOrigin="true"></sliceSourceBounds>
	</sfw>
</metadata>
<rect fill="none" width="220" height="64"/>
<linearGradient id="SVGID_1_" gradientUnits="userSpaceOnUse" x1="110" y1="31" x2="110" y2="6">
	<stop  offset="0.5" style="stop-color:#F47421;stop-opacity:0.2"/>
	<stop  offset="0.9312" style="stop-color:#F47421;stop-opacity:0.3725"/>
	<stop  offset="1" style="stop-color:#F47421;stop-opacity:0.4"/>
</linearGradient>
<path opacity="0.25" fill="url(#SVGID_1_)" d="M213,31h-61.7H7V9c0-1.7,1.3-3,3-3h141.3H210c1.7,0,3,1.3,3,3V31z"/>
<linearGradient id="SVGID_2_" gradientUnits="userSpaceOnUse" x1="110" y1="31" x2="110" y2="6">
	<stop  offset="0" style="stop-color:#F47421;stop-opacity:0.3"/>
	<stop  offset="0.8625" style="stop-color:#F47421;stop-opacity:0.3431"/>
	<stop  offset="1" style="stop-color:#F47421;stop-opacity:0.35"/>
</linearGradient>
<path opacity="0.15" fill="url(#SVGID_2_)" d="M210,6h-58.7H10C8.3,6,7,7.3,7,9v22h144.3H213V9C213,7.3,211.7,6,210,6z M211,29H9V9
	c0-0.589,0.411-1,1-1h200c0.589,0,1,0.411,1,1V29z"/>
<linearGradient id="SVGID_3_" gradientUnits="userSpaceOnUse" x1="110" y1="31" x2="110" y2="6">
	<stop  offset="0" style="stop-color:#F47421;stop-opacity:0.3"/>
	<stop  offset="0.8625" style="stop-color:#F47421;stop-opacity:0.3431"/>
	<stop  offset="1" style="stop-color:#F47421;stop-opacity:0.35"/>
</linearGradient>
<path opacity="0.15" fill="url(#SVGID_3_)" d="M210,6h-58.7H10C8.3,6,7,7.3,7,9v22h144.3H213V9C213,7.3,211.7,6,210,6z M212,30H8V9
	c0-1.14,0.86-2,2-2h200c1.141,0,2,0.86,2,2V30z"/>
</svg>
