<?xml version="1.0" encoding="utf-8"?>
<!-- Generator: Adobe Illustrator 17.1.0, SVG Export Plug-In . SVG Version: 6.00 Build 0)  -->
<!DOCTYPE svg PUBLIC "-//W3C//DTD SVG 1.1//EN" "http://www.w3.org/Graphics/SVG/1.1/DTD/svg11.dtd" [
	<!ENTITY ns_extend "http://ns.adobe.com/Extensibility/1.0/">
	<!ENTITY ns_ai "http://ns.adobe.com/AdobeIllustrator/10.0/">
	<!ENTITY ns_graphs "http://ns.adobe.com/Graphs/1.0/">
	<!ENTITY ns_vars "http://ns.adobe.com/Variables/1.0/">
	<!ENTITY ns_imrep "http://ns.adobe.com/ImageReplacement/1.0/">
	<!ENTITY ns_sfw "http://ns.adobe.com/SaveForWeb/1.0/">
	<!ENTITY ns_custom "http://ns.adobe.com/GenericCustomNamespace/1.0/">
	<!ENTITY ns_adobe_xpath "http://ns.adobe.com/XPath/1.0/">
]>
<svg version="1.1" id="图层_1" xmlns:x="&ns_extend;" xmlns:i="&ns_ai;" xmlns:graph="&ns_graphs;"
	 xmlns="http://www.w3.org/2000/svg" xmlns:xlink="http://www.w3.org/1999/xlink" x="0px" y="0px" width="350px" height="250px"
	 viewBox="0 0 350 250" enable-background="new 0 0 350 250" xml:space="preserve">
<metadata><?xpacket begin="﻿" id="W5M0MpCehiHzreSzNTczkc9d"?>
<x:xmpmeta xmlns:x="adobe:ns:meta/" x:xmptk="Adobe XMP Core 5.5-c014 79.151739, 2013/04/03-12:12:15        ">
   <rdf:RDF xmlns:rdf="http://www.w3.org/1999/02/22-rdf-syntax-ns#">
      <rdf:Description rdf:about=""
            xmlns:dc="http://purl.org/dc/elements/1.1/"
            xmlns:xmp="http://ns.adobe.com/xap/1.0/"
            xmlns:xmpGImg="http://ns.adobe.com/xap/1.0/g/img/"
            xmlns:xmpMM="http://ns.adobe.com/xap/1.0/mm/"
            xmlns:stRef="http://ns.adobe.com/xap/1.0/sType/ResourceRef#"
            xmlns:stEvt="http://ns.adobe.com/xap/1.0/sType/ResourceEvent#"
            xmlns:illustrator="http://ns.adobe.com/illustrator/1.0/"
            xmlns:xmpTPg="http://ns.adobe.com/xap/1.0/t/pg/"
            xmlns:stDim="http://ns.adobe.com/xap/1.0/sType/Dimensions#"
            xmlns:xmpG="http://ns.adobe.com/xap/1.0/g/"
            xmlns:pdf="http://ns.adobe.com/pdf/1.3/">
         <dc:format>image/svg+xml</dc:format>
         <dc:title>
            <rdf:Alt>
               <rdf:li xml:lang="x-default">Web</rdf:li>
            </rdf:Alt>
         </dc:title>
         <xmp:CreatorTool>Adobe Illustrator CC (Windows)</xmp:CreatorTool>
         <xmp:CreateDate>2014-08-21T16:25:52+08:00</xmp:CreateDate>
         <xmp:ModifyDate>2014-08-21T16:25:52+08:00</xmp:ModifyDate>
         <xmp:MetadataDate>2014-08-21T16:25:52+08:00</xmp:MetadataDate>
         <xmp:Thumbnails>
            <rdf:Alt>
               <rdf:li rdf:parseType="Resource">
                  <xmpGImg:width>256</xmpGImg:width>
                  <xmpGImg:height>184</xmpGImg:height>
                  <xmpGImg:format>JPEG</xmpGImg:format>
                  <xmpGImg:image>/9j/4AAQSkZJRgABAgEASABIAAD/7QAsUGhvdG9zaG9wIDMuMAA4QklNA+0AAAAAABAASAAAAAEA&#xA;AQBIAAAAAQAB/+4ADkFkb2JlAGTAAAAAAf/bAIQABgQEBAUEBgUFBgkGBQYJCwgGBggLDAoKCwoK&#xA;DBAMDAwMDAwQDA4PEA8ODBMTFBQTExwbGxscHx8fHx8fHx8fHwEHBwcNDA0YEBAYGhURFRofHx8f&#xA;Hx8fHx8fHx8fHx8fHx8fHx8fHx8fHx8fHx8fHx8fHx8fHx8fHx8fHx8fHx8f/8AAEQgAuAEAAwER&#xA;AAIRAQMRAf/EAaIAAAAHAQEBAQEAAAAAAAAAAAQFAwIGAQAHCAkKCwEAAgIDAQEBAQEAAAAAAAAA&#xA;AQACAwQFBgcICQoLEAACAQMDAgQCBgcDBAIGAnMBAgMRBAAFIRIxQVEGE2EicYEUMpGhBxWxQiPB&#xA;UtHhMxZi8CRygvElQzRTkqKyY3PCNUQnk6OzNhdUZHTD0uIIJoMJChgZhJRFRqS0VtNVKBry4/PE&#xA;1OT0ZXWFlaW1xdXl9WZ2hpamtsbW5vY3R1dnd4eXp7fH1+f3OEhYaHiImKi4yNjo+Ck5SVlpeYmZ&#xA;qbnJ2en5KjpKWmp6ipqqusra6voRAAICAQIDBQUEBQYECAMDbQEAAhEDBCESMUEFURNhIgZxgZEy&#xA;obHwFMHR4SNCFVJicvEzJDRDghaSUyWiY7LCB3PSNeJEgxdUkwgJChgZJjZFGidkdFU38qOzwygp&#xA;0+PzhJSktMTU5PRldYWVpbXF1eX1RlZmdoaWprbG1ub2R1dnd4eXp7fH1+f3OEhYaHiImKi4yNjo&#xA;+DlJWWl5iZmpucnZ6fkqOkpaanqKmqq6ytrq+v/aAAwDAQACEQMRAD8A9NyTszHeg7YpWc28cCu5&#xA;v44q3zfxxQ7m/jhV3N/HFXc38cVdzbxxS7m3jirubeOKu5t44Fb5t44q7m3jhV3NvHFXc28cVdzb&#xA;xxV3NvHFXc28cCt828cVdybxxV3JvHCruTeOKu5N44q7m3jih3NvHFLfNvHFXc28cCu5t44q7k3j&#xA;hV3JvHFXcm8cVXJKyt44oQ+BLsVdhV1cVdXFXVwK3XFXYq7FXYq7CrsVdXFW64q6uBXVxV2KuxV2&#xA;FXYq3XFXVxV1cCurireKuwq7FXYq7FDq4pdXFW64FUa4q6uKurirsVdireKuxV2Kuwq6uKurirq4&#xA;FbxV2KuxV2Kuwq7FXVxVuuKurgV2KuxV2FXYq3irq4q6uKurgV2Kt4q7CqjXArsVdirsVdirsVbr&#xA;irq4q6uKuxVvFXYq7FXYVdirq064FdXFW64q7FWiTQkde2JVLvVk58uR5Zh8Ru22gmQrQV65mNTs&#xA;KuxV1cVbrgV1cVdirsVdhV2Kt4qo4FdirsVdirq4q3XFXVxV2KuxV2KuxVvFXVxV1cVdXFUJds3q&#xA;BewGwzHzHdsg3Zs3Mr+zSuOE7rNF5kNbsVdhVb6acuXEcvHI8Iu1tdXJK6uBW64q7FXYq7FXYVdi&#xA;rq4q6uBWhJGTQMK+FRg4gtKeFXYq6uKurirdcVdirsVdirsVdirq4q3XFXVxV2KuxVa8aP8AaHTo&#xA;cjKIPNINOVI41NNh3OIAitkqf1tK9DTxyHjBPArKwYAjcHLQbYt1xV1cVWmWMGhYA5EzATRXAgio&#xA;NR45IFDeKuxV2FVrSxp9pgvzNMBISASs+uW3+/BkeIJ4C2tzA3SRSfCuESCDEqtcKEDczMzlQfhX&#xA;b55jZJ2abIhRypkjq5nNLq4q7FW8VdirsVdirsVdXFXVxVvFXYq7FXYq7FXVxVTuKmI0+nIZfpZR&#xA;5oPMRsRdrURb9ztmViGzXLmrZYxU53KxEjr0yGQ0ExG6CzEbVe1ch+PY5dhlvTGYRdcyGtRnuo4R&#xA;8Rq3ZR1yMpAMowJS+a+nk2B4L4L/AFykzJb44wEP1yLNrFXYqqxXE0X2GIHh1H3YRIhiYgqqzhzv&#xA;sxyBDExpfkWKNzOaXYq7FW8Vdirq4q6uKuxV2Kt4q7FXYq7FXVxV1cVa9RK05Cvhg4hyTS7ChT9C&#xA;KteOQ8OKeItmSNduQFO2HjAWiuDAioNRkgbQ1IodCp74JCxSQaQhglBpxr7jMU4y2cQV7eEoeTde&#xA;wy7HjrcsJStq7uhCm27t0H8cnOVJhC0rZmZizGpPU5jkuSAtxV2KuxV2KuxV2Kom2kQuElJAPRsR&#xA;EXu1zj3JhmU47sVbrirq4q6uKuxV2KuxV2Kt4q6uKurirq4q7FXHoadcSqC4PypQ1zD4TdN1o0Vo&#xA;K9czA0qNxIR8A79cpyz6M4hD5js1yOyNUfSMlGVFBFo0GoBHQ5mAtTdcVWu6qpY9AKnEqBaTyyNJ&#xA;IXbqf1ZjE2XLiKCzAl2KuxV2KuxV2KuxV2KpxXMpw3VxVvFXYq7FXYq7FXYq3XFXVxV2KuxV2Kux&#xA;V2Kt4q6uKoa4B517EZjZhu2R5KWVMnYqjUFEUdwMzYig0ldhVCahJSIIP2jv8hleQ7NuIbpdlLe7&#xA;FXYq7FXYq7FXYq7FXYqm9cynDbrirsVdirsVdirq4q3XFXYq7FXYq7FXYq7FW64q6uKuxVa6K4of&#xA;oyMoghINKJt3rsQRlJwlnxr44Apq25ycMVc2JkrZaxdiqX6i1ZVHgv6zlOXm34hshMrbXYq7FXYq&#xA;7FXYq7FXYq7FU3zKcN2KuxV2Kurirq4q6uKt4q7FXYq7FXYq6uKt1xV2KuxVSllZWoMpyZCDQZxi&#xA;vjfktT1yyErDEil2SQ3XFVEzP6vHtWlMoOQ8VM+EUqs6qKnLpSAYgWldxL6snKlB0GY8pW5MI0FL&#xA;AydirsVdirsVdirsVdirsVTXMpw264q6uKurirq4q7FW8VdirsVdirq4q6uKt1xV2KuxV2KrWRW6&#xA;5GUAeaQaXAACg6YQAEFTllK7DrleTJXJlGNtRzEtRu/fIwykmikxVGZVHI5bIgbsQLQs8jFSx+gZ&#xA;jGRkW2IQWFudirsVdirsVdirsVdirsVdiqZ88ynDdzGKt8sVdyxV3LFXcsVdyxV3PFXc8Vb54q7l&#xA;iruWKu5Yq7liruWKu54q3zxV3PFVOUFjUdfDKskCdwyjJYikHk2wG+VxgRuWRk00hkb9QyJJkUjZ&#xA;bdNGkPD9tun0ZaYiIpYWTaC5ZW3u5Yq7liruWKu5Yq7liruWKu5Yq7liruWKo7lmU4buWKu5Yq7l&#xA;iruWKt88VdzxV3LFXcsVdyxV3LFXcsVdyxVvlirueKu5Yq7liruWKt8sVUJZamg6DMfLO9myIXBh&#xA;EhdvDfLIR4RZQdzSAkmaRyzdTlRNuQI0FvLAl3LFXcsVdyxV3LFXcsVdyxV3LFXcsVdyxVGc8ynD&#xA;dzxV3qYq71MVb5jFXc8VdzxV3PFXc8VdzxV3PFW+eKu54q7nirueKu54q7nirTy8RXIzlQSBaz6w&#xA;aHx7ZV4pplwtRGpqegyOKNm0yKnez9EHzOWZD0ZYh1QnPKm53PFXc8VdzxV3PFXc8VdzxVeqs3sP&#xA;E4LYmSoIh3OC0cTvSTxONo4lrRHsa4bTxK3PMtxncxiruWKt8sVdyxV3LFXcsVdzxV3PFXc8Vb5Y&#xA;q7liruWKu5Yq7lirueKu54q5iCKHBKIISDSkzAGgzGkANmYVENFGX4xQYSO6BnkrMx96fdtlUubk&#xA;Q5LOWRZO5Yq7liruWKu5Yq7liqtGgG7dewyJLAyVeeBi7nirueKu54qmv6MtvF/vH9MzWl36MtvF&#xA;/vH9MVd+jLbxf7x/TFXfo228X+8f0xV36NtvF/vH9MVd+jbbxf7x/TFXfo228X+8f0xV36NtvF/v&#xA;H9MVd+jbbxf7x/TFXfo228X+8f0xV36NtvF/vH9MVd+jbbxf7x/TFXfo638X+8f0xV36Ot/F/vH9&#xA;MVd+jrfxf7x/TFXfo638X+8f0xV36Ot/F/vH9MVd+jrfxf7x/TFVp0q18X+8f0ys4wy4l36Ot/F/&#xA;vH9MsYqTaJZMxJaSpNTuP6ZAwDMZC1+g7L+aT7x/THwwnxS79B2X80n3j+mPhhfFLv0HZfzSfeP6&#xA;Y+GF8Uu/Qdl/NJ94/pj4YXxS79B2X80n3j+mPhhfFLY0SyBrWTb3H9MfDCPEK/8ARVr4v94/pg8I&#xA;I4i79FWvi/3j+mPhBeIu/RVr4v8AeP6Y+EF4i79FWvi/3j+mPhBeIu/RVr4v94/pj4QXiKLrljF1&#xA;cVdXFXVxV1cVdXFXVxV1cVdXFXVxV1cVdXFXVxV1cVdXFXVxV1cVdXFXVxV1cVdXFXVxV1cVdXFX&#xA;VxV1cVdXFXVxV1cVdXFXVxV1cVW1xV1cVdXFXVxV1cVdXFXVxV1cVdXFXVxV1cVdXFXVxV1cVdXF&#xA;XVxV1cVdXFXVxV1cVdXFXVxV1cVdXFXVxV1cVdXFXVxV1cVdXFXVxV1cVW1xV1cVdXFXVxV1cVdX&#xA;FXVxV1cVdXFXVxV1cVdXFXVxV1cVdXFXVxV1cVdXFXVxV1cVdXFXVxV1cVdXFXVxV1cVdXFXVxV1&#xA;cVdXFXVxV1cVW1xV1cVdXFXVxV1cVdXFXVxV1cVdXFXVxV1cVdXFXVxV1cVdXFXVxV1cVdXFXVxV&#xA;1cVdXFXVxV1cVdXFXVxV1cVdXFXVxV1cVdXFXVxV1cVRFxYzRuQql0/ZYCu3vTFVH0Jv99t9xxV3&#xA;oTf77b7jirvQm/3233HFXehN/vtvuOKu9Cb/AH233HFXehN/vtvuOKu9Cb/fbfccVd6E3++2+44q&#xA;70Jv99t9xxV3oTf77b7jirvQm/3233HFXehN/vtvuOKu9Cb/AH233HFXehN/vtvuOKu9Cb/fbfcc&#xA;Vd6E3++2+44q70Jv99t9xxV3oTf77b7jirvQm/3233HFXehN/vtvuOKu9Cb/AH233HFXehN/vtvu&#xA;OKu9Cb/fbfccVd6E3++2+44q70Jv99t9xxV3oTf77b7jirvQm/3233HFXehN/vtvuOKu9Cb/AH23&#xA;3HFXehN/vtvuOKq1vYzSOAylE/aYim3tXFX/2Q==</xmpGImg:image>
               </rdf:li>
            </rdf:Alt>
         </xmp:Thumbnails>
         <xmpMM:RenditionClass>proof:pdf</xmpMM:RenditionClass>
         <xmpMM:OriginalDocumentID>uuid:65E6390686CF11DBA6E2D887CEACB407</xmpMM:OriginalDocumentID>
         <xmpMM:DocumentID>xmp.did:1495aaf8-efd6-4148-9077-f6d939e02f45</xmpMM:DocumentID>
         <xmpMM:InstanceID>xmp.iid:1495aaf8-efd6-4148-9077-f6d939e02f45</xmpMM:InstanceID>
         <xmpMM:DerivedFrom rdf:parseType="Resource">
            <stRef:instanceID>uuid:d9ab81bc-9707-4a3a-9896-69bb3f07e909</stRef:instanceID>
            <stRef:documentID>xmp.did:f87044e2-516c-f643-a7b1-467833dbb44b</stRef:documentID>
            <stRef:originalDocumentID>uuid:65E6390686CF11DBA6E2D887CEACB407</stRef:originalDocumentID>
            <stRef:renditionClass>proof:pdf</stRef:renditionClass>
         </xmpMM:DerivedFrom>
         <xmpMM:History>
            <rdf:Seq>
               <rdf:li rdf:parseType="Resource">
                  <stEvt:action>saved</stEvt:action>
                  <stEvt:instanceID>xmp.iid:1495aaf8-efd6-4148-9077-f6d939e02f45</stEvt:instanceID>
                  <stEvt:when>2014-08-21T16:25:52+08:00</stEvt:when>
                  <stEvt:softwareAgent>Adobe Illustrator CC (Windows)</stEvt:softwareAgent>
                  <stEvt:changed>/</stEvt:changed>
               </rdf:li>
            </rdf:Seq>
         </xmpMM:History>
         <illustrator:StartupProfile>Web</illustrator:StartupProfile>
         <xmpTPg:NPages>1</xmpTPg:NPages>
         <xmpTPg:HasVisibleTransparency>True</xmpTPg:HasVisibleTransparency>
         <xmpTPg:HasVisibleOverprint>False</xmpTPg:HasVisibleOverprint>
         <xmpTPg:MaxPageSize rdf:parseType="Resource">
            <stDim:w>350.000000</stDim:w>
            <stDim:h>250.000000</stDim:h>
            <stDim:unit>Pixels</stDim:unit>
         </xmpTPg:MaxPageSize>
         <xmpTPg:PlateNames>
            <rdf:Seq>
               <rdf:li>Cyan</rdf:li>
               <rdf:li>Magenta</rdf:li>
               <rdf:li>Yellow</rdf:li>
               <rdf:li>Black</rdf:li>
            </rdf:Seq>
         </xmpTPg:PlateNames>
         <xmpTPg:SwatchGroups>
            <rdf:Seq>
               <rdf:li rdf:parseType="Resource">
                  <xmpG:groupName>默认色板组</xmpG:groupName>
                  <xmpG:groupType>0</xmpG:groupType>
               </rdf:li>
            </rdf:Seq>
         </xmpTPg:SwatchGroups>
         <pdf:Producer>Adobe PDF library 10.01</pdf:Producer>
      </rdf:Description>
   </rdf:RDF>
</x:xmpmeta>
                                                                                                    
                                                                                                    
                                                                                                    
                                                                                                    
                                                                                                    
                                                                                                    
                                                                                                    
                                                                                                    
                                                                                                    
                                                                                                    
                                                                                                    
                                                                                                    
                                                                                                    
                                                                                                    
                                                                                                    
                                                                                                    
                                                                                                    
                                                                                                    
                                                                                                    
                                                                                                    
                           
<?xpacket end="w"?>
	</metadata>
<path fill="#E7E5E4" d="M350,240.2c0,5.523-4.477,10-10,10H10c-5.523,0-10-4.477-10-10v-230c0-5.523,4.477-10,10-10h330
	c5.523,0,10,4.477,10,10V240.2z"/>
<linearGradient id="SVGID_1_" gradientUnits="userSpaceOnUse" x1="148.6217" y1="-105.2013" x2="201.3783" y2="-404.3987" gradientTransform="matrix(1 0 0 1 0 380)">
	<stop  offset="0.2" style="stop-color:#FFFFFF;stop-opacity:0"/>
	<stop  offset="1" style="stop-color:#FFFFFF"/>
</linearGradient>
<path opacity="0.6" fill="url(#SVGID_1_)" enable-background="new    " d="M350,240.2c0,5.523-4.477,10-10,10H10
	c-5.523,0-10-4.477-10-10v-230c0-5.523,4.477-10,10-10h330c5.523,0,10,4.477,10,10V240.2z"/>
<path opacity="0.25" fill="#FFFFFF" enable-background="new    " d="M340,0.2H10c-5.523,0-10,4.477-10,10v2c0-5.523,4.477-10,10-10
	h330c5.523,0,10,4.477,10,10v-2C350,4.677,345.523,0.2,340,0.2z"/>
<path opacity="0.25" fill="#FFFFFF" enable-background="new    " d="M340,0.2H10c-5.523,0-10,4.477-10,10v1c0-5.523,4.477-10,10-10
	h330c5.523,0,10,4.477,10,10v-1C350,4.677,345.523,0.2,340,0.2z"/>
<g>
	<path fill="#E9D4C7" d="M349.897,87.725c-10.832-14.269-27.913-24.06-46.765-24.06c-32.392,0-58.639,25.101-58.639,59.993
		c0,0.833,0.104,1.562,0.104,2.396c0,0,0,0.104-0.104,0.104v-1.042c-6.041,3.229-4.687,9.686-4.687,9.686s-2.812,1.146-2.5,8.332
		c0.104,1.666,0.521,3.229,1.146,4.895c-8.957,9.895-24.164,30.934-15.727,53.535c1.875,4.583,9.27-0.729,15.206-11.561
		c2.396,8.02,6.562,15.415,12.186,21.768c-3.854,1.146-7.291,3.125-9.79,6.145c-1.771,2.187-2.604,4.166-1.354,4.999
		c-1.771,1.458-2.291,4.27-1.771,6.978h112.694V87.725H349.897z"/>
	<path fill="#EBE2CB" d="M175.856,91.787c0,3.437-2.812,6.249-6.249,6.249s-6.249-2.812-6.249-6.249s2.812-6.249,6.249-6.249
		S175.856,88.35,175.856,91.787z M343.335,53.563c-7.812,0-14.061,6.249-14.061,14.061c0,0.937,0.104,1.875,0.312,2.708
		c5.624,2.916,10.624,6.77,15.102,11.249c1.875-0.208,3.645-0.729,5.312-1.562V55.125C347.918,54.083,345.731,53.563,343.335,53.563
		z M348.647,86.059c0.417,0.521,0.833,1.042,1.25,1.666v-2.083C349.48,85.85,349.064,85.954,348.647,86.059z M237.307,63.666
		c-6.041,0-10.936,4.895-10.936,10.936s4.895,10.936,10.936,10.936s10.936-4.895,10.936-10.936S243.348,63.666,237.307,63.666z
		 M204.811,85.538c-8.541,0-15.415,6.874-15.415,15.415s6.874,15.415,15.415,15.415s15.415-6.874,15.415-15.415
		S213.351,85.538,204.811,85.538z M198.457,168.34c-3.229,0-5.728,2.604-5.728,5.728c0,3.125,2.604,5.728,5.728,5.728
		c3.125,0,5.728-2.604,5.728-5.728C204.186,170.944,201.686,168.34,198.457,168.34z M208.977,134.49
		c-4.479,0-8.124,3.645-8.124,8.124c0,4.479,3.645,8.124,8.124,8.124c4.479,0,8.124-3.645,8.124-8.124
		C217.101,138.135,213.456,134.49,208.977,134.49z M183.98,123.554c-3.02,0-5.52,2.5-5.52,5.52s2.5,5.52,5.52,5.52
		s5.52-2.5,5.52-5.52C189.396,126.054,187,123.554,183.98,123.554z M224.079,33.461c-3.333,0-6.041,2.708-6.041,6.041
		s2.708,6.041,6.041,6.041s6.041-2.708,6.041-6.041C230.016,36.169,227.412,33.461,224.079,33.461z M174.814,43.356
		c-4.062,0-7.291,3.229-7.291,7.291s3.229,7.291,7.291,7.291s7.291-3.229,7.291-7.291C182.105,46.688,178.876,43.356,174.814,43.356
		z M224.496,123.554c-2.291,0-4.166,1.875-4.166,4.166s1.875,4.166,4.166,4.166s4.166-1.875,4.166-4.166
		S226.787,123.554,224.496,123.554z M191.792,61.062c-4.999,0-9.166,4.062-9.166,9.166c0,4.999,4.062,9.166,9.166,9.166
		c4.999,0,9.166-4.062,9.166-9.166C200.853,65.124,196.791,61.062,191.792,61.062z M349.897,172.61
		c-5.833-2.708-12.186-4.27-19.06-4.27c-24.893,0-45.099,20.206-45.099,45.099c0,5.833,1.146,11.457,3.125,16.56h61.034V172.61z
		 M277.614,209.064c-13.019,4.687-25.309,7.187-35.829,7.395c-14.269,0.312-25.309-3.437-30.621-11.874
		c-9.478-14.998,1.771-40.203,26.143-63.95c0.312-4.895,2.396-5.728,2.396-5.728s-1.354-6.458,4.687-9.686v1.042
		c0,0,0-0.104,0.104-0.104c0-0.833-0.104-1.562-0.104-2.396c0-0.104,0-0.208,0-0.312c-17.914,15.102-31.559,31.559-39.787,47.702
		c0.312,0.937,0.521,1.875,0.521,2.916c0,3.645-2.187,6.666-5.208,8.124c-5.208,14.894-5.416,29.267,0.312,41.766
		c0.937,2.083,2.083,4.166,3.333,6.041h76.553c-1.666-5.208-2.604-10.728-2.604-16.56
		C277.406,211.98,277.51,210.522,277.614,209.064z"/>
</g>
<path fill="#E7E5E4" d="M0,240.2c0,4.84,3.438,8.875,8.005,9.8h333.989c4.567-0.925,8.005-4.96,8.005-9.8V190H0V240.2z"/>
<linearGradient id="SVGID_2_" gradientUnits="userSpaceOnUse" x1="174.9995" y1="230" x2="174.9995" y2="290" gradientTransform="matrix(1 0 0 -1 0 480)">
	<stop  offset="0.2" style="stop-color:#FFFFFF;stop-opacity:0"/>
	<stop  offset="1" style="stop-color:#FFFFFF"/>
</linearGradient>
<path opacity="0.25" fill="url(#SVGID_2_)" enable-background="new    " d="M0,240.2c0,4.84,3.438,8.875,8.005,9.8h333.989
	c4.567-0.925,8.005-4.96,8.005-9.8V190H0V240.2z"/>
<rect y="190" opacity="0.1" fill="#FFFFFF" enable-background="new    " width="350" height="2"/>
<linearGradient id="SVGID_3_" gradientUnits="userSpaceOnUse" x1="175" y1="290" x2="175" y2="380" gradientTransform="matrix(1 0 0 -1 0 480)">
	<stop  offset="0" style="stop-color:#000000;stop-opacity:0.4"/>
	<stop  offset="0.5" style="stop-color:#000000;stop-opacity:0"/>
</linearGradient>
<rect y="100" opacity="0.2" fill="url(#SVGID_3_)" enable-background="new    " width="350" height="90"/>
<rect fill="none" width="350" height="250"/>
</svg>
