<?xml version="1.0" encoding="utf-8"?>
<!-- Generator: Adobe Illustrator 17.1.0, SVG Export Plug-In . SVG Version: 6.00 Build 0)  -->
<!DOCTYPE svg PUBLIC "-//W3C//DTD SVG 1.1//EN" "http://www.w3.org/Graphics/SVG/1.1/DTD/svg11.dtd" [
	<!ENTITY ns_extend "http://ns.adobe.com/Extensibility/1.0/">
	<!ENTITY ns_ai "http://ns.adobe.com/AdobeIllustrator/10.0/">
	<!ENTITY ns_graphs "http://ns.adobe.com/Graphs/1.0/">
	<!ENTITY ns_vars "http://ns.adobe.com/Variables/1.0/">
	<!ENTITY ns_imrep "http://ns.adobe.com/ImageReplacement/1.0/">
	<!ENTITY ns_sfw "http://ns.adobe.com/SaveForWeb/1.0/">
	<!ENTITY ns_custom "http://ns.adobe.com/GenericCustomNamespace/1.0/">
	<!ENTITY ns_adobe_xpath "http://ns.adobe.com/XPath/1.0/">
]>
<svg version="1.1" id="图层_1" xmlns:x="&ns_extend;" xmlns:i="&ns_ai;" xmlns:graph="&ns_graphs;"
	 xmlns="http://www.w3.org/2000/svg" xmlns:xlink="http://www.w3.org/1999/xlink" x="0px" y="0px" width="150px" height="30px"
	 viewBox="0 0 150 30" enable-background="new 0 0 150 30" xml:space="preserve">
<metadata><?xpacket begin="﻿" id="W5M0MpCehiHzreSzNTczkc9d"?>
<x:xmpmeta xmlns:x="adobe:ns:meta/" x:xmptk="Adobe XMP Core 5.5-c014 79.151739, 2013/04/03-12:12:15        ">
   <rdf:RDF xmlns:rdf="http://www.w3.org/1999/02/22-rdf-syntax-ns#">
      <rdf:Description rdf:about=""
            xmlns:dc="http://purl.org/dc/elements/1.1/"
            xmlns:xmp="http://ns.adobe.com/xap/1.0/"
            xmlns:xmpGImg="http://ns.adobe.com/xap/1.0/g/img/"
            xmlns:xmpMM="http://ns.adobe.com/xap/1.0/mm/"
            xmlns:stRef="http://ns.adobe.com/xap/1.0/sType/ResourceRef#"
            xmlns:stEvt="http://ns.adobe.com/xap/1.0/sType/ResourceEvent#"
            xmlns:illustrator="http://ns.adobe.com/illustrator/1.0/"
            xmlns:xmpTPg="http://ns.adobe.com/xap/1.0/t/pg/"
            xmlns:stDim="http://ns.adobe.com/xap/1.0/sType/Dimensions#"
            xmlns:xmpG="http://ns.adobe.com/xap/1.0/g/"
            xmlns:pdf="http://ns.adobe.com/pdf/1.3/">
         <dc:format>image/svg+xml</dc:format>
         <dc:title>
            <rdf:Alt>
               <rdf:li xml:lang="x-default">Web</rdf:li>
            </rdf:Alt>
         </dc:title>
         <xmp:CreatorTool>Adobe Illustrator CC (Windows)</xmp:CreatorTool>
         <xmp:CreateDate>2014-08-23T01:17:38+08:00</xmp:CreateDate>
         <xmp:ModifyDate>2014-08-23T01:17:38+08:00</xmp:ModifyDate>
         <xmp:MetadataDate>2014-08-23T01:17:38+08:00</xmp:MetadataDate>
         <xmp:Thumbnails>
            <rdf:Alt>
               <rdf:li rdf:parseType="Resource">
                  <xmpGImg:width>256</xmpGImg:width>
                  <xmpGImg:height>52</xmpGImg:height>
                  <xmpGImg:format>JPEG</xmpGImg:format>
                  <xmpGImg:image>/9j/4AAQSkZJRgABAgEASABIAAD/7QAsUGhvdG9zaG9wIDMuMAA4QklNA+0AAAAAABAASAAAAAEA&#xA;AQBIAAAAAQAB/+4ADkFkb2JlAGTAAAAAAf/bAIQABgQEBAUEBgUFBgkGBQYJCwgGBggLDAoKCwoK&#xA;DBAMDAwMDAwQDA4PEA8ODBMTFBQTExwbGxscHx8fHx8fHx8fHwEHBwcNDA0YEBAYGhURFRofHx8f&#xA;Hx8fHx8fHx8fHx8fHx8fHx8fHx8fHx8fHx8fHx8fHx8fHx8fHx8fHx8fHx8f/8AAEQgANAEAAwER&#xA;AAIRAQMRAf/EAaIAAAAHAQEBAQEAAAAAAAAAAAQFAwIGAQAHCAkKCwEAAgIDAQEBAQEAAAAAAAAA&#xA;AQACAwQFBgcICQoLEAACAQMDAgQCBgcDBAIGAnMBAgMRBAAFIRIxQVEGE2EicYEUMpGhBxWxQiPB&#xA;UtHhMxZi8CRygvElQzRTkqKyY3PCNUQnk6OzNhdUZHTD0uIIJoMJChgZhJRFRqS0VtNVKBry4/PE&#xA;1OT0ZXWFlaW1xdXl9WZ2hpamtsbW5vY3R1dnd4eXp7fH1+f3OEhYaHiImKi4yNjo+Ck5SVlpeYmZ&#xA;qbnJ2en5KjpKWmp6ipqqusra6voRAAICAQIDBQUEBQYECAMDbQEAAhEDBCESMUEFURNhIgZxgZEy&#xA;obHwFMHR4SNCFVJicvEzJDRDghaSUyWiY7LCB3PSNeJEgxdUkwgJChgZJjZFGidkdFU38qOzwygp&#xA;0+PzhJSktMTU5PRldYWVpbXF1eX1RlZmdoaWprbG1ub2R1dnd4eXp7fH1+f3OEhYaHiImKi4yNjo&#xA;+DlJWWl5iZmpucnZ6fkqOkpaanqKmqq6ytrq+v/aAAwDAQACEQMRAD8A9U4qlmu+ZNI0SAS383Fm&#xA;/u4V+KR6fyr/ABO2Yup1mPALmfh1cvSaLJnNQHx6MIu/zhPMi0034P2Xlk3PzVV/jmln7QfzYfMu&#xA;+x+ze3qn8gr6f+b9o8gS/sHgQn+9icSU+akJ+vJ4u34k+uNe7drzezkgLhK/eKZ1p2pWOo2qXdlM&#xA;s8D9HXx8COoPsc3uLNHJHiibDz+bBPFLhmKKJyxqY/5i88aJobejO7T3f/LNDQsP9ckgL+vNfq+0&#xA;sWDY7y7g7LR9lZdRuNo95YlJ+cVwX/d6WgSvRpSTT5hRmpPtAb2h9v7Hcx9m41vP7P2pro/5r6Pd&#xA;SLFqED2LNsJa+rHX3ICsPuzK0/buORqY4ftDh6n2fywFwPH9hZtHJHLGskbB43AZHUgqQdwQR1zd&#xA;ggiw6GUSDR5rsKHYq7FXYq7FXYq7FXYq7FXYq7FXYq7FXYq7FXYq7FXYq7FXYq7FXYqh9RvoLCwu&#xA;L2c0it42kbxPEVoPc9BlebKMcDI8gG3DiOSYgOZLw4fpbzZ5iAJ53V25pU/BHGN/oVF/zrnEfvNX&#xA;m/pS+wfse+/d6PB/Rj9p/WXp2l/lp5Ys4FW4gN7PT45pWYAn2RSFAzpsHY+CA3HEfN5TP23qJn0n&#xA;hHcP1oHzD+V2k3Fs8mkKbS7UEpFyLRuR2PIkrXxrlGr7FxyjeP0y+wt+j7eyRlWX1R+0MK8meYrn&#xA;y/rixTlktJX9G9hboprx507FD+GaXs7Vy0+Wj9J2P48nfdp6OOoxWPqAuJ/He9R86eYDoehS3MVP&#xA;rUpENsDvR2B+Kn+SATnT9o6vwMRkPqOweS7M0fj5hE/SNy8q8qeWLzzNqcnOVlgjPqXlyfiark7C&#xA;vVm365y2h0UtTM2dup/HV6/tDXR0uMUNz9I/HQPT7f8ALzyjDCIzYiU0+KSR3LH32IA+gZ08OydP&#xA;EVw383lJ9s6mRvir3AMS86flvb2VnJqWj8vShHKe0YlqIOrIx3+HuDXNT2j2QIRM8fIcx+p3HZnb&#xA;Uskhjy8zyP62vys8yzR3h0O4blBMGe0r+y4HJlHswqfn88HYmsIl4R5Hknt/Qgx8aPMc/c9RzqHk&#xA;nYq7FXYq7FXYq7FXYq7FXYq7FXYq7FXYq7FXYq7FXYq7FUFq2taXpNuJ9QuFgjJotalmPgqirH6B&#xA;lGfU48QuZpv0+lyZpVAWUq078wPK1/cC3ju/TlY8UEytGGPsx+H7zmLi7VwTNCVHzczN2RqMceIx&#xA;seW7Is2LrGKfmfcNF5TmRTT1pYoz7jlz/wCNc1XbU6058yHcdhQvUg9wLGPyft421HUJyPjjhRFP&#xA;s7En/iAzV9gRHHI9wdr7RzIhAd5+7+16lnUvJOxV4f8AmFax23m6/WMUWQpLT3kRWb72JOcR2tAR&#xA;1Eq9/wAw992PkMtNG+m3yKb/AJi3k0+jeWi52ltfWf3Zkj65l9rZDLHi8439gcLsbEI5c1dJV9pZ&#xA;P+VNvHH5ZaVR8c1w7Of9UBQPwzZ9hwAwX3yLqvaCZOoruiGZZuXRrZI0kjaORQyOCrqehBFCMBAI&#xA;opiSDYeC6KWsvNVkENTDeolfECQKfvGcHp/RnjXSY+99D1X7zTyvrA/c98zvXzt2KpfrHmDR9GjS&#xA;TUrkQCUkRijMzU60VQx+nMfUavHhFzNW5Om0eXOSMYukTY31rfWkV3av6lvMOUb0Zajp0YA5Ziyx&#xA;nESjyLVlxSxyMZbSCvljW7FXYq7FXYqhdV1K20zT5r+55ehAAz8BVtyBsNu5yrPmjigZy5Bu0+CW&#xA;WYhHmVSyu4ryyt7yIERXMaTRhtjxdQwr13ocljyCcRIciLY5cZhMxPOJr5K2Ta3Yq7FXYqtjljkX&#xA;lG4ddxyUgio2PTACDySYkc12FDsVdiry7U7VNY8x6tqOqOJbDSROkdgklJSLdR+z1VGJqW8c5fND&#xA;xs055N4Y79N7+n9Hm9ZgyeDgxwx7TycPqrb1fp8kut9XsdX0XV7FdPi05o4PrMb2kTMregQQkuzk&#xA;dft1X3zHhqI5cU4cIhtfpHd38/ns5U9NPDlxz4jOzw+o9/dy+W/kz78vNSuL/wAr2z3DF5YWaHme&#xA;rKh+H/hTTN92TmOTACeY2ed7ZwRx6giPI7u/MOxku/Kd4IxV4eM4HtGwLf8AC1OPa2Iz08q6b/Je&#xA;xsohqY312+bB/wAqNTittdmtJWCi9ipGT3kjNQPpUtmk7DzCOUxP8Q+0O/8AaDAZYRIfwn7C9Znm&#xA;ighknlYJFEpeRz0CqKk/dnVykIgk8g8dGJkQBzKX6R5m0LV6iwu0lcCpiNUkAHfgwDU98x8GsxZf&#xA;olbk6jQ5sP1xI+75vGvN2oLq3mi9uLf94kkgig478ggEalf9bjXOO1+Xxc8jHezQ+57fs7D4OnjG&#xA;W1Cz8d2V/mbo8ltoeiOBVLJPqkhG4rwXj/ybObXtnTmOLGf5vp+z9jp+w9SJZcg/nHi+0/rTH8pN&#xA;Til0m504t+/t5TKq+McgG4+TA1zI7BzA4zDqDfwLje0OAjIJ9CK+IZjqurafpVm15fy+jbqQpahY&#xA;1Y0AAUE5uM+eGKPFM0HSafTzzS4YCyhj5l0ZtJuNUt7qOe2t0LuUbcGlQpB3DHoAcr/OYzjOQEGI&#xA;bfyWUZBjlEiUi8b8qW0uo+a7BSOTNcLPL8kPqN/xHOO0MDk1Ef61/pe37QmMWml/Vr57PeM7t89d&#xA;irznzG+ty+f9OjNnbzPGkpsYXf4JEAc83NNj8Nae2c5rDlOriOGJ58I7+fN6fRDENHM8UgDXEe7l&#xA;yTu980ar+kU0TRtPjuNShiSS9LNxghJAJWopXr45nZNbk4/CxxBmBv3BwMWgx8Hi5ZEQJ9P84quk&#xA;eadR/TI0TXbNbO/lUyWskTcopVFSQK1ofhPf7slg1s/E8LLHhkeVciw1Ggh4Xi4ZcUBzvmEuPnbz&#xA;JdalqGn6TpKXUthPJHI5fivpo5Va1K/E3E7V+/Mf+Us0pyhjhxGJPy/W5X8l4IY4TyZOETiPmf0M&#xA;0hMrQo0qhJSoMiA1Aam4B775uo3W/N0UgLNcl+FikvlbXptatbuaWJYjbXUlsoUk1CBTyNf9bMLR&#xA;ao5oyJFVIhztfpBglEA3xRB+dse1vzE+seVfMaNAIfqMotwQ3LkFlA5dBTpmv1OrObBlFVwmvtdn&#xA;pdGMOowm74xf2O0zXfOFj5fsrr9ERS6Xb2sX2Zf37RLGP3gA23UVpTHDqdRDDGXADARHXeq5oz6T&#xA;TZM0o+IRklI9NrvknF75wjWLQ7ixQTW+sXCQcnqCgZgrbD9pTUZl5O0BWMx3GSVOHi7ON5YzNSxx&#xA;J96L8z6++i2trMsInNzdR2xUtxoHDHl0PTjl2t1RwxBq7kA0aHSDPKQuuGJl8kv1bzRrEfmE6JpW&#xA;nx3NwkQnaSWXgOJ67UHSvjmPn1uQZvCxxBNXuXJ0+gxHD4uSZiLrYK+g+Z7u71S40fVLL6lqUCCU&#xA;KriSN4yRup/2QyzS62U8hx5I8Mxv7w16vQxhjGXHLigTXcQWO+QNR8yxaLZwWukLcaeZWDXhnjQg&#xA;NIeZ9Mnl8O+a7srNnGKIjC4Xzsd/c7PtfDgOWRlkqdfTwnu23ZPo3mGa/wBe1bTXhVE05kVJASS3&#xA;KvWvyzZ6fVnJlnAj6HVanRjHhx5AfrVLHX3ufMuo6MYQq2KROJuVS3qKrU402py8clj1Rlmljr6a&#xA;397DLpBHBDLf1k7e5OMzHCYB5p8sa7Za43mHy+vqvMCLq1oGJqKN8J+2r9x1r+Gg1uiywy+Nh3vm&#xA;Pxzt6PQa7Dkw+Bm2rkfxypLYYde1LTbrSbPy6dIe8MYluQjQR8VarczIvIj2U5jRjlyQOOOLw+Kt&#xA;+Q+NuVKWHFOOSWbxOG9uZ+Ffpeg+X9Gh0bSLfT4m5iFfjkpTk7GrN95zoNLpxhxiA6PN6zUnPkMz&#xA;1R7okiMjqGRwVZSKgg7EEZeQCKLjgkGw8X83+UNQ8vX5u7QOdPL87e5StYjWoViOhHY984zX9nz0&#xA;8+KP0dD3Pc9ndow1MOGX19R3ok/mXf3Ojz6bqdsLkTxmI3ET+hJQ9z8Min7hlv8ALM5YzCYuxVg0&#xA;fuLV/IcI5Rkxnho3RFj7ww4OVctGSvWm+4B9xTNPfc7urG6eeSrrQ7TXobrV2ZYYfihIXkolH2S9&#xA;N6DrsOuZ3Z08UMolk5Dl7/N1/amPLPCY4uZ5+7yeyajZadr+jSW5kWW0u0/dzRkMAequp9iM7HLj&#xA;hnxkXcZdXiMOWenyiVVKPR43d2PmHyhrCuC0MyE+jcKKxyp9OxB7qc43JjzaTJfI9D0L3GPLh1mK&#xA;uY6jqEd5h8+Pr2kx2V9Z8Jo3EizQy8ULhSvxRsj1HxfzZfq+1DnxiMo7jqD+iv0uPo+yRp8hnCWx&#xA;2oj9Nj7mKhmAKgkBvtAdDTxzVW7emcflhqXlywup3vp/R1CakcDyCkQj2JAfsxPXlTN52Lmw45Ez&#xA;NTPLudB27gz5IgQFwG5rnfues51jxzsVYbrH/kztC/5hpv8AiE2abUf49j/qn7pO803+IZf6w++K&#xA;loV1b6b56160vnEUt+Y5rR5CFDKOR4gnb9v8MjpZjHqskZ7GVEMtXjll0mKUNxCwfx+Obet3VvqX&#xA;nzQrayZZ5LH1Zbt0PIIpANGI224/jjqZjJq8cY7mNkrpccsWjyynsJ0Av8hgfpzzUabm/YE/KSXJ&#xA;dl/3ub+v+kse1v7nB/U/RFmebl0bsVYN5I1bTdL/AEvpupXMVndR38svGd1jBVwoBUsRX7OaPs3P&#xA;DFxwmRGXGTvs7/tTT5Mvh5MYMo8AG26SW0iSeVfOEkbB43u+SOpqCDKCCCMwYEHBnI/nfpdhMEaj&#xA;Tg8+H9DJbXzZ5fsfJ1p6l7DJPHYxRm1R1aQyCILwKAkjfY16Zs4a7DDTRuQJEBte906rJ2fmyaqV&#xA;RIBmd62q+bHGsbzSfKnlu9u42WO01BbmdCDVI3fktR2qF/HNacUsWnxSkPpnZ8hbtBljm1GaETvL&#xA;HwjzNJx581rSL6w0uOyvYLmT9IQOY4pFdgvFxUqDUdR1zM7U1GOcICMgTxjkfe4PZOly45zM4yiP&#xA;DlzHuREX/k05v+YAfrXLI/4+f6jXL/jPH9f9ap/5VD/t2/8AMzJf8jv+Sf6WH/Ov/wCSn6EP+XGt&#xA;aVB5eisLi6igvYZnjeCVhG/J3JUKGpWvtlfZGoxxwiBIEgeR26tvbWmySzGcYkxIG436LNJvrLSf&#xA;POvR6jOlr9bEUtvJMQiMtCdmag/awYMscWqyCZ4eKiLZajFPNpMRxji4bBrdW8uXVtdeftfntpUn&#xA;geG34SxsGU0RAaMKg7jJ6ScZavIYmxUfuDXrccoaPEJCjcufvLM83Lo3Yq7FXYq7FWmVXUqwDKwo&#xA;ykVBGAi0g0kV15E8pXUhkl02MMevpl4h90bKMwZ9maeRswH2j7nYY+1tTAUJn40fvVtP8oeWtPcS&#xA;WunxLIu6u9ZGB9jIWIyeLQYMZuMRfz+9rzdo58gqUzXy+5JvMH5ZaNqUjXFm50+4Y1fgoaJj4+nV&#xA;afQcw9V2NjyG4+g/Z8nO0fbmXEOGXrj9vzZTp1hBp9hb2UApFbosa+J4jqfc9Tm0w4hjgIjkA6nN&#xA;lOSZmeZK+5tLW6hMN1Ck8LfajkUMp+g4ZwjIVIWGMMkoG4kg+SRSfl75Okcu2nKCeyySqPuVwMwT&#xA;2Tpj/D9p/W7CPbGqArj+wfqR9p5Y8vWkMkMGnwLHKvGQFAxZT2JapIy+GiwwBAiN3Hya7NMgmZsM&#xA;cm/KvRv0rDd28zxWqSCSWyYc1YA14qxIIB965rpdh4/EEgajfJ2ce38vhmMhcq+rl+PsZtm7dC7F&#xA;UNJplhLfxX8kCteQKUhnP2lVgQQP+COVHDAzEyPUOrbHPMQMAfSeYUdV0HR9WRV1G1S44fYY1DCv&#xA;gykMPvyGfS48v1i2en1eXCfRKnaVoWkaSjJp9qluG+2y1LNTxZqsfvw4NLjxCoCl1Gry5jc5Eq1p&#xA;plhZy3EttAsUl0/qXDL1dySan7zkseGECTEUZc2GTPOYAkbEdh5InLWp2KoG+0LRr+QS3tlBcSgU&#xA;EkiKzU8KkVyjLpseQ3KIJ9zkYtVlxioSIHvVINJ0uC2a1hs4Y7Z/7yFY1CN/rLSh+nJRwY4x4REA&#xA;d1MZ6jJKXEZEy77Q8Hlry9BMJ4dNtklBqrrEgIPiNtvoyuOjwxNiEb9zZLXZ5CjOVe8phLDFNE0U&#xA;yLJE4o8bgMpHgQdjmRKIIo7hxoyMTYNFLoPLHl2CUSxaZbJIu6sIkqD4jbbMeOiwxNiEb9zlS12e&#xA;QozlXvRosrMXRvBBGLsrwNxwX1Cv8vOnKmXeHHi4qHF39XH8WXDw2eHu6fJv6nafWvrfoR/WuPp/&#xA;WOK+pw68edOVPbHw48XFQ4u/qviS4eGzw93RCyaBoct0buTT7d7knkZmiQsW68iSOvvlZ0uIy4jG&#xA;PF7m2OrzCPCJy4e6yqX+kaXqHH69aRXPD7BlRWI+RI2yWXBjyfVEH3scWoyY/okY+4usdJ0vTw31&#xA;G0htuX2jEiqT8yBU44sGPH9MQPcuXUZMn1yMveUXlrS7FXYq7FXYq7FXYq7FXYq7FXYq7FXYq7FX&#xA;Yq7FXYq7FXYq7FXYq7FXYq7FXYq7FXYq7FXYq7FXYq7FXYq7FXYq7FX/2Q==</xmpGImg:image>
               </rdf:li>
            </rdf:Alt>
         </xmp:Thumbnails>
         <xmpMM:RenditionClass>proof:pdf</xmpMM:RenditionClass>
         <xmpMM:OriginalDocumentID>uuid:65E6390686CF11DBA6E2D887CEACB407</xmpMM:OriginalDocumentID>
         <xmpMM:DocumentID>xmp.did:816e593b-3c42-9441-a84c-3f99733fa3c0</xmpMM:DocumentID>
         <xmpMM:InstanceID>xmp.iid:816e593b-3c42-9441-a84c-3f99733fa3c0</xmpMM:InstanceID>
         <xmpMM:DerivedFrom rdf:parseType="Resource">
            <stRef:instanceID>uuid:d9ab81bc-9707-4a3a-9896-69bb3f07e909</stRef:instanceID>
            <stRef:documentID>xmp.did:f87044e2-516c-f643-a7b1-467833dbb44b</stRef:documentID>
            <stRef:originalDocumentID>uuid:65E6390686CF11DBA6E2D887CEACB407</stRef:originalDocumentID>
            <stRef:renditionClass>proof:pdf</stRef:renditionClass>
         </xmpMM:DerivedFrom>
         <xmpMM:History>
            <rdf:Seq>
               <rdf:li rdf:parseType="Resource">
                  <stEvt:action>saved</stEvt:action>
                  <stEvt:instanceID>xmp.iid:816e593b-3c42-9441-a84c-3f99733fa3c0</stEvt:instanceID>
                  <stEvt:when>2014-08-23T01:17:38+08:00</stEvt:when>
                  <stEvt:softwareAgent>Adobe Illustrator CC (Windows)</stEvt:softwareAgent>
                  <stEvt:changed>/</stEvt:changed>
               </rdf:li>
            </rdf:Seq>
         </xmpMM:History>
         <illustrator:StartupProfile>Web</illustrator:StartupProfile>
         <xmpTPg:NPages>1</xmpTPg:NPages>
         <xmpTPg:HasVisibleTransparency>True</xmpTPg:HasVisibleTransparency>
         <xmpTPg:HasVisibleOverprint>False</xmpTPg:HasVisibleOverprint>
         <xmpTPg:MaxPageSize rdf:parseType="Resource">
            <stDim:w>150.000000</stDim:w>
            <stDim:h>30.000000</stDim:h>
            <stDim:unit>Pixels</stDim:unit>
         </xmpTPg:MaxPageSize>
         <xmpTPg:PlateNames>
            <rdf:Seq>
               <rdf:li>Cyan</rdf:li>
               <rdf:li>Magenta</rdf:li>
               <rdf:li>Yellow</rdf:li>
            </rdf:Seq>
         </xmpTPg:PlateNames>
         <xmpTPg:SwatchGroups>
            <rdf:Seq>
               <rdf:li rdf:parseType="Resource">
                  <xmpG:groupName>默认色板组</xmpG:groupName>
                  <xmpG:groupType>0</xmpG:groupType>
               </rdf:li>
            </rdf:Seq>
         </xmpTPg:SwatchGroups>
         <pdf:Producer>Adobe PDF library 10.01</pdf:Producer>
      </rdf:Description>
   </rdf:RDF>
</x:xmpmeta>
                                                                                                    
                                                                                                    
                                                                                                    
                                                                                                    
                                                                                                    
                                                                                                    
                                                                                                    
                                                                                                    
                                                                                                    
                                                                                                    
                                                                                                    
                                                                                                    
                                                                                                    
                                                                                                    
                                                                                                    
                                                                                                    
                                                                                                    
                                                                                                    
                                                                                                    
                                                                                                    
                           
<?xpacket end="w"?>
	</metadata>
<g>
	<path opacity="0.8" fill="#FFFFFF" enable-background="new    " d="M127.752,23.812c-0.224,0.064-0.48,0.096-0.8,0.128
		c-0.288,0-0.608,0.032-0.928,0.032c-1.184,0-1.792-0.704-1.792-1.92v-4.8h-1.344v4.608c0,1.088,0.256,1.888,0.8,2.4
		c0.512,0.544,1.312,0.864,2.368,0.864c0.576,0,1.12-0.032,1.664-0.096c0.544-0.064,1.024-0.16,1.44-0.32v-7.424h-1.408
		C127.752,17.284,127.752,23.812,127.752,23.812z"/>
	<path opacity="0.8" fill="#FFFFFF" enable-background="new    " d="M112.424,17.156c-0.544,0-1.088,0.032-1.632,0.096
		c-0.544,0.064-0.992,0.16-1.44,0.32V24.9h1.408v-6.496c0.224-0.032,0.48-0.064,0.768-0.096c0.288,0,0.576-0.032,0.896-0.032
		c1.152,0,1.728,0.608,1.728,1.792v4.864h1.408v-4.64C115.56,18.18,114.504,17.156,112.424,17.156z"/>
	<path opacity="0.8" fill="#FFFFFF" enable-background="new    " d="M89.608,23.812c-0.224,0.064-0.48,0.096-0.8,0.128
		c-0.288,0-0.608,0.032-0.928,0.032c-1.184,0-1.792-0.704-1.792-1.92v-4.8h-1.344v4.608c0,1.088,0.288,1.856,0.8,2.4
		s1.312,0.864,2.368,0.864c0.576,0,1.12-0.032,1.664-0.096c0.544-0.064,1.024-0.16,1.44-0.32v-7.424h-1.408
		C89.608,17.284,89.608,23.812,89.608,23.812z"/>
	<path opacity="0.8" fill="#FFFFFF" enable-background="new    " d="M106.056,23.812c-0.224,0.064-0.48,0.096-0.8,0.128
		c-0.288,0-0.608,0.032-0.928,0.032c-1.184,0-1.792-0.704-1.792-1.92v-4.8h-1.344v4.608c0,1.088,0.288,1.856,0.8,2.4
		c0.512,0.544,1.312,0.864,2.368,0.864c0.576,0,1.12-0.032,1.664-0.096c0.544-0.064,1.024-0.16,1.44-0.32v-7.424h-1.408
		C106.056,17.284,106.056,23.812,106.056,23.812z"/>
	<path opacity="0.8" fill="#FFFFFF" enable-background="new    " d="M96.232,17.06c-0.672,0-1.248,0.192-1.664,0.32
		c-0.128,0.032-0.224,0.096-0.352,0.16l0.032-4.096l-1.408,0.224v10.976c0.832,0.288,1.728,0.448,2.656,0.448
		c0.16,0,0.32,0,0.448-0.032c2.752,0,4.192-2.176,3.808-4.704C99.464,18.564,97.96,17.06,96.232,17.06z M95.496,23.972
		c-0.384-0.032-0.832-0.064-1.248-0.16v-5.056c0.192-0.16,0.384-0.288,0.608-0.384c0.32-0.096,0.8-0.192,1.376-0.16
		c1.568,0.064,2.176,1.44,2.208,2.784C98.504,22.82,97.224,24.132,95.496,23.972z"/>
	<path opacity="0.8" fill="#FFFFFF" enable-background="new    " d="M119.624,24.036c-0.576-0.032-1.12-0.512-1.184-0.992v-4.608
		h2.912v-1.152h-2.912l0.032-2.496l-1.28,0.224v7.648c0,1.472,0.8,2.432,2.528,2.432c0.448,0,1.28-0.128,1.76-0.192l-0.16-0.992
		C121.32,23.94,120.2,24.068,119.624,24.036z"/>
	<path opacity="0.3" fill="#FFFFFF" enable-background="new    " d="M141.724,20.132c-3.341,0-6.06-2.718-6.06-6.059
		s2.719-6.06,6.06-6.06s6.059,2.718,6.059,6.06C147.782,17.414,145.064,20.132,141.724,20.132z"/>
	<path opacity="0.8" fill="#FFFFFF" enable-background="new    " d="M141.723,9.013c-2.774,0-5.059,2.285-5.059,5.059
		s2.285,5.059,5.059,5.059s5.059-2.285,5.059-5.059C146.783,11.244,144.498,9.013,141.723,9.013z"/>
	<path opacity="0.8" fill="#FFFFFF" enable-background="new    " d="M24.031,23.929c-0.886-0.334-1.858-0.845-2.896-1.522
		c0.878-0.955,1.557-2.055,2.022-3.278c0.536-1.407,0.807-3.009,0.807-4.762c0-2.115-0.422-4.044-1.255-5.734
		c-0.843-1.71-2.086-3.06-3.694-4.012c-1.602-0.948-3.421-1.429-5.41-1.429c-1.967,0-3.773,0.463-5.368,1.376
		C6.63,5.486,5.376,6.842,4.508,8.596c-0.857,1.733-1.291,3.679-1.291,5.784c0,2.116,0.433,4.049,1.286,5.745
		c0.861,1.713,2.108,3.062,3.706,4.009c1.592,0.943,3.389,1.422,5.339,1.422c1.809,0,3.495-0.399,5.018-1.186
		c1.424,1.08,2.873,1.89,4.311,2.409c0.056,0.021,0.114,0.03,0.172,0.03c0.198,0,0.385-0.117,0.466-0.309l0.803-1.9
		c0.054-0.127,0.053-0.27-0.001-0.397C24.263,24.076,24.16,23.977,24.031,23.929z M18.203,20.291
		c-1.015-0.774-2.268-1.372-3.729-1.781c-0.045-0.013-0.091-0.019-0.136-0.019c-0.213,0-0.41,0.135-0.48,0.346l-0.662,1.985
		c-0.045,0.134-0.032,0.281,0.037,0.404c0.068,0.124,0.185,0.213,0.322,0.247c0.536,0.133,1.062,0.322,1.57,0.566
		c-0.485,0.111-0.988,0.167-1.505,0.167c-1.935,0-3.478-0.651-4.716-1.991c-1.232-1.333-1.857-3.296-1.857-5.836
		c0-2.62,0.629-4.602,1.872-5.891c1.253-1.302,2.791-1.935,4.702-1.935c1.258,0,2.405,0.322,3.411,0.956
		c1.003,0.633,1.778,1.538,2.301,2.688c0.535,1.176,0.806,2.578,0.806,4.168C20.136,16.943,19.486,18.933,18.203,20.291z"/>
	<path opacity="0.8" fill="#FFFFFF" enable-background="new    " d="M46.453,23.929c-0.886-0.334-1.858-0.845-2.896-1.522
		c0.878-0.955,1.557-2.055,2.022-3.278c0.536-1.407,0.807-3.009,0.807-4.762c0-2.115-0.422-4.044-1.255-5.734
		c-0.843-1.71-2.086-3.06-3.694-4.012c-1.602-0.948-3.421-1.429-5.41-1.429c-1.967,0-3.773,0.463-5.368,1.376
		c-1.607,0.919-2.861,2.275-3.728,4.029c-0.857,1.733-1.291,3.679-1.291,5.784c0,2.116,0.433,4.049,1.286,5.745
		c0.861,1.713,2.108,3.062,3.706,4.009c1.592,0.943,3.389,1.422,5.339,1.422c1.809,0,3.495-0.399,5.018-1.186
		c1.424,1.08,2.873,1.89,4.311,2.409c0.056,0.021,0.114,0.03,0.172,0.03c0.198,0,0.385-0.117,0.466-0.309l0.803-1.9
		c0.054-0.127,0.053-0.27-0.001-0.397S46.582,23.977,46.453,23.929z M40.625,20.291c-1.015-0.774-2.268-1.372-3.729-1.781
		c-0.046-0.013-0.091-0.019-0.136-0.019c-0.213,0-0.41,0.135-0.48,0.346l-0.662,1.985c-0.045,0.134-0.032,0.281,0.037,0.404
		c0.068,0.124,0.185,0.213,0.322,0.247c0.536,0.133,1.062,0.322,1.57,0.566c-0.485,0.111-0.988,0.167-1.505,0.167
		c-1.935,0-3.478-0.651-4.716-1.991c-1.232-1.333-1.857-3.296-1.857-5.836c0-2.62,0.629-4.602,1.872-5.891
		c1.254-1.302,2.791-1.935,4.702-1.935c1.257,0,2.405,0.322,3.411,0.956c1.003,0.633,1.777,1.537,2.301,2.688
		c0.535,1.176,0.806,2.578,0.806,4.168C42.559,16.943,41.909,18.933,40.625,20.291z"/>
	<path opacity="0.8" fill="#FFFFFF" enable-background="new    " d="M59.922,15.417c0.173-0.178,0.469-0.268,0.887-0.268
		c0.255,0,0.525,0.025,0.811,0.076l0.206-1.201c-0.469-0.092-0.897-0.138-1.285-0.138c-0.602,0-1.069,0.111-1.403,0.333
		s-0.567,0.511-0.7,0.868c-0.097,0.265-0.145,0.671-0.145,1.216v0.864h-1.216v1.071h1.216v7.052h1.369v-7.052h1.583v-1.071h-1.583
		v-0.75C59.662,15.93,59.749,15.596,59.922,15.417z"/>
	<path opacity="0.8" fill="#FFFFFF" enable-background="new    " d="M65.613,16.985c-1.004,0-1.856,0.301-2.555,0.902
		c-0.836,0.724-1.254,1.838-1.254,3.342c0,1.372,0.351,2.422,1.052,3.151c0.701,0.729,1.62,1.094,2.757,1.094
		c0.709,0,1.363-0.166,1.962-0.497s1.055-0.797,1.369-1.396s0.47-1.421,0.47-2.467c0-1.29-0.354-2.301-1.063-3.033
		S66.729,16.985,65.613,16.985z M67.318,23.563c-0.454,0.52-1.022,0.78-1.706,0.78c-0.688,0-1.259-0.259-1.713-0.776
		c-0.454-0.518-0.681-1.296-0.681-2.337s0.227-1.818,0.681-2.333s1.025-0.772,1.713-0.772c0.678,0,1.245,0.259,1.702,0.776
		c0.456,0.518,0.685,1.279,0.685,2.283C67.999,22.25,67.772,23.043,67.318,23.563z"/>
	<g>
		<path opacity="0.3" fill="#FFFFFF" enable-background="new    " d="M129.16,16.284h-1.408c-0.553,0-1,0.448-1,1v5.66
			c-0.095,0.003-0.192,0.008-0.291,0.013c-0.144,0.008-0.29,0.016-0.438,0.016c-0.449,0-0.792-0.068-0.792-0.92v-4.8
			c0-0.552-0.447-1-1-1h-1.344c-0.323,0-0.596,0.162-0.779,0.399c-0.183-0.219-0.449-0.367-0.757-0.367h-1.899l0.02-1.483
			c0.004-0.297-0.125-0.581-0.352-0.774c-0.183-0.155-0.413-0.239-0.648-0.239c-0.058,0-0.115,0.005-0.172,0.015l-1.279,0.224
			c-0.479,0.083-0.828,0.499-0.828,0.985v3.305c-0.584-1.399-1.864-2.161-3.769-2.161c-0.582,0-1.17,0.035-1.749,0.103
			c-0.638,0.075-1.149,0.189-1.659,0.371c-0.267,0.095-0.465,0.3-0.573,0.549c-0.055-0.5-0.463-0.895-0.979-0.895h-1.408
			c-0.553,0-1,0.448-1,1v5.66c-0.095,0.003-0.192,0.008-0.292,0.013c-0.143,0.008-0.289,0.016-0.436,0.016
			c-0.449,0-0.792-0.068-0.792-0.92v-4.8c0-0.552-0.447-1-1-1h-1.345c-0.553,0-1,0.448-1,1v1.345
			c-0.812-1.502-2.335-2.536-3.96-2.536c-0.363,0-0.701,0.044-1.005,0.106l0.021-2.715c0.002-0.294-0.125-0.574-0.348-0.766
			c-0.183-0.157-0.415-0.242-0.652-0.242c-0.052,0-0.104,0.004-0.157,0.012l-1.408,0.224c-0.485,0.078-0.843,0.496-0.843,0.988
			v3.083c-0.178-0.274-0.472-0.466-0.824-0.466h-1.408c-0.553,0-1,0.448-1,1v5.66c-0.095,0.003-0.192,0.008-0.291,0.013
			c-0.143,0.008-0.289,0.016-0.437,0.016c-0.449,0-0.792-0.068-0.792-0.92v-4.8c0-0.552-0.447-1-1-1h-1.344c-0.553,0-1,0.448-1,1
			v4.608c0,1.292,0.36,2.33,1.071,3.085c0.725,0.771,1.796,1.179,3.097,1.179c0.608,0,1.191-0.034,1.781-0.103
			c0.683-0.081,1.217-0.201,1.682-0.38c0.27-0.104,0.469-0.32,0.568-0.58c0.112,0.24,0.308,0.437,0.569,0.528
			c0.964,0.334,1.968,0.503,2.983,0.503c0.159,0,0.351,0,0.549-0.033c1.467-0.024,2.746-0.588,3.61-1.594
			c0.301-0.35,0.54-0.753,0.726-1.187c0.172,0.649,0.457,1.214,0.883,1.666c0.725,0.771,1.796,1.179,3.097,1.179
			c0.608,0,1.19-0.034,1.78-0.103c0.684-0.081,1.219-0.201,1.683-0.38c0.266-0.102,0.462-0.314,0.563-0.569
			c0.084,0.467,0.474,0.828,0.965,0.828h1.408c0.553,0,1-0.448,1-1v-5.597c0.081-0.003,0.163-0.007,0.246-0.012
			c0.135-0.007,0.272-0.015,0.418-0.015c0.555,0,0.728,0.109,0.728,0.792v4.864c0,0.552,0.447,1,1,1h1.408c0.553,0,1-0.448,1-1
			V24.33c0.536,1.109,1.64,1.762,3.16,1.762c0.442,0,1.101-0.091,1.629-0.165l0.263-0.036c0.268-0.036,0.51-0.178,0.671-0.395
			c0.161-0.216,0.228-0.489,0.185-0.755l-0.103-0.643c0.163,0.324,0.352,0.618,0.596,0.847c0.726,0.771,1.796,1.179,3.096,1.179
			c0.608,0,1.191-0.034,1.781-0.103c0.684-0.081,1.219-0.201,1.683-0.38c0.386-0.148,0.641-0.52,0.641-0.933v-7.424
			C130.16,16.732,129.713,16.284,129.16,16.284z M96.938,22.515c-0.297,0.308-0.698,0.47-1.16,0.47c-0.063,0-0.126-0.003-0.19-0.009
			c-0.003,0-0.259-0.021-0.34-0.029V19.3c0.188-0.048,0.449-0.095,0.759-0.095l0.184,0.005c1.052,0.043,1.234,1.151,1.25,1.82
			C97.461,21.631,97.283,22.158,96.938,22.515z M121.321,22.908c-0.026,0-0.054,0.001-0.08,0.003
			c-0.073,0.006-0.145,0.02-0.212,0.04c-0.193,0.029-0.783,0.09-1.2,0.09l-0.149-0.003c-0.089-0.005-0.205-0.089-0.24-0.119v-3.483
			h1.912c0.202,0,0.379-0.075,0.536-0.177v2.601c0,0.519,0.07,0.976,0.173,1.398C121.876,23.048,121.616,22.908,121.321,22.908z"/>
		<path opacity="0.3" fill="#FFFFFF" enable-background="new    " d="M46.807,22.993c-0.544-0.205-1.129-0.486-1.747-0.839
			c0.602-0.815,1.089-1.709,1.454-2.67c0.579-1.521,0.873-3.243,0.873-5.118c0-2.27-0.457-4.348-1.357-6.176
			c-0.931-1.887-2.304-3.378-4.083-4.431c-1.758-1.04-3.749-1.568-5.919-1.568c-2.143,0-4.115,0.507-5.865,1.508
			c-1.781,1.02-3.17,2.519-4.128,4.455c-0.626,1.265-1.025,2.64-1.229,4.091c-0.198-1.452-0.588-2.815-1.199-4.055
			c-0.931-1.887-2.304-3.378-4.083-4.431c-1.758-1.04-3.749-1.568-5.919-1.568c-2.143,0-4.116,0.507-5.864,1.508
			C5.959,4.719,4.57,6.218,3.613,8.153c-0.925,1.87-1.395,3.966-1.395,6.228c0,2.273,0.468,4.357,1.392,6.194
			c0.948,1.886,2.324,3.373,4.09,4.42c1.749,1.036,3.717,1.562,5.85,1.562c1.748,0,3.396-0.344,4.909-1.024
			c1.347,0.961,2.717,1.696,4.079,2.187c0.165,0.06,0.338,0.09,0.513,0.09c0.606,0,1.151-0.361,1.387-0.92l0.803-1.9
			c0.159-0.377,0.158-0.808-0.004-1.182c-0.161-0.375-0.473-0.672-0.852-0.814c-0.544-0.206-1.129-0.486-1.747-0.839
			c0.602-0.815,1.089-1.709,1.455-2.67c0.346-0.909,0.577-1.897,0.717-2.939c0.206,1.441,0.602,2.795,1.223,4.029
			c0.947,1.887,2.323,3.374,4.09,4.42c1.747,1.036,3.716,1.562,5.85,1.562c1.748,0,3.396-0.344,4.909-1.024
			c1.347,0.961,2.716,1.695,4.074,2.185c0.165,0.061,0.339,0.092,0.517,0.092c0.607,0,1.152-0.361,1.388-0.92l0.803-1.9
			c0.158-0.374,0.157-0.803-0.004-1.182C47.497,23.433,47.186,23.135,46.807,22.993z M18.002,18.941
			c-0.947-0.586-2.04-1.054-3.262-1.396c-0.131-0.036-0.267-0.055-0.403-0.055c-0.65,0-1.225,0.414-1.43,1.03l-0.66,1.983
			c-0.06,0.177-0.084,0.362-0.076,0.545c-0.985-0.233-1.811-0.729-2.534-1.512c-1.057-1.142-1.592-2.876-1.592-5.157
			c0-2.352,0.536-4.101,1.593-5.198c1.068-1.111,2.334-1.628,3.981-1.628c1.065,0,2.033,0.27,2.877,0.803
			c0.836,0.527,1.483,1.286,1.924,2.255c0.476,1.045,0.717,2.309,0.717,3.754C19.137,16.275,18.756,17.809,18.002,18.941z
			 M40.425,18.941c-0.947-0.586-2.039-1.054-3.257-1.394c-0.133-0.037-0.27-0.056-0.408-0.056c-0.65,0-1.225,0.414-1.429,1.03
			l-0.662,1.983c-0.06,0.177-0.084,0.362-0.076,0.545c-0.984-0.233-1.81-0.729-2.533-1.512c-1.057-1.142-1.592-2.876-1.592-5.157
			c0-2.352,0.535-4.101,1.592-5.197c1.069-1.111,2.335-1.629,3.981-1.629c1.065,0,2.034,0.27,2.878,0.802
			c0.834,0.526,1.481,1.285,1.924,2.256c0.476,1.045,0.717,2.309,0.717,3.754C41.56,16.275,41.179,17.809,40.425,18.941z"/>
		<path opacity="0.3" fill="#FFFFFF" enable-background="new    " d="M75.951,16.578c-0.638-0.394-1.29-0.593-1.94-0.593
			c-0.446,0-0.864,0.109-1.247,0.325c-0.15-0.09-0.325-0.141-0.513-0.141h-1.238c-0.553,0-1,0.448-1,1v1.714
			c-0.223-0.565-0.531-1.069-0.944-1.495c-0.901-0.93-2.064-1.402-3.456-1.402c-1.245,0-2.324,0.385-3.208,1.146
			c-0.061,0.052-0.102,0.121-0.159,0.177v-0.14c0-0.436-0.278-0.806-0.667-0.943c0.014,0,0.028,0.001,0.042,0.001
			c0.204,0,0.404-0.063,0.574-0.181c0.218-0.153,0.366-0.386,0.411-0.649l0.207-1.201c0.093-0.536-0.26-1.047-0.794-1.151
			c-0.53-0.104-1.027-0.156-1.477-0.156c-0.799,0-1.457,0.168-1.956,0.5c-0.513,0.34-0.877,0.795-1.087,1.358
			c-0.131,0.359-0.197,0.814-0.205,1.423h-0.217c-0.553,0-1,0.448-1,1v1.071c0,0.552,0.447,1,1,1h0.216v6.052c0,0.552,0.447,1,1,1
			h1.369c0.553,0,1-0.448,1-1v-6.052H61.1c-0.182,0.596-0.296,1.248-0.296,1.991c0,1.632,0.448,2.926,1.331,3.844
			c0.894,0.929,2.063,1.4,3.478,1.4c0.878,0,1.701-0.209,2.446-0.622c0.771-0.426,1.366-1.034,1.771-1.808
			c0.07-0.134,0.126-0.283,0.184-0.43v1.676c0,0.552,0.447,1,1,1h1.376c0.553,0,1-0.448,1-1V21.04c0-0.476,0.062-0.916,0.183-1.302
			c0.051-0.161,0.117-0.226,0.163-0.26c0.065-0.05,0.123-0.069,0.207-0.069c0.156,0,0.319,0.052,0.501,0.159
			c0.155,0.092,0.332,0.139,0.509,0.139c0.112,0,0.226-0.019,0.334-0.058c0.279-0.099,0.5-0.316,0.604-0.594l0.475-1.277
			C76.529,17.33,76.356,16.828,75.951,16.578z M66.565,22.905c-0.265,0.303-0.559,0.438-0.953,0.438c-0.4,0-0.696-0.134-0.961-0.436
			c-0.283-0.322-0.433-0.902-0.433-1.677c0-0.774,0.149-1.352,0.431-1.671c0.265-0.3,0.562-0.434,0.963-0.434
			c0.392,0,0.686,0.135,0.952,0.438c0.288,0.328,0.435,0.873,0.435,1.622C66.999,21.985,66.849,22.58,66.565,22.905z"/>
	</g>
	<path opacity="0.8" fill="#FFFFFF" enable-background="new    " d="M73.127,17.26c-0.268,0.184-0.56,0.563-0.876,1.14v-1.231
		h-1.239v8.122h1.377v-4.252c0-0.581,0.076-1.117,0.229-1.606c0.102-0.321,0.273-0.572,0.512-0.753
		c0.24-0.181,0.51-0.272,0.811-0.272c0.336,0,0.673,0.099,1.01,0.298l0.474-1.277c-0.479-0.296-0.951-0.444-1.415-0.444
		C73.689,16.985,73.395,17.077,73.127,17.26z"/>
	<path id="text" fill="#F47421" d="M124.232,16.252v4.8c0,1.216,0.608,1.92,1.792,1.92c0.32,0,0.64-0.032,0.928-0.032
		c0.32-0.032,0.576-0.064,0.8-0.128v-6.528h1.408v7.424c-0.416,0.16-0.896,0.256-1.44,0.32c-0.544,0.064-1.088,0.096-1.664,0.096
		c-1.056,0-1.856-0.32-2.368-0.864c-0.544-0.512-0.8-1.312-0.8-2.4v-4.608L124.232,16.252 M102.536,16.252v4.8
		c0,1.216,0.608,1.92,1.792,1.92c0.32,0,0.64-0.032,0.928-0.032c0.32-0.032,0.576-0.064,0.8-0.128v-6.528h1.408v7.424
		c-0.416,0.16-0.896,0.256-1.44,0.32s-1.088,0.096-1.664,0.096c-1.056,0-1.856-0.32-2.368-0.864c-0.512-0.544-0.8-1.312-0.8-2.4
		v-4.608L102.536,16.252 M118.472,13.788l-1.28,0.224v7.648c0,1.472,0.8,2.432,2.528,2.432c0.448,0,1.28-0.128,1.76-0.192
		l-0.16-0.992c0,0.032-1.12,0.16-1.696,0.128s-1.12-0.512-1.184-0.992v-4.608h2.912v-1.152h-2.912L118.472,13.788L118.472,13.788z
		 M94.248,12.444l-1.408,0.224v10.976c0.832,0.288,1.728,0.448,2.656,0.448c0.16,0,0.32,0,0.448-0.032l0,0
		c2.752,0,4.192-2.176,3.808-4.704c-0.288-1.792-1.792-3.296-3.52-3.296c-0.672,0-1.248,0.192-1.664,0.32
		c-0.128,0.032-0.224,0.096-0.352,0.16L94.248,12.444L94.248,12.444L94.248,12.444L94.248,12.444z M96.232,17.212
		c1.568,0.064,2.176,1.44,2.208,2.784c0.064,1.824-1.216,3.136-2.944,2.976c-0.384-0.032-0.832-0.064-1.248-0.16v-5.056
		c0.192-0.16,0.384-0.288,0.608-0.384C95.176,17.276,95.656,17.18,96.232,17.212z M110.76,23.9h-1.408v-7.328
		c0.448-0.16,0.896-0.256,1.44-0.32s1.088-0.096,1.632-0.096c2.08,0,3.136,1.024,3.136,3.136v4.64h-1.408v-4.864
		c0-1.184-0.576-1.792-1.728-1.792c-0.32,0-0.608,0.032-0.896,0.032c-0.288,0.032-0.544,0.064-0.768,0.096L110.76,23.9
		 M86.088,16.252v4.8c0,1.216,0.608,1.92,1.792,1.92c0.32,0,0.64-0.032,0.928-0.032c0.32-0.032,0.576-0.064,0.8-0.128v-6.528h1.408
		v7.424c-0.416,0.16-0.896,0.256-1.44,0.32s-1.088,0.096-1.664,0.096c-1.056,0-1.856-0.32-2.368-0.864s-0.8-1.312-0.8-2.4v-4.608
		L86.088,16.252"/>
	<path id="roundel" fill="#F47421" d="M146.783,13.073c0,2.774-2.285,5.059-5.059,5.059s-5.059-2.285-5.059-5.059
		s2.285-5.059,5.059-5.059S146.783,10.244,146.783,13.073"/>
	<path id="circle-of-friends" fill="#FFFFFF" d="M143.083,10.679c0.326,0.163,0.762,0.054,0.925-0.272
		c0.163-0.326,0.054-0.762-0.272-0.925s-0.762-0.054-0.925,0.272C142.702,10.081,142.811,10.461,143.083,10.679z M141.723,15.031
		c-0.272,0-0.598-0.054-0.816-0.163l-0.49,0.87c0.381,0.218,0.816,0.326,1.306,0.326c0.272,0,0.544-0.054,0.762-0.109
		c0.054-0.272,0.218-0.544,0.435-0.653c0.272-0.163,0.544-0.163,0.816-0.054c0.49-0.49,0.816-1.142,0.87-1.904h-0.979
		C143.627,14.27,142.757,15.031,141.723,15.031z M141.723,11.06c1.034,0,1.85,0.816,1.958,1.795h0.979
		c-0.054-0.762-0.381-1.414-0.87-1.904c-0.272,0.109-0.544,0.054-0.816-0.054c-0.272-0.163-0.435-0.381-0.435-0.653
		c-0.272-0.054-0.49-0.109-0.762-0.109c-0.435,0-0.925,0.109-1.306,0.326l0.49,0.87C141.125,11.169,141.451,11.06,141.723,11.06z
		 M139.765,13.073c0-0.653,0.326-1.251,0.87-1.632l-0.49-0.816c-0.598,0.381-1.034,0.979-1.197,1.686
		c0.218,0.163,0.326,0.435,0.326,0.762c0,0.272-0.163,0.544-0.326,0.762c0.163,0.707,0.653,1.306,1.197,1.686l0.49-0.816
		C140.091,14.324,139.765,13.726,139.765,13.073z M143.083,15.466c-0.326,0.163-0.435,0.598-0.272,0.925
		c0.163,0.326,0.598,0.435,0.925,0.272c0.326-0.163,0.435-0.598,0.272-0.925C143.845,15.358,143.41,15.249,143.083,15.466z
		 M138.296,12.366c-0.381,0-0.653,0.326-0.653,0.653c0,0.381,0.326,0.653,0.653,0.653c0.381,0,0.653-0.326,0.653-0.653
		S138.677,12.366,138.296,12.366"/>
	<path fill="#F47421" d="M23.049,25.809c-0.057,0-0.115-0.01-0.172-0.03c-1.438-0.519-2.887-1.328-4.311-2.409
		c-1.522,0.787-3.209,1.186-5.018,1.186c-1.951,0-3.747-0.478-5.339-1.422c-1.598-0.947-2.845-2.296-3.706-4.009
		c-0.853-1.696-1.286-3.629-1.286-5.745c0-2.105,0.434-4.052,1.291-5.784c0.867-1.754,2.122-3.11,3.728-4.03
		c1.595-0.913,3.401-1.376,5.368-1.376c1.988,0,3.808,0.481,5.41,1.429c1.609,0.952,2.852,2.302,3.694,4.012
		c0.833,1.69,1.255,3.62,1.255,5.734c0,1.752-0.271,3.355-0.807,4.762c-0.465,1.223-1.144,2.324-2.022,3.278
		c1.038,0.677,2.011,1.188,2.896,1.522c0.129,0.048,0.232,0.148,0.287,0.274c0.054,0.127,0.055,0.27,0.001,0.397l-0.803,1.9
		C23.435,25.692,23.247,25.809,23.049,25.809z M13.619,5.554c-1.911,0-3.448,0.633-4.702,1.935c-1.242,1.29-1.872,3.272-1.872,5.891
		c0,2.54,0.625,4.503,1.857,5.836c1.239,1.34,2.781,1.991,4.716,1.991c0.517,0,1.02-0.056,1.505-0.167
		c-0.509-0.244-1.034-0.433-1.57-0.566c-0.137-0.034-0.254-0.124-0.322-0.247c-0.068-0.124-0.082-0.27-0.037-0.404l0.662-1.985
		c0.07-0.211,0.267-0.346,0.48-0.346c0.045,0,0.091,0.006,0.136,0.019c1.462,0.409,2.714,1.007,3.729,1.781
		c1.284-1.358,1.934-3.348,1.934-5.925c0-1.59-0.271-2.992-0.806-4.168c-0.523-1.15-1.298-2.055-2.301-2.688
		C16.024,5.876,14.876,5.554,13.619,5.554z"/>
	<path fill="#F47421" d="M45.472,25.809c-0.057,0-0.115-0.01-0.172-0.03c-1.438-0.519-2.887-1.328-4.311-2.409
		c-1.523,0.787-3.209,1.186-5.018,1.186c-1.951,0-3.747-0.478-5.339-1.422c-1.598-0.947-2.845-2.296-3.706-4.009
		c-0.853-1.696-1.286-3.629-1.286-5.745c0-2.105,0.434-4.052,1.291-5.784c0.867-1.754,2.122-3.11,3.728-4.03
		c1.595-0.913,3.401-1.376,5.368-1.376c1.988,0,3.808,0.481,5.41,1.429c1.609,0.952,2.852,2.302,3.694,4.012
		c0.833,1.69,1.255,3.62,1.255,5.734c0,1.752-0.271,3.355-0.807,4.762c-0.465,1.223-1.144,2.324-2.022,3.278
		c1.038,0.677,2.011,1.188,2.896,1.522c0.129,0.048,0.232,0.148,0.287,0.274s0.055,0.27,0.001,0.397l-0.803,1.9
		C45.857,25.692,45.67,25.809,45.472,25.809z M36.041,5.554c-1.911,0-3.448,0.633-4.702,1.935c-1.242,1.29-1.872,3.272-1.872,5.891
		c0,2.54,0.625,4.503,1.857,5.836c1.239,1.34,2.781,1.991,4.716,1.991c0.517,0,1.02-0.056,1.505-0.167
		c-0.509-0.244-1.034-0.433-1.57-0.566c-0.137-0.034-0.254-0.124-0.322-0.247c-0.068-0.124-0.082-0.27-0.037-0.404l0.662-1.985
		c0.07-0.211,0.267-0.346,0.48-0.346c0.045,0,0.091,0.006,0.136,0.019c1.462,0.409,2.714,1.007,3.729,1.781
		c1.284-1.358,1.934-3.348,1.934-5.925c0-1.59-0.271-2.992-0.806-4.168c-0.524-1.151-1.298-2.055-2.301-2.688
		C38.447,5.876,37.299,5.554,36.041,5.554z"/>
	<g>
		<path fill="#F47421" d="M58.293,24.291v-7.052h-1.216v-1.071h1.216v-0.864c0-0.546,0.048-0.951,0.145-1.216
			c0.133-0.357,0.366-0.646,0.7-0.868s0.802-0.333,1.403-0.333c0.388,0,0.816,0.046,1.285,0.138l-0.207,1.201
			c-0.286-0.051-0.556-0.076-0.811-0.076c-0.418,0-0.714,0.089-0.887,0.268c-0.173,0.178-0.26,0.512-0.26,1.002v0.75h1.583v1.071
			h-1.583v7.052h-1.368V24.291z"/>
		<path fill="#F47421" d="M61.804,20.23c0-1.504,0.418-2.618,1.254-3.342c0.699-0.602,1.55-0.902,2.555-0.902
			c1.117,0,2.029,0.366,2.738,1.098s1.063,1.743,1.063,3.033c0,1.045-0.157,1.867-0.47,2.467c-0.314,0.599-0.77,1.064-1.369,1.396
			s-1.253,0.497-1.962,0.497c-1.137,0-2.056-0.365-2.757-1.094C62.154,22.652,61.804,21.602,61.804,20.23z M63.219,20.23
			c0,1.04,0.227,1.819,0.681,2.337c0.454,0.518,1.025,0.776,1.713,0.776c0.683,0,1.252-0.26,1.706-0.78S68,21.25,68,20.184
			c0-1.004-0.228-1.765-0.685-2.283s-1.024-0.776-1.702-0.776c-0.688,0-1.259,0.257-1.713,0.772
			C63.446,18.412,63.219,19.19,63.219,20.23z"/>
		<path fill="#F47421" d="M71.012,24.291v-8.122h1.239V17.4c0.316-0.576,0.608-0.956,0.876-1.14s0.562-0.275,0.883-0.275
			c0.464,0,0.936,0.148,1.415,0.444l-0.474,1.277c-0.337-0.199-0.673-0.298-1.01-0.298c-0.301,0-0.571,0.091-0.811,0.272
			s-0.41,0.432-0.512,0.753c-0.153,0.489-0.229,1.025-0.229,1.606v4.252H71.012z"/>
	</g>
</g>
<rect fill="none" width="150" height="30"/>
</svg>
