<?xml version="1.0" encoding="utf-8"?>
<!-- Generator: Adobe Illustrator 17.1.0, SVG Export Plug-In . SVG Version: 6.00 Build 0)  -->
<!DOCTYPE svg PUBLIC "-//W3C//DTD SVG 1.1//EN" "http://www.w3.org/Graphics/SVG/1.1/DTD/svg11.dtd" [
	<!ENTITY ns_extend "http://ns.adobe.com/Extensibility/1.0/">
	<!ENTITY ns_ai "http://ns.adobe.com/AdobeIllustrator/10.0/">
	<!ENTITY ns_graphs "http://ns.adobe.com/Graphs/1.0/">
	<!ENTITY ns_vars "http://ns.adobe.com/Variables/1.0/">
	<!ENTITY ns_imrep "http://ns.adobe.com/ImageReplacement/1.0/">
	<!ENTITY ns_sfw "http://ns.adobe.com/SaveForWeb/1.0/">
	<!ENTITY ns_custom "http://ns.adobe.com/GenericCustomNamespace/1.0/">
	<!ENTITY ns_adobe_xpath "http://ns.adobe.com/XPath/1.0/">
]>
<svg version="1.1" id="图层_1" xmlns:x="&ns_extend;" xmlns:i="&ns_ai;" xmlns:graph="&ns_graphs;"
	 xmlns="http://www.w3.org/2000/svg" xmlns:xlink="http://www.w3.org/1999/xlink" x="0px" y="0px" width="60px" height="30px"
	 viewBox="0 0 60 30" enable-background="new 0 0 60 30" xml:space="preserve">
<metadata>
	<sfw  xmlns="&ns_sfw;">
		<slices></slices>
		<sliceSourceBounds  width="60" height="30" x="0" y="-30" bottomLeftOrigin="true"></sliceSourceBounds>
	</sfw>
</metadata>
<rect fill="none" width="60" height="30"/>
<path opacity="0.8" fill="#FFFFFF" d="M27.531,19.555c0,1.055,0.21,2.061,0.583,2.985h-1.146l-4.126,3.345
	c-0.084,0.069-0.187,0.103-0.29,0.103c-0.086,0-0.171-0.024-0.247-0.072c-0.167-0.107-0.247-0.308-0.199-0.499l0.719-2.877h-0.759
	c-2.539,0-4.598-2.059-4.598-4.598v-7.356c0-2.539,2.059-4.598,4.598-4.598H34.94c2.538,0,4.598,2.058,4.598,4.598v2.055
	c-1.18-0.686-2.546-1.086-4.006-1.086C31.12,11.555,27.531,15.143,27.531,19.555z M42.531,19.555c0,3.86-3.141,7-7,7s-7-3.14-7-7
	s3.141-7,7-7S42.531,15.695,42.531,19.555z M40.401,20.692v-1h-4.5c-0.276,0-0.5-0.224-0.5-0.5v-4.5h-1v6H40.401z"/>
<linearGradient id="SVGID_1_" gradientUnits="userSpaceOnUse" x1="30" y1="4.9881" x2="30" y2="25.5546">
	<stop  offset="0" style="stop-color:#9D9D9D"/>
	<stop  offset="1" style="stop-color:#FFFFFF"/>
</linearGradient>
<path fill="url(#SVGID_1_)" d="M27.531,18.555c0,1.055,0.21,2.061,0.583,2.985h-1.146l-4.126,3.345
	c-0.084,0.069-0.187,0.103-0.29,0.103c-0.086,0-0.171-0.024-0.247-0.072c-0.167-0.107-0.247-0.308-0.199-0.499l0.719-2.877h-0.759
	c-2.539,0-4.598-2.059-4.598-4.598V9.586c0-2.539,2.059-4.598,4.598-4.598H34.94c2.538,0,4.598,2.058,4.598,4.598v2.055
	c-1.18-0.686-2.546-1.086-4.006-1.086C31.12,10.555,27.531,14.143,27.531,18.555z M42.531,18.555c0,3.86-3.141,7-7,7s-7-3.14-7-7
	s3.141-7,7-7S42.531,14.695,42.531,18.555z M40.401,19.692v-1h-4.5c-0.276,0-0.5-0.224-0.5-0.5v-4.5h-1v6H40.401z"/>
<linearGradient id="SVGID_2_" gradientUnits="userSpaceOnUse" x1="30" y1="4.9881" x2="30" y2="25.5546">
	<stop  offset="0" style="stop-color:#E0611E"/>
	<stop  offset="0.2024" style="stop-color:#ED6D20"/>
	<stop  offset="0.4086" style="stop-color:#F47421"/>
	<stop  offset="0.6159" style="stop-color:#F47A26"/>
	<stop  offset="0.9035" style="stop-color:#F58C33"/>
	<stop  offset="1" style="stop-color:#F59439"/>
</linearGradient>
<path opacity="0.6" fill="url(#SVGID_2_)" d="M27.531,18.555c0,1.055,0.21,2.061,0.583,2.985h-1.146l-4.126,3.345
	c-0.084,0.069-0.187,0.103-0.29,0.103c-0.086,0-0.171-0.024-0.247-0.072c-0.167-0.107-0.247-0.308-0.199-0.499l0.719-2.877h-0.759
	c-2.539,0-4.598-2.059-4.598-4.598V9.586c0-2.539,2.059-4.598,4.598-4.598H34.94c2.538,0,4.598,2.058,4.598,4.598v2.055
	c-1.18-0.686-2.546-1.086-4.006-1.086C31.12,10.555,27.531,14.143,27.531,18.555z M42.531,18.555c0,3.86-3.141,7-7,7s-7-3.14-7-7
	s3.141-7,7-7S42.531,14.695,42.531,18.555z M40.401,19.692v-1h-4.5c-0.276,0-0.5-0.224-0.5-0.5v-4.5h-1v6H40.401z"/>
<path opacity="0.06" d="M35.531,10.555c1.461,0,2.827,0.4,4.006,1.086V9.586c0-2.539-2.059-4.598-4.598-4.598H22.067
	c-2.539,0-4.598,2.058-4.598,4.598v7.356c0,2.538,2.059,4.598,4.598,4.598h0.759l-0.719,2.877c-0.048,0.192,0.032,0.393,0.199,0.499
	c0.076,0.048,0.161,0.072,0.247,0.072c0.103,0,0.206-0.034,0.29-0.103l4.126-3.345h1.146c-0.373-0.923-0.583-1.929-0.583-2.985
	C27.531,14.143,31.12,10.555,35.531,10.555z M26.76,20.561c-0.153,0.033-0.298,0.102-0.421,0.201l-2.869,2.326l0.326-1.307
	c0.075-0.298,0.008-0.615-0.182-0.858s-0.48-0.384-0.788-0.384h-0.76c-1.983,0-3.598-1.614-3.598-3.598V9.586
	c0-1.984,1.614-3.598,3.598-3.598H34.94c1.983,0,3.598,1.614,3.598,3.598v0.492c-0.964-0.345-1.981-0.523-3.007-0.523
	c-4.963,0-9,4.038-9,9C26.531,19.233,26.607,19.904,26.76,20.561z"/>
<path opacity="0.06" d="M35.531,11.555c-3.859,0-7,3.14-7,7s3.141,7,7,7s7-3.14,7-7S39.39,11.555,35.531,11.555z M40.401,17.692h-4
	v-4c0-0.552-0.447-1-1-1h-1c-0.553,0-1,0.448-1,1v6c0,0.552,0.447,1,1,1h6c0.459,0,0.846-0.309,0.963-0.73
	c-0.635,2.631-3.009,4.592-5.833,4.592c-3.309,0-6-2.691-6-6s2.691-6,6-6s6,2.691,6,6c0,0.455-0.051,0.898-0.147,1.324
	c0.012-0.061,0.018-0.123,0.018-0.187v-1C41.401,18.14,40.954,17.692,40.401,17.692z M35.901,18.692h4.5v1h-6v-6h1v4.5
	C35.401,18.469,35.625,18.692,35.901,18.692z"/>
<path opacity="0.06" d="M34.401,21.692v-2h1v0.5c0,0.276,0.224,0.5,0.5,0.5h4.5v1H34.401z M22.067,6.988H34.94
	c2.538,0,4.598,2.058,4.598,4.598v-2c0-2.539-2.059-4.598-4.598-4.598H22.067c-2.539,0-4.598,2.058-4.598,4.598v2
	C17.469,9.046,19.528,6.988,22.067,6.988z M39.538,13.641c-1.18-0.686-2.546-1.086-4.006-1.086c-2.651,0-4.998,1.302-6.455,3.294
	c-0.351,0.833-0.545,1.747-0.545,2.706c0,0.34,0.033,0.672,0.08,1c0.488-3.387,3.401-6,6.92-6s6.432,2.613,6.92,6
	c0.047-0.328,0.08-0.66,0.08-1c0-2.37-1.187-4.464-2.994-5.731V13.641z M22.326,23.54l-0.219,0.877
	c-0.048,0.192,0.032,0.393,0.199,0.499c0.05,0.032,0.108,0.037,0.164,0.048l0.356-1.424H22.326z M27.531,20.555
	c0,0.334,0.028,0.661,0.069,0.985h0.515c-0.254-0.628-0.425-1.297-0.513-1.991C27.56,19.879,27.531,20.213,27.531,20.555z"/>
<g opacity="0.06">
	<polygon points="40.401,20.692 40.401,19.692 35.901,19.692 34.401,19.692 34.401,20.692 	"/>
	<path d="M27.531,19.555c0,0.687,0.097,1.349,0.262,1.985h0.321c-0.313-0.774-0.502-1.608-0.558-2.479
		C27.546,19.225,27.531,19.388,27.531,19.555z"/>
	<path d="M35.531,11.555c-0.241,0-0.479,0.015-0.715,0.036c-3.525,0.359-6.285,3.345-6.285,6.964c0,0.169,0.014,0.334,0.025,0.5
		c0.258-3.626,3.284-6.5,6.975-6.5s6.716,2.874,6.975,6.5c0.012-0.166,0.025-0.331,0.025-0.5c0-3.568-2.685-6.515-6.139-6.941
		C36.108,11.582,35.823,11.555,35.531,11.555z"/>
	<path d="M22.067,5.988H34.94c2.538,0,4.598,2.058,4.598,4.598v-1c0-2.539-2.059-4.598-4.598-4.598H22.067
		c-2.539,0-4.598,2.058-4.598,4.598v1C17.469,8.046,19.528,5.988,22.067,5.988z"/>
	<path d="M22.576,22.54l-0.469,1.877c-0.04,0.161,0.026,0.318,0.142,0.431l0.577-2.308H22.576z"/>
</g>
</svg>
